<?xml version="1.0" encoding="utf-8"?>
<!-- Generator: Adobe Illustrator 16.0.0, SVG Export Plug-In . SVG Version: 6.00 Build 0)  -->
<!DOCTYPE svg PUBLIC "-//W3C//DTD SVG 1.1//EN" "http://www.w3.org/Graphics/SVG/1.1/DTD/svg11.dtd">
<svg version="1.1" id="Layer_1" xmlns="http://www.w3.org/2000/svg" xmlns:xlink="http://www.w3.org/1999/xlink" x="0px" y="0px"
	 width="283.46px" height="141.73px" viewBox="0 0 283.46 141.73" enable-background="new 0 0 283.46 141.73" xml:space="preserve">
<polygon fill="#E0DD20" points="133.231,55.626 51.644,55.626 58.281,15.267 139.869,15.267 "/>
<polygon fill="#E0DD20" points="104.217,101.825 25.965,101.825 32.602,61.468 110.854,61.468 "/>
<g>
	<path d="M68.724,25.646h-9.7l-1.172,6.27h7.804l-0.992,5.053h-7.805l-1.579,8.435h9.609l-0.992,5.054H48.288l5.819-30.001h15.609
		L68.724,25.646z"/>
	<path d="M88.413,40.667c-1.263,6.585-4.962,9.791-11.007,9.791h-9.248l5.819-30.001h9.068c6,0,8.616,3.699,7.353,10.016
		L88.413,40.667z M84.443,30.291c0.542-2.706,0.181-4.645-2.39-4.645h-3.159L75.15,45.403h2.842c2.617,0,3.924-1.758,4.511-4.78
		L84.443,30.291z"/>
	<path d="M115.01,20.456l-4.061,20.708c-1.172,6.136-4.511,9.699-10.692,9.699c-6,0-8.48-3.655-7.308-9.745l4.015-20.662h5.955
		l-4.06,21.021c-0.542,2.752,0.045,4.331,2.166,4.331c2.21,0,3.383-1.444,3.924-4.331l4.06-21.021H115.01z"/>
	<path d="M121.254,38.908c3.787,0,6.309,2.522,6.309,6.018c0,3.59-2.522,6.112-6.309,6.112c-3.687,0-6.209-2.522-6.209-6.112
		C115.045,41.431,117.567,38.908,121.254,38.908z"/>
	<path d="M54.695,66.614c0.315-1.535,0.226-3.476-2.211-3.476c-1.94,0-2.842,1.219-3.158,2.708l-0.09,0.45
		c-0.271,1.579,0.316,2.573,2.933,4.106c4.331,2.571,6.722,5.279,5.819,9.519l-0.315,1.624c-0.722,3.701-3.745,7.443-9.925,7.443
		c-6.091,0-8.166-3.429-7.128-8.57l0.315-1.579H46.8l-0.271,1.443c-0.316,1.759-0.316,3.655,1.985,3.655
		c2.121,0,2.933-1.13,3.248-2.752l0.136-0.724c0.496-2.255-0.677-3.654-3.384-5.233c-4.015-2.345-5.955-4.872-5.278-8.436
		l0.225-1.173c0.722-3.79,3.744-7.532,9.88-7.532c5.413,0,8.345,3.428,7.172,9.246l-0.18,0.903h-5.955L54.695,66.614z"/>
	<path d="M81.224,63.727h-9.7l-1.172,6.27h7.804l-0.992,5.052h-7.805l-1.579,8.436h9.609l-0.992,5.054H60.788l5.819-30.001h15.609
		L81.224,63.727z"/>
	<path d="M95.658,68.507l0.271-1.398c0.361-1.939,0.09-3.971-2.166-3.971c-2.526,0-3.338,2.12-3.789,4.422l-2.256,11.863
		c-0.542,2.8-0.181,4.466,2.075,4.466c2.301,0,3.293-1.893,3.7-4.059l0.226-1.219h5.954l-0.226,1.173
		c-1.127,5.774-4.375,9.203-10.511,9.203c-6.091,0-8.256-4.061-7.127-10.06l2.075-11.098c1.127-5.955,4.512-9.743,10.557-9.743
		c5.594,0,8.436,4.148,7.308,9.517l-0.18,0.903H95.658z"/>
	<path d="M102.045,88.538l5.819-30.001h6.09l2.843,17.55h0.225l9.79-17.55h5.73l-5.822,30.001h-5.142l3.563-18.271h-0.225
		l-8.255,14.752h-3.023l-2.797-15.023h-0.18l-3.474,18.542H102.045z"/>
	<path d="M129.247,88.538l13.804-30.001h6.677l1.714,30.001h-6.136l-0.136-5.098h-7.578l-2.209,5.098H129.247z M139.622,78.388h5.46
		l-0.227-12.044h-0.227L139.622,78.388z"/>
	<path d="M168.944,68.507l0.271-1.398c0.361-1.939,0.091-3.971-2.164-3.971c-2.529,0-3.34,2.12-3.79,4.422l-2.259,11.863
		c-0.54,2.8-0.179,4.466,2.076,4.466c2.303,0,3.293-1.893,3.698-4.059l0.227-1.219h5.957l-0.227,1.173
		c-1.129,5.774-4.374,9.203-10.511,9.203c-6.092,0-8.256-4.061-7.13-10.06l2.076-11.098c1.129-5.955,4.513-9.743,10.558-9.743
		c5.592,0,8.436,4.148,7.307,9.517l-0.18,0.903H168.944z"/>
	<path d="M188.303,88.538l2.525-13.127h-6.995l-2.525,13.127h-5.954l5.818-30.001h5.957l-2.302,11.819h7.038l2.256-11.819h5.953
		l-5.818,30.001H188.303z"/>
	<path d="M199.757,88.538l5.821-30.001h5.954l-5.818,30.001H199.757z"/>
	<path d="M230.292,88.538h-5.862l-4.378-19.263h-0.18l-3.654,19.263h-5.051l5.818-30.001h5.909l4.195,19.94h0.271l3.743-19.94h5.01
		L230.292,88.538z"/>
	<path d="M256.206,63.727h-9.7l-1.173,6.27h7.803l-0.99,5.052h-7.807l-1.578,8.436h9.611l-0.994,5.054h-15.609l5.818-30.001h15.609
		L256.206,63.727z"/>
</g>
<g>
	<path d="M48.621,95.89c3.785,0,6.308,2.524,6.308,6.017c0,3.591-2.523,6.114-6.308,6.114c-3.688,0-6.21-2.523-6.21-6.114
		C42.411,98.414,44.934,95.89,48.621,95.89z"/>
	<path d="M73.812,124.747h-5.865l-4.375-19.263H63.39l-3.654,19.263h-5.052l5.819-29.998h5.911l4.195,19.938h0.271l3.745-19.938
		h5.007L73.812,124.747z"/>
	<path d="M99.723,99.936h-9.699l-1.173,6.271h7.805l-0.992,5.052h-7.805l-1.579,8.438h9.609l-0.992,5.051H79.287l5.819-29.998
		h15.609L99.723,99.936z"/>
	<path d="M104.399,124.747l4.782-24.767h-6.361l1.038-5.231h18.813l-1.038,5.231h-6.497l-4.781,24.767H104.399z"/>
</g>
</svg>
