<?xml version="1.0" standalone="no"?>
<!DOCTYPE svg PUBLIC "-//W3C//DTD SVG 1.1//EN" "http://www.w3.org/Graphics/SVG/1.1/DTD/svg11.dtd" >
<svg xmlns="http://www.w3.org/2000/svg">
<metadata>
Created by FontPrep 20130207 at Wed Nov 23 15:34:46 2016
 By Tina Muller
Copyright (c) 2014 by FONTYOU. All rights reserved. www.fontyou.com
</metadata>
<defs>
<font id="198d3987a853ba7c5677202c1eabcc9d" horiz-adv-x='1024' >
  <font-face 
    font-family="MarianinaWdFY-LightItalic"
    font-weight="300"
    font-style="italic"
    font-stretch="normal"
    units-per-em="2048"
    panose-1="2 0 3 6 0 0 0 9 0 4"
    ascent="1638"
    descent="-410"
    x-height="1032"
    cap-height="1362"
    bbox="-401 -430 2284.45 1780"
    underline-thickness="102"
    underline-position="-102"
    slope="-12"
    unicode-range="U+000D-FB04"
  />
<missing-glyph horiz-adv-x="1232" 
d="M825 1024q87 0 145 -60t58 -155q0 -129 -112 -283t-300 -250q-188 96 -300 250t-111 283q0 95 57 155t146 60q128 0 200 -133h17q72 133 200 133z" />
    <glyph glyph-name="f_f" unicode="ff" horiz-adv-x="1275" 
d="M1245 1454q125 0 205 -84l-55 -57q-53 69 -164 69t-181 -82t-89 -198l-15 -70h330l-14 -71h-328l-189 -961h-86l207 1071q76 383 379 383zM621 1454q125 0 204 -84l-55 -57q-53 69 -164 69q-110 0 -180 -82t-90 -198l-14 -70h329l-14 -71h-328l-188 -961h-86l207 1071
q76 383 379 383z" />
    <glyph glyph-name="fi" unicode="fi" horiz-adv-x="1075" 
d="M961 1321q53 0 53 -51q0 -36 -20 -56t-49 -20q-58 0 -58 53q-1 33 21 53t53 21zM664 0l200 1032h78l-12 -112l-180 -920h-86zM621 1454q125 0 204 -84l-55 -57q-53 69 -164 69q-110 0 -180 -82t-90 -198l-14 -70h329l-14 -71h-328l-188 -961h-86l207 1071q76 383 379 383
z" />
    <glyph glyph-name="fl" unicode="fl" horiz-adv-x="1077" 
d="M1026 1454l-12 -113l-260 -1341h-78l14 113l260 1341h76zM621 1454q125 0 204 -84l-55 -57q-53 69 -164 69q-110 0 -180 -82t-90 -198l-14 -70h329l-14 -71h-328l-188 -961h-86l207 1071q76 383 379 383z" />
    <glyph glyph-name="f_f_i" unicode="ffi" horiz-adv-x="1699" 
d="M1585 1321q53 0 53 -51q0 -36 -20 -56t-48 -20q-57 0 -59 53q-1 33 21 53t53 21zM1288 0l201 1032h78l-13 -112l-180 -920h-86zM1245 1454q125 0 205 -84l-55 -57q-53 69 -164 69t-181 -82t-89 -198l-15 -70h330l-14 -71h-328l-189 -961h-86l207 1071q76 383 379 383z
M621 1454q125 0 204 -84l-55 -57q-53 69 -164 69q-110 0 -180 -82t-90 -198l-14 -70h329l-14 -71h-328l-188 -961h-86l207 1071q76 383 379 383z" />
    <glyph glyph-name="f_f_l" unicode="ffl" horiz-adv-x="1701" 
d="M1651 1454l-13 -113l-260 -1341h-78l15 113l260 1341h76zM1245 1454q125 0 205 -84l-55 -57q-53 69 -164 69t-181 -82t-89 -198l-15 -70h330l-14 -71h-328l-189 -961h-86l207 1071q76 383 379 383zM621 1454q125 0 204 -84l-55 -57q-53 69 -164 69q-110 0 -180 -82
t-90 -198l-14 -70h329l-14 -71h-328l-188 -961h-86l207 1071q76 383 379 383z" />
    <glyph glyph-name=".notdef" horiz-adv-x="1232" 
d="M825 1024q87 0 145 -60t58 -155q0 -129 -112 -283t-300 -250q-188 96 -300 250t-111 283q0 95 57 155t146 60q128 0 200 -133h17q72 133 200 133z" />
    <glyph glyph-name=".null" horiz-adv-x="0" 
 />
    <glyph glyph-name=".null" horiz-adv-x="0" 
 />
    <glyph glyph-name="nonmarkingreturn" horiz-adv-x="681" 
 />
    <glyph glyph-name="CR" unicode="&#xd;" horiz-adv-x="0" 
 />
    <glyph glyph-name="space" unicode=" " horiz-adv-x="401" 
 />
    <glyph glyph-name="exclam" unicode="!" horiz-adv-x="681" 
d="M202 -10q-60 0 -61 58q0 28 24 50t54 21q55 0 55 -56q0 -33 -22 -53q-20 -20 -50 -20zM416 1362h86l-207 -1069h-76l10 121z" />
    <glyph glyph-name="quotedbl" unicode="&#x22;" horiz-adv-x="634" 
d="M614 1386l-84 -366h-59l53 366h90zM356 1386l-86 -366h-59l53 366h92z" />
    <glyph glyph-name="numbersign" unicode="#" horiz-adv-x="1243" 
d="M543 924l-242 -465h383l240 465h-381zM289 924l12 67h199l192 371h78l-192 -371h383l192 371h76l-193 -371h176l-10 -67h-201l-239 -465h170l-10 -68h-197l-203 -391h-78l203 391h-381l-205 -391h-77l204 391h-182l12 68h205l242 465h-176z" />
    <glyph glyph-name="dollar" unicode="$" horiz-adv-x="925" 
d="M584 1309q-112 -1 -191 -61q-78 -60 -96 -152l-10 -56q-17 -82 21 -138t170 -138t193 -166q62 -84 38 -221l-19 -101q-26 -126 -112 -204t-222 -86l-22 -119h-88l24 119q-131 8 -187 83t-30 212l6 32h86l-4 -22q-47 -238 183 -238q108 -1 184 61t94 158l16 90
q23 111 -24 178q-46 67 -160 142q-114 74 -158 114q-105 93 -79 232l12 64q23 118 107 196t225 90l22 117h86l-22 -117q129 -10 187 -87t32 -212l-6 -30h-86l6 32q20 98 -22 163t-154 65z" />
    <glyph glyph-name="percent" unicode="%" horiz-adv-x="1718" 
d="M1366 764q-76 0 -124 -53t-62 -133l-68 -351q-14 -74 10 -124t102 -50q77 0 125 50t60 120l72 363q16 78 -11 128q-28 50 -104 50zM1559 582l-66 -351q-23 -111 -93 -177t-182 -66t-158 68t-26 182l66 333q23 119 92 189q70 70 182 70t160 -69q48 -68 25 -179zM1378 1362
l-972 -1362h-82l974 1362h80zM474 1317q-77 0 -125 -53t-62 -134l-68 -350q-13 -74 11 -124t101 -50t125 50t60 120l72 363q16 78 -10 128q-27 50 -104 50zM666 1135l-66 -351q-22 -112 -92 -178t-182 -66t-159 68q-46 68 -26 183l66 333q23 119 92 189q69 69 181 69
t160 -68t26 -179z" />
    <glyph glyph-name="ampersand" unicode="&#x26;" horiz-adv-x="1118" 
d="M317 -20q-145 0 -206 85t-33 234l8 45q27 135 115 214t262 168q174 90 247 152t91 156l6 31q20 104 -26 173t-172 69q-127 0 -203 -78t-97 -185l-10 -51q-31 -156 100 -223l-63 -45q-162 92 -121 289l6 30q29 150 133 244t266 94t234 -83q70 -83 41 -220l-8 -45
q-25 -122 -106 -194t-214 -140t-148 -78t-46 -27t-42 -27t-36 -27q-25 -19 -35 -31t-28 -32q-39 -43 -60 -134l-10 -57q-18 -100 24 -166t163 -66q120 0 206 81t109 192l24 129h86l-26 -140q-37 -182 16 -288t211 -107l-17 -78q-170 0 -240 96t-59 230h-6
q-117 -190 -336 -190z" />
    <glyph glyph-name="quotesingle" unicode="'" horiz-adv-x="374" 
d="M356 1386l-86 -366h-59l53 366h92z" />
    <glyph glyph-name="parenleft" unicode="(" horiz-adv-x="712" 
d="M760 1595h39l-17 -79h-37q-135 0 -224 -81t-118 -229l-198 -1016q-29 -147 24 -231t187 -84h47l-12 -80h-50q-179 1 -249 105t-33 288l198 1024q74 383 443 383z" />
    <glyph glyph-name="parenright" unicode=")" horiz-adv-x="741" 
d="M-57 -205h-41l16 80h41q279 0 340 309l197 1012q30 152 -22 236t-185 84h-51l16 79h49q178 1 248 -107t33 -290l-199 -1022q-76 -381 -442 -381z" />
    <glyph glyph-name="asterisk" unicode="*" horiz-adv-x="686" 
d="M211 1094l-25 55l197 90l2 6l-168 90l43 58l148 -119l6 6l22 205h66l-53 -205l6 -4l192 117l25 -58l-205 -94v-6l172 -86l-41 -55l-154 114l-4 -2l-20 -205h-66l52 203l-5 4z" />
    <glyph glyph-name="plus" unicode="+" horiz-adv-x="786" 
d="M123 580l14 77h205l39 205h78l-39 -205h205l-15 -77h-204l-41 -205h-78l41 205h-205z" />
    <glyph glyph-name="comma" unicode="," horiz-adv-x="399" 
d="M145 92l-168 -325h-53l125 325h96z" />
    <glyph glyph-name="hyphen" unicode="-" horiz-adv-x="628" 
d="M98 621l15 79h385l-17 -79h-383z" />
    <glyph glyph-name="period" unicode="." horiz-adv-x="393" 
d="M56 -10q-60 0 -60 58q0 28 22 50t56 21q55 0 55 -56q1 -33 -21 -53t-52 -20z" />
    <glyph glyph-name="slash" unicode="/" horiz-adv-x="786" 
d="M885 1454l-946 -1636h-84l948 1636h82z" />
    <glyph glyph-name="zero" unicode="0" horiz-adv-x="980" 
d="M595 1307q-130 0 -207 -87t-101 -223l-125 -639q-27 -133 14 -218t172 -85t207 87q75 87 100 218l123 637q27 133 -13 221t-170 89zM336 -20q-166 0 -231 104t-27 295l117 606q37 189 139 293t267 104t232 -104q66 -105 29 -295l-117 -606q-78 -397 -409 -397z" />
    <glyph glyph-name="one" unicode="1" horiz-adv-x="708" 
d="M371 0h-88l249 1278l-346 -205l-41 66l381 223h109z" />
    <glyph glyph-name="two" unicode="2" horiz-adv-x="917" 
d="M584 1382q162 0 228 -90t40 -231l-8 -43q-20 -113 -93 -215t-227 -264l-440 -465h575l-14 -74h-668l19 92l426 453q178 190 248 285t88 192l6 33q24 109 -24 181t-169 71q-121 0 -201 -77t-102 -186l-4 -24h-88q35 176 141 269q105 93 267 93z" />
    <glyph glyph-name="three" unicode="3" horiz-adv-x="937" 
d="M562 1307q-126 0 -204 -79t-98 -200h-86l4 25q27 145 129 237q101 92 267 92t232 -87t40 -234l-10 -51q-43 -229 -265 -285l-2 -6q201 -51 154 -285l-21 -108q-33 -166 -135 -256t-265 -90q-162 0 -228 92t-37 241l4 21h86l-4 -21q-21 -102 21 -180t170 -78t204 81
t96 194l21 104q20 108 -26 178t-160 70h-101l14 78h95q113 0 191 72t97 167l11 54q24 106 -22 180t-172 74z" />
    <glyph glyph-name="four" unicode="4" horiz-adv-x="872" 
d="M504 0l61 317h-567l20 99l713 946h96l-729 -969h482l57 291h86l-133 -684h-86z" />
    <glyph glyph-name="five" unicode="5" horiz-adv-x="972" 
d="M553 932q143 0 205 -91t30 -257l-47 -242q-70 -362 -407 -362q-162 0 -226 97t-32 261h88l-4 -21q-23 -111 17 -187t167 -75q256 0 311 285l50 254q23 112 -21 186t-158 74q-160 0 -284 -166h-101l133 674h658l-14 -76h-572l-98 -506q133 152 305 152z" />
    <glyph glyph-name="six" unicode="6" horiz-adv-x="976" 
d="M345 55q124 0 204 83t106 218l31 158q22 123 -28 192q-50 68 -166 68t-198 -77q-81 -77 -99 -181l-35 -174q-25 -125 18 -206t167 -81zM602 1307q-131 0 -209 -85t-102 -210l-64 -320q43 68 124 112t177 44q147 0 212 -88t34 -242l-31 -151q-37 -183 -138 -285t-267 -102
t-230 105t-30 288l119 612q35 180 138 289q103 108 268 108t234 -97t33 -253h-86q33 155 -53 233q-47 42 -129 42z" />
    <glyph glyph-name="seven" unicode="7" horiz-adv-x="829" 
d="M117 0h-97l760 1286h-616l12 76h698l-18 -96z" />
    <glyph glyph-name="eight" unicode="8" horiz-adv-x="970" 
d="M592 1307q-121 0 -197 -70t-94 -160l-8 -43q-15 -84 29 -144t165 -140q147 84 215 145t84 139l9 43q16 90 -33 160t-170 70zM352 55q127 0 199 70t92 174l10 53q18 100 -27 173q-46 73 -155 143q-149 -84 -223 -156t-90 -172l-8 -45q-18 -98 28 -169t174 -71zM339 -20
q-163 0 -234 87t-44 226l7 35q18 124 95 204t249 177q-131 92 -179 162q-47 71 -26 171l6 31q29 135 130 222t260 87t231 -87t47 -218l-7 -33q-16 -98 -90 -171t-235 -162q113 -76 163 -160t27 -199l-10 -53q-29 -151 -128 -235t-262 -84z" />
    <glyph glyph-name="nine" unicode="9" horiz-adv-x="983" 
d="M597 1307q-130 0 -206 -85t-102 -223l-29 -147q-47 -262 184 -262q123 0 207 81t109 206l24 133q25 125 -16 211t-171 86zM350 55q129 0 206 87t101 214l60 310q-113 -152 -305 -152q-147 0 -208 89q-60 89 -28 259l25 129q37 187 139 289t271 102t231 -111
q61 -112 22 -296l-112 -590q-40 -207 -142 -306t-267 -99t-233 92t-38 237l2 13h86q-22 -122 19 -194q42 -73 171 -73z" />
    <glyph glyph-name="colon" unicode=":" horiz-adv-x="413" 
d="M162 886q0 28 22 50t52 20q59 -1 59 -55q0 -33 -23 -53q-24 -20 -52 -20t-43 14q-15 16 -15 44zM56 -10q-60 0 -60 58q0 28 22 50t56 21q55 0 55 -56q1 -33 -21 -53t-52 -20z" />
    <glyph glyph-name="semicolon" unicode=";" horiz-adv-x="417" 
d="M143 92l-166 -325h-55l127 325h94zM166 886q0 28 22 50t54 20q55 0 55 -55q0 -33 -22 -53q-23 -20 -51 -20t-43 14q-15 16 -15 44z" />
    <glyph glyph-name="less" unicode="&#x3c;" horiz-adv-x="786" 
d="M74 602l14 74l535 250l-17 -86l-444 -201l368 -201l-16 -82z" />
    <glyph glyph-name="equal" unicode="=" horiz-adv-x="786" 
d="M100 467l17 78h487l-16 -78h-488zM145 692l15 78h487l-14 -78h-488z" />
    <glyph glyph-name="greater" unicode="&#x3e;" horiz-adv-x="786" 
d="M623 676l-17 -74l-534 -250l16 86l447 201l-367 201l14 82z" />
    <glyph glyph-name="question" unicode="?" horiz-adv-x="948" 
d="M273 -10q-60 0 -60 58q0 28 23 50t55 21q55 0 55 -56q0 -33 -22 -53t-51 -20zM606 1382q151 0 220 -78t48 -188l-10 -51q-20 -103 -71 -163t-181 -143t-169 -154q-38 -71 -62 -208l-21 -104h-88l25 121q29 160 77 238t178 156q130 79 170 132t56 135l6 31q16 88 -31 143
q-48 55 -160 55t-193 -69q-81 -70 -101 -182l-8 -43h-88l8 43q29 157 137 243t258 86z" />
    <glyph glyph-name="at" unicode="@" horiz-adv-x="1509" 
d="M771 877q-101 0 -163 -61t-82 -165l-59 -311q-15 -80 17 -136t112 -56t143 40q63 41 101 101l100 516q-68 72 -169 72zM764 946q119 0 199 -80l32 76h49l-126 -655q-12 -61 12 -102q26 -40 94 -40q68 -1 112 57t62 148l68 357q49 191 -43 345q-41 70 -137 110t-240 40
q-260 0 -423 -138t-208 -380l-76 -395q-43 -223 61 -345t365 -122h37l-14 -72h-41q-291 0 -413 144t-73 393l78 401q53 270 237 427t473 157q290 0 417 -150t75 -415l-63 -336q-55 -289 -272 -289q-70 0 -112 37t-48 98q-113 -135 -268 -135q-114 0 -164 68t-25 198l57 297
q57 301 318 301z" />
    <glyph glyph-name="A" unicode="A" horiz-adv-x="976" 
d="M598 1262l-356 -789h405l-45 789h-4zM27 0h-90l630 1362h105l92 -1362h-86l-27 399h-442z" />
    <glyph glyph-name="B" unicode="B" horiz-adv-x="995" 
d="M506 772q102 0 172 62t90 155l16 86q20 100 -25 156q-46 55 -157 55h-225l-101 -514h230zM397 76q109 0 181 69q71 70 94 183l24 131q20 104 -16 172q-37 68 -141 67h-277l-121 -622h256zM385 0h-346l264 1362h315q145 0 213 -74t37 -219l-10 -61q-20 -113 -74 -169
t-137 -89q184 -52 135 -304l-20 -104q-68 -342 -377 -342z" />
    <glyph glyph-name="C" unicode="C" horiz-adv-x="923" 
d="M594 1307q-129 0 -206 -89t-103 -225l-123 -633q-27 -131 15 -218t173 -87t204 76t93 188l4 21h86l-4 -21q-70 -340 -393 -339q-168 0 -232 108t-28 299l115 598q37 189 139 293t265 104t234 -100t39 -248l-2 -14h-86q24 121 -18 205q-43 82 -172 82z" />
    <glyph glyph-name="D" unicode="D" horiz-adv-x="1021" 
d="M627 1286h-250l-236 -1210h244q131 0 209 80t102 204l123 641q25 127 -19 206t-173 79zM375 0h-336l264 1362h334q167 0 235 -96t33 -277l-121 -622q-70 -367 -409 -367z" />
    <glyph glyph-name="E" unicode="E" horiz-adv-x="858" 
d="M889 1362l-15 -76h-497l-101 -514h431l-17 -76h-428l-121 -620h498l-14 -76h-586l264 1362h586z" />
    <glyph glyph-name="F" unicode="F" horiz-adv-x="841" 
d="M127 0h-88l264 1362h584l-15 -76h-495l-101 -514h418l-14 -76h-418z" />
    <glyph glyph-name="G" unicode="G" horiz-adv-x="960" 
d="M336 -20q-168 0 -231 105q-62 105 -25 298l115 602q37 189 141 293t268 104t233 -98t37 -248l-2 -12h-86l5 20q18 102 -24 182t-171 81q-129 0 -206 -86t-103 -224l-125 -637q-57 -305 182 -305q133 0 210 87t103 218l62 326h-211l14 74h299l-73 -385q-36 -191 -140 -293
t-272 -102z" />
    <glyph glyph-name="H" unicode="H" horiz-adv-x="1069" 
d="M743 0h-86l136 696h-531l-135 -696h-88l264 1362h88l-115 -590h531l115 590h86z" />
    <glyph glyph-name="I" unicode="I" horiz-adv-x="450" 
d="M127 0h-88l264 1362h88z" />
    <glyph glyph-name="J" unicode="J" horiz-adv-x="581" 
d="M-70 -20l15 77q240 6 295 289l196 1016h86l-192 -1004q-38 -192 -134 -284t-266 -94z" />
    <glyph glyph-name="K" unicode="K" horiz-adv-x="980" 
d="M1032 1362l-510 -565l264 -797h-96l-237 725l-234 -254l-92 -471h-88l264 1362h88l-149 -770l686 770h104z" />
    <glyph glyph-name="L" unicode="L" horiz-adv-x="837" 
d="M303 1362h88l-250 -1286h502l-14 -76h-590z" />
    <glyph glyph-name="M" unicode="M" horiz-adv-x="1349" 
d="M119 0h-80l264 1362h123l147 -1135h7l594 1135h116l-262 -1362h-80l242 1243h-6l-606 -1161h-58l-155 1163h-5z" />
    <glyph glyph-name="N" unicode="N" horiz-adv-x="1083" 
d="M1024 1362l-264 -1362h-121l-272 1251h-7l-241 -1251h-80l264 1362h119l272 -1258h11l241 1258h78z" />
    <glyph glyph-name="O" unicode="O" horiz-adv-x="980" 
d="M595 1307q-130 0 -207 -87t-101 -223l-125 -637q-27 -133 14 -219t172 -86t207 87q75 87 100 218l123 637q27 133 -13 221t-170 89zM336 -20q-166 0 -230 104q-63 104 -26 295l115 606q37 189 139 293t267 104t232 -104q66 -105 29 -295l-117 -606q-78 -397 -409 -397z
" />
    <glyph glyph-name="P" unicode="P" horiz-adv-x="956" 
d="M489 662q115 0 187 66t92 173l29 150q20 102 -24 169t-163 66h-233l-123 -624h235zM625 1362q153 0 221 -84t35 -246l-23 -117q-63 -330 -381 -329h-235l-115 -586h-88l264 1362h322z" />
    <glyph glyph-name="Q" unicode="Q" horiz-adv-x="980" 
d="M595 1307q-130 0 -207 -87t-101 -223l-125 -637q-27 -133 14 -219t172 -86t207 87q75 87 100 218l123 637q27 133 -13 221t-170 89zM604 -217h43l-16 -74h-51q-186 0 -255 67t-42 206q-135 16 -186 119q-50 103 -17 278l115 606q37 189 139 293t267 104t232 -104
q66 -105 29 -295l-117 -606q-74 -377 -380 -395q-18 -102 34 -151q53 -48 205 -48z" />
    <glyph glyph-name="R" unicode="R" horiz-adv-x="1005" 
d="M647 1286h-270l-107 -538h242q248 0 289 229l16 84q40 225 -170 225zM657 1362q305 0 246 -313l-10 -54q-49 -258 -281 -307l160 -688h-96l-148 672h-270l-131 -672h-88l264 1362h354z" />
    <glyph glyph-name="S" unicode="S" horiz-adv-x="874" 
d="M550 1307q-116 -1 -188 -63t-90 -159l-8 -43q-16 -86 22 -144t171 -133t192 -163t31 -231l-16 -84q-27 -139 -123 -223t-255 -84t-224 82t-31 239l6 29h86l-6 -31q-47 -244 182 -244q109 -1 183 63t96 171l12 65q26 119 -20 194q-46 74 -179 150t-185 149t-30 183l10 53
q25 131 117 215t249 84q158 0 222 -89t33 -240l-4 -21h-88l4 21q20 104 -16 179q-37 75 -153 75z" />
    <glyph glyph-name="T" unicode="T" horiz-adv-x="890" 
d="M338 0h-86l250 1284h-340l14 78h776l-14 -78h-350z" />
    <glyph glyph-name="U" unicode="U" horiz-adv-x="1030" 
d="M373 -20q-170 0 -236 104t-28 293l192 985h88l-194 -1002q-27 -133 14 -219t173 -86t206 85t100 220l197 1002h86l-193 -985q-39 -197 -137 -297t-268 -100z" />
    <glyph glyph-name="V" unicode="V" horiz-adv-x="909" 
d="M950 1362l-596 -1362h-110l-60 1362h88l43 -1260h7l538 1260h90z" />
    <glyph glyph-name="W" unicode="W" horiz-adv-x="1415" 
d="M778 1362h68l49 -1239h4l463 1239h90l-526 -1362h-99l-51 1163h-6l-504 -1163h-98l27 1362h86l-37 -1239h4z" />
    <glyph glyph-name="X" unicode="X" horiz-adv-x="901" 
d="M487 672l197 -672h-88l-174 606h-6l-389 -606h-95l461 692l-194 670h88l170 -606h6l395 606h90z" />
    <glyph glyph-name="Y" unicode="Y" horiz-adv-x="917" 
d="M967 1362l-523 -903l-88 -459h-88l88 459l-170 903h90l142 -797h4l452 797h93z" />
    <glyph glyph-name="Z" unicode="Z" horiz-adv-x="808" 
d="M745 1284h-530l10 78h619l-17 -92l-782 -1194h530l-12 -76h-616l18 94z" />
    <glyph glyph-name="bracketleft" unicode="[" horiz-adv-x="669" 
d="M39 -205l350 1800h352l-14 -79h-266l-320 -1641h267l-15 -80h-354z" />
    <glyph glyph-name="backslash" unicode="\" horiz-adv-x="792" 
d="M492 -182l-314 1636h84l311 -1636h-81z" />
    <glyph glyph-name="bracketright" unicode="]" horiz-adv-x="667" 
d="M623 1595l-351 -1800h-352l14 80h267l319 1641h-266l14 79h355z" />
    <glyph glyph-name="asciicircum" unicode="^" horiz-adv-x="786" 
d="M387 909h76l121 -479h-84l-92 395l-246 -395h-86z" />
    <glyph glyph-name="underscore" unicode="_" horiz-adv-x="921" 
d="M-86 -131l14 78h756l-14 -78h-756z" />
    <glyph glyph-name="grave" unicode="`" horiz-adv-x="1067" 
d="M532 1391h101l92 -273h-68z" />
    <glyph glyph-name="a" unicode="a" horiz-adv-x="929" 
d="M285 -20q-291 0 -215 385l59 305q76 383 369 383q139 0 221 -99l26 78h62l-166 -868q-12 -57 3 -84t71 -27l-17 -73q-84 0 -114 32t-29 97q-115 -129 -270 -129zM504 981q-231 0 -289 -315l-59 -304q-61 -311 159 -311q136 0 240 125l137 711q-53 94 -188 94z" />
    <glyph glyph-name="b" unicode="b" horiz-adv-x="954" 
d="M566 1053q144 -1 198 -97t18 -274l-61 -322q-78 -381 -373 -380q-135 0 -217 90l-27 -70h-65l283 1454h77l-12 -115l-80 -411q115 125 259 125zM346 51q227 0 285 295l65 338q27 129 -7 213t-148 84q-144 0 -248 -129l-137 -709q20 -37 69 -65t121 -27z" />
    <glyph glyph-name="c" unicode="c" horiz-adv-x="878" 
d="M492 981q-127 0 -192 -100t-95 -258l-62 -318q-23 -109 17 -181t152 -71q112 0 182 82t86 191h86q-23 -152 -119 -249q-97 -97 -243 -97t-211 91t-36 238l64 324q39 203 129 311t244 109t214 -95q62 -96 35 -231l-4 -22h-86l4 24q6 55 3 111t-47 99q-44 42 -121 42z" />
    <glyph glyph-name="d" unicode="d" horiz-adv-x="937" 
d="M295 -20q-143 0 -205 90q-61 90 -33 239l64 324q39 201 126 311t237 109q150 0 225 -95l94 496h78l-15 -113l-225 -1175q-25 -113 74 -113l-15 -73q-82 0 -112 32t-33 97q-117 -129 -260 -129zM496 981q-221 0 -291 -358l-62 -318q-23 -109 19 -181t151 -71
q138 0 244 127l135 703q-59 98 -196 98z" />
    <glyph glyph-name="e" unicode="e" horiz-adv-x="880" 
d="M306 -20q-150 0 -214 90q-63 90 -35 239l64 324q39 205 131 313t262 107q129 0 196 -71t44 -187l-4 -23q-29 -158 -151 -212t-421 -68l-35 -185q-20 -111 20 -183q41 -72 153 -71q112 0 177 73q64 73 80 165l5 20h84l-3 -10q-29 -143 -115 -232q-88 -89 -238 -89z
M513 981q-81 0 -136 -31q-123 -69 -172 -321l-12 -68q308 18 383 67q74 50 92 146l4 23q16 88 -31 136t-128 48z" />
    <glyph glyph-name="f" unicode="f" horiz-adv-x="651" 
d="M623 1454q125 0 204 -84l-55 -57q-53 69 -164 69q-110 0 -180 -82t-90 -198l-14 -70h329l-14 -71h-328l-188 -961h-86l207 1071q76 383 379 383z" />
    <glyph glyph-name="g" unicode="g" horiz-adv-x="931" 
d="M238 -358q114 0 180 78t88 196l37 188q-111 -124 -253 -124t-200 92q-57 92 -31 237l64 324q39 201 126 311t243 109q156 0 227 -103l29 82h63l-213 -1095q-72 -367 -379 -367q-143 0 -207 78t-32 186h81q-17 -85 24 -138q39 -54 153 -54zM504 981q-133 0 -200 -98
t-97 -260l-62 -318q-20 -109 20 -181t148 -71q142 0 244 127l135 703q-55 98 -188 98z" />
    <glyph glyph-name="h" unicode="h" horiz-adv-x="987" 
d="M588 1053q268 0 194 -373l-131 -680h-78l15 113l108 571q59 297 -147 297q-141 0 -256 -127l-166 -854h-88l283 1454h77l-12 -113l-80 -409q121 121 281 121z" />
    <glyph glyph-name="i" unicode="i" horiz-adv-x="446" 
d="M334 1321q53 0 53 -51q0 -36 -20 -56q-21 -20 -49 -20q-58 0 -58 53q0 33 22 53t52 21zM37 0l201 1032h77l-12 -112l-180 -920h-86z" />
    <glyph glyph-name="j" unicode="j" horiz-adv-x="460" 
d="M352 1321q53 0 54 -51q0 -36 -22 -56t-50 -20q-56 0 -58 53q0 33 22 53t54 21zM254 1032h78l-10 -112l-193 -983q-39 -197 -117 -282t-241 -85l14 78q134 0 187 87q41 65 67 185z" />
    <glyph glyph-name="k" unicode="k" horiz-adv-x="911" 
d="M897 1032l-405 -377l221 -655h-92l-201 594l-215 -199l-78 -395h-88l283 1454h77l-12 -111l-164 -843l568 532h106z" />
    <glyph glyph-name="l" unicode="l" horiz-adv-x="440" 
d="M389 1454l-12 -113l-260 -1341h-78l14 113l260 1341h76z" />
    <glyph glyph-name="m" unicode="m" horiz-adv-x="1488" 
d="M555 981q-152 0 -262 -129l-166 -852h-88l201 1032h67l-14 -114q123 135 290 135t208 -144q121 143 307 144q264 0 200 -332l-139 -721h-80l13 113l120 612q45 256 -147 256q-129 0 -258 -125l-166 -856h-86l145 754q49 227 -145 227z" />
    <glyph glyph-name="n" unicode="n" horiz-adv-x="987" 
d="M588 1053q270 0 194 -371l-131 -682h-78l15 113l108 571q59 297 -147 297q-141 0 -256 -127l-166 -854h-88l201 1032h69l-12 -108q121 129 291 129z" />
    <glyph glyph-name="o" unicode="o" horiz-adv-x="905" 
d="M482 981q-118 0 -182 -99t-95 -259l-62 -318q-20 -109 20 -181t148 -71q218 0 275 297l65 340q25 127 -13 209t-156 82zM496 1053q156 1 214 -103t27 -264l-67 -342q-70 -365 -369 -364q-143 0 -208 90t-36 239l64 324q39 203 129 311t246 109z" />
    <glyph glyph-name="p" unicode="p" horiz-adv-x="952" 
d="M346 51q225 0 287 301l65 336q57 293 -159 293q-140 0 -246 -131l-137 -711q18 -35 68 -61t122 -27zM565 1053q289 0 217 -375l-63 -330q-71 -368 -353 -368q-142 0 -227 83l-73 -380l-31 -113h-78l285 1462h67l-14 -110q123 131 270 131z" />
    <glyph glyph-name="q" unicode="q" horiz-adv-x="929" 
d="M488 1053q154 0 229 -103l26 82h66l-287 -1462h-78l17 113l78 411q-111 -114 -250 -114t-200 90q-60 90 -32 239l64 324q39 199 126 309t241 111zM496 981q-221 0 -291 -358l-62 -318q-23 -109 19 -181t151 -71q138 0 244 129l135 701q-59 98 -196 98z" />
    <glyph glyph-name="r" unicode="r" horiz-adv-x="665" 
d="M567 1053q70 0 119 -29l-43 -78q-39 25 -104 25q-143 0 -248 -123l-164 -848h-88l201 1032h69l-12 -110q115 131 270 131z" />
    <glyph glyph-name="s" unicode="s" horiz-adv-x="817" 
d="M131 778q0 98 87 187q87 88 243 88q291 0 233 -297l-4 -21h-86l4 21q45 225 -157 225q-113 0 -171 -61t-58 -133t35 -111q37 -39 147 -97q110 -59 160 -117t50 -147q0 -133 -95 -234t-261 -101q-293 0 -229 299l4 20h84l-4 -20q-47 -227 155 -228q113 0 185 72
q71 72 71 159t-40 135t-146 104q-106 55 -157 107q-50 52 -50 150z" />
    <glyph glyph-name="t" unicode="t" horiz-adv-x="665" 
d="M465 76l10 -70q-70 -27 -151 -26q-152 0 -204 87t-18 273l177 897h77l-12 -109l-18 -96h311l-14 -71h-312l-123 -635q-24 -127 8 -199t152 -72q51 1 117 21z" />
    <glyph glyph-name="u" unicode="u" horiz-adv-x="950" 
d="M319 51q141 0 252 127l166 854h88l-170 -870q-23 -109 74 -109l-16 -73q-84 0 -115 32t-29 99q-121 -131 -284 -131q-269 0 -197 362l133 690h86l-133 -692q-12 -78 -13 -141t38 -105t120 -43z" />
    <glyph glyph-name="v" unicode="v" horiz-adv-x="802" 
d="M786 1032l-487 -1032h-102l-80 1032h88l57 -942h6l428 942h90z" />
    <glyph glyph-name="w" unicode="w" horiz-adv-x="1331" 
d="M242 104l432 928h86l65 -928h6l394 928h86l-449 -1032h-100l-64 918h-8l-428 -918h-98l-45 1032h90l27 -928h6z" />
    <glyph glyph-name="x" unicode="x" horiz-adv-x="770" 
d="M129 1032h90l137 -436h9l303 436h88l-367 -514l172 -518h-90l-143 444h-6l-299 -444h-91l363 530z" />
    <glyph glyph-name="y" unicode="y" horiz-adv-x="788" 
d="M205 -25l-64 1057h88l41 -917h6l414 917h88l-538 -1157q-74 -155 -172 -229t-242 -74l14 76q205 0 324 235z" />
    <glyph glyph-name="z" unicode="z" horiz-adv-x="702" 
d="M578 956h-437l15 76h520l-19 -92l-622 -864h434l-14 -76h-516l14 86z" />
    <glyph glyph-name="braceleft" unicode="{" horiz-adv-x="796" 
d="M150 664h-50l15 77h49q90 0 124 27t48 94l74 383q68 350 405 350h68l-17 -79h-63q-256 0 -307 -277l-78 -399q-27 -133 -148 -133h-16l-2 -9h16q59 0 83 -41t14 -96l-80 -416q-27 -139 17 -205t179 -65h66l-15 -80h-65q-342 0 -272 344l77 402q12 67 -12 95t-110 28z" />
    <glyph glyph-name="bar" unicode="|" horiz-adv-x="546" 
d="M133 -205h-86l348 1800h88z" />
    <glyph glyph-name="braceright" unicode="}" horiz-adv-x="792" 
d="M637 735h51l-14 -78h-49q-88 -1 -123 -27t-47 -95l-78 -394q-68 -346 -406 -346h-67l16 80h66q254 0 305 275l80 407q25 135 145 135h19l2 8h-19q-59 0 -82 42t-10 98l78 403q26 137 -20 205t-179 68h-67l16 79h65q339 0 271 -346l-74 -389q-12 -68 10 -96t111 -29z" />
    <glyph glyph-name="asciitilde" unicode="~" horiz-adv-x="786" 
d="M477 526q-47 0 -81 30t-64 60t-64 31q-74 0 -96 -121h-74q41 201 174 201q66 0 120 -69q12 -13 16 -17q4 -5 22 -21t49 -16q71 0 94 123h74q-39 -201 -170 -201z" />
    <glyph glyph-name="uni00A0" unicode="&#xa0;" horiz-adv-x="401" 
 />
    <glyph glyph-name="exclamdown" unicode="&#xa1;" horiz-adv-x="675" 
d="M449 988q0 -28 -23 -50t-53 -20q-56 0 -58 55q0 33 23 53q24 20 52 20t44 -14q16 -16 15 -44zM176 -326h-88l209 1069h76l-13 -120z" />
    <glyph glyph-name="cent" unicode="&#xa2;" horiz-adv-x="894" 
d="M508 981q-127 0 -192 -100t-95 -258l-61 -318q-23 -109 18 -181t149 -71q108 0 177 77t90 196h86q-28 -153 -115 -243q-88 -91 -211 -99l-24 -125h-86l24 127q-123 14 -171 102t-23 221l63 324q74 395 338 416l23 125h88l-25 -127q121 -9 171 -101t26 -219l-4 -22h-86
l4 24q6 55 3 111t-46 98q-43 43 -121 43z" />
    <glyph glyph-name="sterling" unicode="&#xa3;" horiz-adv-x="1030" 
d="M699 1382q161 0 229 -90t39 -233l-6 -31h-87l7 33q20 104 -22 175t-169 71t-208 -88t-105 -222l-78 -415h434l-14 -74h-436l-84 -432h581l-12 -76h-791l15 76h119l86 432h-121l14 74h119l82 413q35 179 141 283t267 104z" />
    <glyph glyph-name="currency" unicode="&#xa4;" horiz-adv-x="909" 
d="M484 887q-222 0 -265 -242l-8 -47q-10 -66 -8 -119t46 -87t132 -34q221 0 268 240l8 47q49 242 -173 242zM366 287q-74 0 -130 22l-84 -119h-80l108 154q-88 74 -55 254l8 41q23 104 57 165q35 60 101 99l-58 152h80l45 -119q64 22 142 22t127 -22l90 119h82l-115 -152
q92 -74 59 -260l-6 -31q-39 -205 -164 -272l58 -150h-80l-45 117q-66 -20 -140 -20z" />
    <glyph glyph-name="yen" unicode="&#xa5;" horiz-adv-x="1024" 
d="M133 612l12 64h285l-190 686h92l168 -660h6l422 660h92l-453 -686h283l-12 -64h-312l-26 -145h309l-12 -64h-310l-79 -403h-86l77 403h-307l12 64h308l28 145h-307z" />
    <glyph glyph-name="brokenbar" unicode="&#xa6;" horiz-adv-x="546" 
d="M195 565h88l-150 -770h-86zM483 1595l-149 -770h-88l149 770h88z" />
    <glyph glyph-name="section" unicode="&#xa7;" horiz-adv-x="925" 
d="M574 1391q162 0 228 -80q67 -80 38 -221l-4 -21h-86l4 23q20 96 -19 162t-163 65q-124 0 -190 -59q-66 -58 -65 -132t49 -112t174 -102q126 -62 172 -115q48 -53 48 -130t-50 -135t-137 -112q97 -72 97 -176t-93 -186q-93 -80 -253 -80t-226 78t-37 223l5 20h86l-5 -20
q-28 -141 50 -191q59 -39 133 -39q122 1 188 59t66 128t-45 110q-45 38 -171 106t-174 119t-49 121q1 158 187 250q-102 68 -102 176t90 189q92 82 254 82zM227 716q0 -58 45 -100t162 -106l84 -47q68 35 114 87t46 110t-46 102t-159 98l-86 43q-68 -25 -114 -77t-46 -110z
" />
    <glyph glyph-name="dieresis" unicode="&#xa8;" horiz-adv-x="1067" 
d="M803 1319q53 0 53 -49q0 -33 -22 -52t-52 -20q-51 0 -51 51q1 31 21 51t51 19zM508 1319q51 0 51 -49q0 -33 -19 -52t-51 -20q-53 0 -53 51q0 31 20 51t52 19z" />
    <glyph glyph-name="copyright" unicode="&#xa9;" horiz-adv-x="1480" 
d="M815 1102q-131 0 -193 -77t-90 -218l-55 -291q-21 -104 13 -179t151 -75q217 0 272 256l2 12h76q-32 -161 -122 -248q-89 -87 -236 -87q-297 0 -230 354l50 246q37 193 121 283t232 91q150 0 212 -85t37 -214l-6 -39h-78l6 33q18 94 -23 166t-139 72zM1196 494l70 364
q40 215 -56 351q-96 137 -355 137t-411 -136t-194 -360l-70 -350q-43 -224 67 -354t353 -130q502 1 596 478zM597 -51q-294 1 -418 153t-77 396l70 360q49 252 221 404t465 152t414 -157q121 -156 74 -389l-72 -360q-55 -283 -219 -421t-458 -138z" />
    <glyph glyph-name="ordfeminine" unicode="&#xaa;" horiz-adv-x="614" 
d="M400 1382q85 0 130 -57l27 57h47l-104 -528q-10 -55 43 -61l-11 -56q-90 0 -94 76q-66 -76 -160 -76q-179 0 -145 193l49 254q18 94 76 146t142 52zM409 1331q-61 1 -103 -39t-54 -106l-47 -244q-31 -152 88 -151q82 0 139 65l84 424q-47 51 -107 51z" />
    <glyph glyph-name="guillemotleft" unicode="&#xab;" horiz-adv-x="983" 
d="M451 639l413 305l47 -59l-389 -289l277 -283l-66 -59l-297 307zM72 639l415 305l45 -59l-391 -289l281 -283l-68 -59l-297 307z" />
    <glyph glyph-name="logicalnot" unicode="&#xac;" horiz-adv-x="786" 
d="M109 641l16 78h487l-51 -262h-76l37 184h-413z" />
    <glyph glyph-name="uni00AD" unicode="&#xad;" horiz-adv-x="628" 
 />
    <glyph glyph-name="registered" unicode="&#xae;" horiz-adv-x="1101" 
d="M621 1159h-78l-37 -192h72q104 0 120 80l7 28q9 45 -11 65t-73 19zM631 1212q167 0 139 -133l-4 -28q-10 -55 -39 -84t-82 -43l70 -291h-70l-63 282h-86l-56 -282h-67l114 579h144zM918 840l32 159q66 352 -284 353q-178 0 -284 -91t-136 -260l-31 -161
q-68 -358 279 -359q354 1 424 359zM487 418q-221 0 -303 112t-45 308l33 161q82 416 502 416q219 -1 302 -113t48 -305l-33 -159q-82 -420 -504 -420z" />
    <glyph glyph-name="macron" unicode="&#xaf;" horiz-adv-x="1069" 
d="M403 1223l15 73h442l-14 -73h-443z" />
    <glyph glyph-name="degree" unicode="&#xb0;" horiz-adv-x="567" 
d="M366 1104q-82 0 -124 42t-43 119q0 76 65 139q66 62 147 62t123 -43t42 -119t-64 -138t-146 -62zM268 1274q0 -105 106 -105q54 0 93 40q39 41 39 91q0 104 -104 103q-52 0 -94 -40q-40 -40 -40 -89z" />
    <glyph glyph-name="plusminus" unicode="&#xb1;" horiz-adv-x="786" 
d="M68 350l14 78h487l-14 -78h-487zM125 641l14 78h205l27 143h78l-27 -143h205l-15 -78h-204l-29 -143h-78l29 143h-205z" />
    <glyph glyph-name="twosuperior" unicode="&#xb2;" 
d="M488 1382q116 0 162 -55t30 -141q-12 -88 -68 -158q-57 -70 -178 -180l-248 -230h385l-12 -65h-471l16 78l250 233q129 117 182 177q52 60 66 137q27 139 -123 139q-84 0 -131 -37t-55 -90l-4 -14h-78q16 95 88 150q73 56 189 56z" />
    <glyph glyph-name="threesuperior" unicode="&#xb3;" 
d="M466 1317q-78 0 -124 -39q-47 -39 -57 -109h-78l4 13q16 92 86 146q69 54 181 54t162 -52t32 -140l-6 -31q-27 -137 -166 -170v-4q127 -31 98 -174l-10 -55q-20 -102 -92 -158t-182 -57q-110 0 -159 52q-48 52 -30 144l4 21h76l-4 -23q-13 -55 15 -92t106 -37t127 43
t61 111l10 53q12 63 -18 100q-31 37 -105 37h-73l10 66h72q76 0 123 36t57 93l8 45q10 55 -20 91t-108 36z" />
    <glyph glyph-name="acute" unicode="&#xb4;" horiz-adv-x="1067" 
d="M684 1391h102l-225 -273h-72z" />
    <glyph glyph-name="mu" unicode="&#xb5;" horiz-adv-x="985" 
d="M240 1032h88l-146 -751q-43 -229 166 -230q141 0 252 127l166 854h86l-170 -872q-23 -104 74 -105l-15 -75q-79 0 -109 32t-26 94q-117 -126 -267 -126t-196 106l-77 -403l-31 -113h-78z" />
    <glyph glyph-name="paragraph" unicode="&#xb6;" horiz-adv-x="989" 
d="M438 731q-164 0 -219 73t-24 228l4 21q31 157 115 233t245 76h131l-266 -1362h-47l143 731h-82zM657 0h-86l265 1362h86z" />
    <glyph glyph-name="periodcentered" unicode="&#xb7;" horiz-adv-x="1060" 
d="M590 762q51 0 51 -51q0 -33 -20 -53q-21 -20 -49 -19q-58 0 -58 53q0 30 22 50t54 20z" />
    <glyph glyph-name="cedilla" unicode="&#xb8;" horiz-adv-x="1067" 
d="M418 -104q158 0 157 -117q0 -84 -58 -132q-59 -48 -151 -48q-191 0 -161 141l2 10h63q-11 -53 17 -73q27 -21 86 -21t95 30t36 83q0 76 -107 75h-73l32 156h58l-21 -104h25z" />
    <glyph glyph-name="onesuperior" unicode="&#xb9;" 
d="M446 553h-77l143 739l-270 -129l-31 64l299 143h96z" />
    <glyph glyph-name="ordmasculine" unicode="&#xba;" horiz-adv-x="573" 
d="M398 1327q-68 0 -106 -49t-48 -117l-43 -221q-15 -57 7 -102t85 -45q125 -1 156 153l43 223q14 63 -6 111t-88 47zM407 1382q92 0 132 -60q38 -61 20 -161l-43 -215q-18 -94 -76 -151t-152 -57q-95 0 -134 56q-39 58 -21 152l45 234q18 92 78 147t151 55z" />
    <glyph glyph-name="guillemotright" unicode="&#xbb;" horiz-adv-x="983" 
d="M489 637l-14 -80l-414 -305l-45 61l390 287l-277 283l64 59zM868 637l-16 -80l-412 -305l-45 61l389 287l-276 283l65 59z" />
    <glyph glyph-name="onequarter" unicode="&#xbc;" horiz-adv-x="1720" 
d="M1350 0l36 178h-399l17 88l446 551h86l-463 -571h324l33 166h73l-82 -412h-71zM1399 1362l-973 -1362h-82l975 1362h80zM446 553h-77l143 739l-270 -129l-31 64l299 143h96z" />
    <glyph glyph-name="onehalf" unicode="&#xbd;" horiz-adv-x="1718" 
d="M1380 829q116 0 163 -55q46 -55 30 -141q-12 -88 -68 -158q-57 -70 -178 -180l-248 -229h385l-12 -66h-471l16 78l250 233q129 117 182 178t66 136q27 139 -123 139q-84 0 -131 -37t-55 -90l-4 -14h-78q16 95 88 150q72 56 188 56zM1358 1362l-973 -1362h-82l975 1362h80
zM446 553h-77l143 739l-270 -129l-31 64l299 143h96z" />
    <glyph glyph-name="threequarters" unicode="&#xbe;" horiz-adv-x="1720" 
d="M1350 0l36 178h-399l17 88l446 551h86l-463 -571h324l33 166h73l-82 -412h-71zM1401 1362l-973 -1362h-82l975 1362h80zM466 1317q-78 0 -124 -39q-47 -39 -57 -109h-78l4 13q16 92 86 146q69 54 181 54t162 -52t32 -140l-6 -31q-27 -137 -166 -170v-4q127 -31 98 -174
l-10 -55q-20 -102 -92 -158t-182 -57q-110 0 -159 52q-48 52 -30 144l4 21h76l-4 -23q-13 -55 15 -92t106 -37t127 43t61 111l10 53q12 63 -18 100q-31 37 -105 37h-73l10 66h72q76 0 123 36t57 93l8 45q10 55 -20 91t-108 36z" />
    <glyph glyph-name="questiondown" unicode="&#xbf;" horiz-adv-x="946" 
d="M537 980q-1 28 23 50t52 21q28 1 44 -15t16 -44t-24 -50t-54 -20q-57 0 -57 58zM278 -342q-152 0 -221 77q-68 77 -47 189l10 51q20 103 72 163t182 142q128 82 166 152t64 209l20 107h86l-22 -121q-31 -162 -78 -239t-177 -156t-170 -133t-57 -136l-6 -29
q-16 -88 32 -143t160 -55t192 70t102 182l8 43h88l-8 -43q-28 -156 -136 -243t-260 -87z" />
    <glyph glyph-name="Agrave" unicode="&#xc0;" horiz-adv-x="976" 
d="M551 1720h100l92 -272h-67zM598 1262l-356 -789h405l-45 789h-4zM27 0h-90l630 1362h105l92 -1362h-86l-27 399h-442z" />
    <glyph glyph-name="Aacute" unicode="&#xc1;" horiz-adv-x="976" 
d="M702 1720h103l-225 -272h-72zM598 1262l-356 -789h405l-45 789h-4zM27 0h-90l630 1362h105l92 -1362h-86l-27 399h-442z" />
    <glyph glyph-name="Acircumflex" unicode="&#xc2;" horiz-adv-x="976" 
d="M639 1720h82l110 -272h-77l-84 215l-170 -215h-80zM598 1262l-356 -789h405l-45 789h-4zM27 0h-90l630 1362h105l92 -1362h-86l-27 399h-442z" />
    <glyph glyph-name="Atilde" unicode="&#xc3;" horiz-adv-x="976" 
d="M362 1495v10q0 84 48 125t110 41q64 0 142 -51t116 -51q88 0 88 98v8h74v-6q0 -86 -47 -128t-107 -42t-141 52q-80 53 -120 53q-41 0 -67 -25t-26 -74v-10h-70zM598 1262l-356 -789h405l-45 789h-4zM27 0h-90l630 1362h105l92 -1362h-86l-27 399h-442z" />
    <glyph glyph-name="Adieresis" unicode="&#xc4;" horiz-adv-x="976" 
d="M821 1649q53 0 53 -50q0 -33 -22 -52t-51 -19q-51 0 -51 51q0 31 20 51t51 19zM526 1649q51 0 52 -50q0 -33 -20 -52t-50 -19q-53 0 -53 51q0 31 20 51t51 19zM598 1262l-356 -789h405l-45 789h-4zM27 0h-90l630 1362h105l92 -1362h-86l-27 399h-442z" />
    <glyph glyph-name="Aring" unicode="&#xc5;" horiz-adv-x="976" 
d="M485 1580q1 64 53 114q52 49 127 49t111 -36q36 -35 37 -99q0 -64 -53 -114t-127 -50t-111 36t-37 100zM547 1577q0 -78 86 -78q53 0 85 33t32 78q0 78 -82 78q-55 0 -88 -33t-33 -78zM598 1262l-356 -789h405l-45 789h-4zM27 0h-90l630 1362h105l92 -1362h-86l-27 399
h-442z" />
    <glyph glyph-name="AE" unicode="&#xc6;" horiz-adv-x="1370" 
d="M305 473h352l154 780h-6zM565 0l78 399h-387l-256 -399h-92l885 1362h608l-15 -76h-483l-98 -514h416l-15 -76h-418l-120 -620h483l-14 -76h-572z" />
    <glyph glyph-name="Ccedilla" unicode="&#xc7;" horiz-adv-x="923" 
d="M604 1382q158 0 229 -100t39 -248l-2 -14h-86q24 121 -18 205q-43 82 -172 82t-206 -89t-103 -225l-123 -633q-27 -131 15 -218t173 -87t204 76t93 188l4 21h86l-4 -21q-70 -338 -389 -339l-16 -84h24q158 0 158 -117q0 -84 -58 -132t-150 -48t-135 35q-42 35 -26 116h64
q-11 -53 16 -74q27 -20 86 -20t95 30t36 83q0 76 -106 75h-74l29 140q-137 16 -189 121q-51 105 -18 282l115 598q80 397 409 397z" />
    <glyph glyph-name="Egrave" unicode="&#xc8;" horiz-adv-x="858" 
d="M512 1720h100l93 -272h-68zM889 1362l-15 -76h-497l-101 -514h431l-17 -76h-428l-121 -620h498l-14 -76h-586l264 1362h586z" />
    <glyph glyph-name="Eacute" unicode="&#xc9;" horiz-adv-x="858" 
d="M664 1720h102l-225 -272h-72zM889 1362l-15 -76h-497l-101 -514h431l-17 -76h-428l-121 -620h498l-14 -76h-586l264 1362h586z" />
    <glyph glyph-name="Ecircumflex" unicode="&#xca;" horiz-adv-x="858" 
d="M608 1720h82l111 -272h-78l-84 215l-170 -215h-80zM889 1362l-15 -76h-497l-101 -514h431l-17 -76h-428l-121 -620h498l-14 -76h-586l264 1362h586z" />
    <glyph glyph-name="Edieresis" unicode="&#xcb;" horiz-adv-x="858" 
d="M784 1649q53 0 54 -50q0 -33 -22 -52t-52 -19q-51 0 -51 51q0 31 20 51t51 19zM489 1649q51 0 52 -50q1 -33 -19 -52t-51 -19q-53 0 -53 51q0 31 20 51t51 19zM889 1362l-15 -76h-497l-101 -514h431l-17 -76h-428l-121 -620h498l-14 -76h-586l264 1362h586z" />
    <glyph glyph-name="Igrave" unicode="&#xcc;" horiz-adv-x="450" 
d="M289 1720h100l92 -272h-67zM127 0h-88l264 1362h88z" />
    <glyph glyph-name="Iacute" unicode="&#xcd;" horiz-adv-x="450" 
d="M440 1720h103l-226 -272h-71zM127 0h-88l264 1362h88z" />
    <glyph glyph-name="Icircumflex" unicode="&#xce;" horiz-adv-x="450" 
d="M377 1720h82l110 -272h-77l-84 215l-170 -215h-80zM127 0h-88l264 1362h88z" />
    <glyph glyph-name="Idieresis" unicode="&#xcf;" horiz-adv-x="450" 
d="M559 1649q53 0 53 -50q0 -33 -22 -52t-51 -19q-51 0 -52 51q1 31 21 51t51 19zM264 1649q51 0 51 -50q0 -33 -19 -52t-50 -19q-53 0 -53 51q0 31 20 51t51 19zM127 0h-88l264 1362h88z" />
    <glyph glyph-name="Eth" unicode="&#xd0;" horiz-adv-x="1026" 
d="M631 1286h-250l-111 -567h236l-14 -76h-236l-111 -567h246q131 0 207 80t102 204l125 641q53 285 -194 285zM641 1362q166 0 235 -95t33 -278l-121 -622q-70 -367 -407 -367h-336l125 643h-121l14 76h121l125 643h332z" />
    <glyph glyph-name="Ntilde" unicode="&#xd1;" horiz-adv-x="1083" 
d="M416 1495v10q0 84 47 125t110 41t141 -51t117 -51q88 0 89 98v8h73v-6q0 -86 -47 -128t-107 -42q-61 0 -141 52q-80 53 -120 53t-66 -25q-27 -25 -27 -74v-10h-69zM1024 1362l-264 -1362h-121l-272 1251h-7l-241 -1251h-80l264 1362h119l272 -1258h11l241 1258h78z" />
    <glyph glyph-name="Ograve" unicode="&#xd2;" horiz-adv-x="980" 
d="M553 1720h100l92 -272h-67zM595 1307q-130 0 -207 -87t-101 -223l-125 -637q-27 -133 14 -219t172 -86t207 87q75 87 100 218l123 637q27 133 -13 221t-170 89zM336 -20q-166 0 -230 104q-63 104 -26 295l115 606q37 189 139 293t267 104t232 -104q66 -105 29 -295
l-117 -606q-78 -397 -409 -397z" />
    <glyph glyph-name="Oacute" unicode="&#xd3;" horiz-adv-x="980" 
d="M705 1720h102l-225 -272h-72zM595 1307q-130 0 -207 -87t-101 -223l-125 -637q-27 -133 14 -219t172 -86t207 87q75 87 100 218l123 637q27 133 -13 221t-170 89zM336 -20q-166 0 -230 104q-63 104 -26 295l115 606q37 189 139 293t267 104t232 -104q66 -105 29 -295
l-117 -606q-78 -397 -409 -397z" />
    <glyph glyph-name="Ocircumflex" unicode="&#xd4;" horiz-adv-x="980" 
d="M641 1720h82l111 -272h-78l-84 215l-170 -215h-80zM595 1307q-130 0 -207 -87t-101 -223l-125 -637q-27 -133 14 -219t172 -86t207 87q75 87 100 218l123 637q27 133 -13 221t-170 89zM336 -20q-166 0 -230 104q-63 104 -26 295l115 606q37 189 139 293t267 104t232 -104
q66 -105 29 -295l-117 -606q-78 -397 -409 -397z" />
    <glyph glyph-name="Otilde" unicode="&#xd5;" horiz-adv-x="980" 
d="M365 1495v10q0 84 47 125t110 41q64 0 142 -51t116 -51q88 0 88 98v8h74v-6q0 -86 -47 -128t-107 -42t-140 52q-80 53 -121 53t-67 -25t-26 -74v-10h-69zM595 1307q-130 0 -207 -87t-101 -223l-125 -637q-27 -133 14 -219t172 -86t207 87q75 87 100 218l123 637
q27 133 -13 221t-170 89zM336 -20q-166 0 -230 104q-63 104 -26 295l115 606q37 189 139 293t267 104t232 -104q66 -105 29 -295l-117 -606q-78 -397 -409 -397z" />
    <glyph glyph-name="Odieresis" unicode="&#xd6;" horiz-adv-x="980" 
d="M823 1649q53 0 54 -50q0 -33 -22 -52t-52 -19q-51 0 -51 51q0 31 20 51t51 19zM528 1649q51 0 52 -50q0 -33 -20 -52t-50 -19q-53 0 -53 51q0 31 20 51t51 19zM595 1307q-130 0 -207 -87t-101 -223l-125 -637q-27 -133 14 -219t172 -86t207 87q75 87 100 218l123 637
q27 133 -13 221t-170 89zM336 -20q-166 0 -230 104q-63 104 -26 295l115 606q37 189 139 293t267 104t232 -104q66 -105 29 -295l-117 -606q-78 -397 -409 -397z" />
    <glyph glyph-name="multiply" unicode="&#xd7;" horiz-adv-x="786" 
d="M178 420l-45 53l172 145l-115 144l64 55l117 -143l172 143l45 -55l-172 -144l116 -145l-65 -53l-117 143z" />
    <glyph glyph-name="Oslash" unicode="&#xd8;" horiz-adv-x="960" 
d="M287 997l-125 -637q-14 -82 -10 -131l616 983q-45 94 -174 94t-206 -86q-76 -88 -101 -223zM655 360l123 637q16 82 8 148l-618 -985q41 -104 176 -104t211 86q75 87 100 218zM336 -20q-156 0 -223 92l-78 -125l-43 26l94 150q-39 94 -6 256l115 606q37 189 139 293
t259 104t226 -88l82 131l45 -26l-98 -156q45 -102 14 -260l-117 -606q-78 -397 -409 -397z" />
    <glyph glyph-name="Ugrave" unicode="&#xd9;" horiz-adv-x="1030" 
d="M578 1720h100l92 -272h-68zM373 -20q-170 0 -236 104t-28 293l192 985h88l-194 -1002q-27 -133 14 -219t173 -86t206 85t100 220l197 1002h86l-193 -985q-39 -197 -137 -297t-268 -100z" />
    <glyph glyph-name="Uacute" unicode="&#xda;" horiz-adv-x="1030" 
d="M729 1720h102l-225 -272h-71zM373 -20q-170 0 -236 104t-28 293l192 985h88l-194 -1002q-27 -133 14 -219t173 -86t206 85t100 220l197 1002h86l-193 -985q-39 -197 -137 -297t-268 -100z" />
    <glyph glyph-name="Ucircumflex" unicode="&#xdb;" horiz-adv-x="1030" 
d="M666 1720h82l110 -272h-78l-84 215l-170 -215h-80zM373 -20q-170 0 -236 104t-28 293l192 985h88l-194 -1002q-27 -133 14 -219t173 -86t206 85t100 220l197 1002h86l-193 -985q-39 -197 -137 -297t-268 -100z" />
    <glyph glyph-name="Udieresis" unicode="&#xdc;" horiz-adv-x="1030" 
d="M848 1649q53 0 53 -50q1 -33 -21 -52t-53 -19q-51 0 -51 51q0 31 20 51t52 19zM553 1649q51 0 51 -50q0 -33 -19 -52t-50 -19q-53 0 -54 51q1 31 21 51t51 19zM373 -20q-170 0 -236 104t-28 293l192 985h88l-194 -1002q-27 -133 14 -219t173 -86t206 85t100 220l197 1002
h86l-193 -985q-39 -197 -137 -297t-268 -100z" />
    <glyph glyph-name="Yacute" unicode="&#xdd;" horiz-adv-x="917" 
d="M674 1720h102l-225 -272h-72zM967 1362l-523 -903l-88 -459h-88l88 459l-170 903h90l142 -797h4l452 797h93z" />
    <glyph glyph-name="Thorn" unicode="&#xde;" horiz-adv-x="960" 
d="M387 369q145 0 222 52t102 179l32 162q18 100 -23 165q-42 65 -151 64h-250l-120 -622h188zM356 293h-172l-57 -293h-88l264 1362h88l-57 -295h252q144 -1 206 -83t33 -236l-24 -136q-40 -206 -161 -267q-62 -32 -124 -42t-160 -10z" />
    <glyph glyph-name="germandbls" unicode="&#xdf;" horiz-adv-x="935" 
d="M621 1454q145 0 205 -85t30 -236l-6 -31q-25 -127 -84 -192t-160 -95q86 -33 120 -107t7 -208l-35 -176q-30 -162 -118 -251t-234 -89h-55l16 75h51q94 0 162 68t90 186l41 213q23 104 -20 175t-152 71h-57l12 76h62q106 0 176 68t90 176l8 43q20 104 -13 176
q-34 71 -154 71q-121 0 -187 -86t-86 -194l-246 -1254l-29 -114h-78l263 1347q72 373 381 373z" />
    <glyph glyph-name="agrave" unicode="&#xe0;" horiz-adv-x="929" 
d="M465 1391h100l92 -273h-67zM285 -20q-291 0 -215 385l59 305q76 383 369 383q139 0 221 -99l26 78h62l-166 -868q-12 -57 3 -84t71 -27l-17 -73q-84 0 -114 32t-29 97q-115 -129 -270 -129zM504 981q-231 0 -289 -315l-59 -304q-61 -311 159 -311q136 0 240 125l137 711
q-53 94 -188 94z" />
    <glyph glyph-name="aacute" unicode="&#xe1;" horiz-adv-x="929" 
d="M616 1391h103l-225 -273h-72zM285 -20q-291 0 -215 385l59 305q76 383 369 383q139 0 221 -99l26 78h62l-166 -868q-12 -57 3 -84t71 -27l-17 -73q-84 0 -114 32t-29 97q-115 -129 -270 -129zM504 981q-231 0 -289 -315l-59 -304q-61 -311 159 -311q136 0 240 125
l137 711q-53 94 -188 94z" />
    <glyph glyph-name="acircumflex" unicode="&#xe2;" horiz-adv-x="929" 
d="M553 1391h82l110 -273h-77l-84 215l-170 -215h-80zM285 -20q-291 0 -215 385l59 305q76 383 369 383q139 0 221 -99l26 78h62l-166 -868q-12 -57 3 -84t71 -27l-17 -73q-84 0 -114 32t-29 97q-115 -129 -270 -129zM504 981q-231 0 -289 -315l-59 -304q-61 -311 159 -311
q136 0 240 125l137 711q-53 94 -188 94z" />
    <glyph glyph-name="atilde" unicode="&#xe3;" horiz-adv-x="929" 
d="M276 1165v11q0 84 48 124t110 41q63 0 141 -51t117 -51q88 0 88 98v9h74v-7q0 -86 -47 -128t-107 -42q-60 1 -141 53q-80 52 -120 52q-41 0 -67 -25t-26 -73v-11h-70zM285 -20q-291 0 -215 385l59 305q76 383 369 383q139 0 221 -99l26 78h62l-166 -868q-12 -57 3 -84
t71 -27l-17 -73q-84 0 -114 32t-29 97q-115 -129 -270 -129zM504 981q-231 0 -289 -315l-59 -304q-61 -311 159 -311q136 0 240 125l137 711q-53 94 -188 94z" />
    <glyph glyph-name="adieresis" unicode="&#xe4;" horiz-adv-x="929" 
d="M735 1319q53 0 53 -49q0 -33 -22 -52t-51 -20q-51 0 -51 51q0 31 20 51t51 19zM440 1319q51 0 52 -49q0 -33 -20 -52t-50 -20q-53 0 -53 51q0 31 20 51t51 19zM285 -20q-291 0 -215 385l59 305q76 383 369 383q139 0 221 -99l26 78h62l-166 -868q-12 -57 3 -84t71 -27
l-17 -73q-84 0 -114 32t-29 97q-115 -129 -270 -129zM504 981q-231 0 -289 -315l-59 -304q-61 -311 159 -311q136 0 240 125l137 711q-53 94 -188 94z" />
    <glyph glyph-name="aring" unicode="&#xe5;" horiz-adv-x="929" 
d="M399 1250q1 64 53 114q52 49 127 49t111 -36q36 -35 37 -99q0 -64 -53 -114t-127 -50t-111 36t-37 100zM461 1247q0 -78 86 -78q53 0 85 33t32 78q0 78 -82 78q-55 0 -88 -33t-33 -78zM285 -20q-291 0 -215 385l59 305q76 383 369 383q139 0 221 -99l26 78h62l-166 -868
q-12 -57 3 -84t71 -27l-17 -73q-84 0 -114 32t-29 97q-115 -129 -270 -129zM504 981q-231 0 -289 -315l-59 -304q-61 -311 159 -311q136 0 240 125l137 711q-53 94 -188 94z" />
    <glyph glyph-name="ae" unicode="&#xe6;" horiz-adv-x="1404" 
d="M1030 981q-229 0 -297 -328l-18 -92q252 12 351 50t123 153t-25 166q-48 51 -134 51zM839 53q114 0 178 75t83 183h86q-30 -152 -118 -242q-87 -89 -239 -89q-188 0 -235 151q-129 -152 -322 -151q-274 0 -217 282l6 29q25 130 129 194q78 49 264 64q62 4 177 8l26 133
q27 127 -12 209t-145 82t-174 -62t-86 -167h-82l4 22q25 121 117 200t225 79q86 0 147 -49t84 -140q115 188 309 189q123 0 189 -71t45 -187l-4 -23q-31 -158 -152 -212t-420 -68l-36 -185q-20 -106 20 -180t153 -74zM303 51q160 0 272 144q-1 63 17 157l26 137
q-100 0 -200 -14t-129 -26t-63 -34q-60 -39 -79 -132l-4 -21q-41 -211 160 -211z" />
    <glyph glyph-name="ccedilla" unicode="&#xe7;" horiz-adv-x="880" 
d="M500 1053q158 -1 219 -95t35 -231l-4 -22h-84l4 24q18 96 -19 174t-151 78q-225 0 -295 -358l-62 -318q-23 -109 19 -181t158 -71q114 0 184 81t88 192h86l-4 -13q-29 -147 -122 -240t-245 -93h-6l-16 -84h24q156 0 156 -117q0 -84 -57 -132q-58 -48 -150 -48t-134 35
t-26 116h64q-11 -53 16 -74q27 -20 85 -20t95 30t37 83q0 76 -106 75h-74l27 142q-113 18 -162 105t-23 218l64 324q39 203 130 311t249 109z" />
    <glyph glyph-name="egrave" unicode="&#xe8;" horiz-adv-x="880" 
d="M440 1391h101l92 -273h-68zM306 -20q-150 0 -214 90q-63 90 -35 239l64 324q39 205 131 313t262 107q129 0 196 -71t44 -187l-4 -23q-29 -158 -151 -212t-421 -68l-35 -185q-20 -111 20 -183q41 -72 153 -71q112 0 177 73q64 73 80 165l5 20h84l-3 -10
q-29 -143 -115 -232q-88 -89 -238 -89zM513 981q-81 0 -136 -31q-123 -69 -172 -321l-12 -68q308 18 383 67q74 50 92 146l4 23q16 88 -31 136t-128 48z" />
    <glyph glyph-name="eacute" unicode="&#xe9;" horiz-adv-x="880" 
d="M592 1391h102l-225 -273h-72zM306 -20q-150 0 -214 90q-63 90 -35 239l64 324q39 205 131 313t262 107q129 0 196 -71t44 -187l-4 -23q-29 -158 -151 -212t-421 -68l-35 -185q-20 -111 20 -183q41 -72 153 -71q112 0 177 73q64 73 80 165l5 20h84l-3 -10
q-29 -143 -115 -232q-88 -89 -238 -89zM513 981q-81 0 -136 -31q-123 -69 -172 -321l-12 -68q308 18 383 67q74 50 92 146l4 23q16 88 -31 136t-128 48z" />
    <glyph glyph-name="ecircumflex" unicode="&#xea;" horiz-adv-x="880" 
d="M528 1391h82l111 -273h-78l-84 215l-170 -215h-80zM306 -20q-150 0 -214 90q-63 90 -35 239l64 324q39 205 131 313t262 107q129 0 196 -71t44 -187l-4 -23q-29 -158 -151 -212t-421 -68l-35 -185q-20 -111 20 -183q41 -72 153 -71q112 0 177 73q64 73 80 165l5 20h84
l-3 -10q-29 -143 -115 -232q-88 -89 -238 -89zM513 981q-81 0 -136 -31q-123 -69 -172 -321l-12 -68q308 18 383 67q74 50 92 146l4 23q16 88 -31 136t-128 48z" />
    <glyph glyph-name="edieresis" unicode="&#xeb;" horiz-adv-x="880" 
d="M711 1319q53 0 53 -49q0 -33 -22 -52t-52 -20q-51 0 -51 51q1 31 21 51t51 19zM416 1319q51 0 51 -49q1 -33 -19 -52t-51 -20q-53 0 -53 51q0 31 20 51t52 19zM306 -20q-150 0 -214 90q-63 90 -35 239l64 324q39 205 131 313t262 107q129 0 196 -71t44 -187l-4 -23
q-29 -158 -151 -212t-421 -68l-35 -185q-20 -111 20 -183q41 -72 153 -71q112 0 177 73q64 73 80 165l5 20h84l-3 -10q-29 -143 -115 -232q-88 -89 -238 -89zM513 981q-81 0 -136 -31q-123 -69 -172 -321l-12 -68q308 18 383 67q74 50 92 146l4 23q16 88 -31 136t-128 48z
" />
    <glyph glyph-name="igrave" unicode="&#xec;" horiz-adv-x="450" 
d="M225 1391h101l92 -273h-68zM39 0l201 1032h77l-10 -112l-180 -920h-88z" />
    <glyph glyph-name="iacute" unicode="&#xed;" horiz-adv-x="450" 
d="M377 1391h102l-225 -273h-72zM39 0l201 1032h77l-10 -112l-180 -920h-88z" />
    <glyph glyph-name="icircumflex" unicode="&#xee;" horiz-adv-x="450" 
d="M313 1391h82l111 -273h-78l-84 215l-170 -215h-80zM39 0l201 1032h77l-10 -112l-180 -920h-88z" />
    <glyph glyph-name="idieresis" unicode="&#xef;" horiz-adv-x="450" 
d="M496 1319q53 0 53 -49q0 -33 -22 -52t-52 -20q-51 0 -51 51q0 31 20 51t52 19zM201 1319q51 0 51 -49q0 -33 -20 -52t-50 -20q-53 0 -53 51q1 31 21 51t51 19zM39 0l201 1032h77l-10 -112l-180 -920h-88z" />
    <glyph glyph-name="eth" unicode="&#xf0;" horiz-adv-x="894" 
d="M494 981q-181 0 -256 -229q-18 -55 -33 -129l-62 -318q-20 -109 20 -181t148 -71q218 0 275 295l65 342q25 127 -12 209t-145 82zM381 1325h-16l10 57h18q174 0 273 -104l151 65l14 -38l-139 -62q56 -83 68 -233t-23 -324l-65 -342q-74 -365 -371 -364q-145 0 -210 90
t-34 239l64 324q80 420 371 420q86 0 128 -31t72 -86q0 199 -63 281l-176 -74l-17 39l162 67q-74 76 -217 76z" />
    <glyph glyph-name="ntilde" unicode="&#xf1;" horiz-adv-x="987" 
d="M305 1165v11q0 84 47 124q46 40 110 41q64 0 142 -51t117 -51q88 0 88 98v9h74v-7q0 -86 -47 -128q-48 -42 -108 -42q-60 1 -140 53t-120 52t-67 -25t-26 -73v-11h-70zM588 1053q270 0 194 -371l-131 -682h-78l15 113l108 571q59 297 -147 297q-141 0 -256 -127
l-166 -854h-88l201 1032h69l-12 -108q121 129 291 129z" />
    <glyph glyph-name="ograve" unicode="&#xf2;" horiz-adv-x="905" 
d="M453 1391h100l92 -273h-67zM482 981q-118 0 -182 -99t-95 -259l-62 -318q-20 -109 20 -181t148 -71q218 0 275 297l65 340q25 127 -13 209t-156 82zM496 1053q156 1 214 -103t27 -264l-67 -342q-70 -365 -369 -364q-143 0 -208 90t-36 239l64 324q39 203 129 311t246 109
z" />
    <glyph glyph-name="oacute" unicode="&#xf3;" horiz-adv-x="905" 
d="M604 1391h103l-226 -273h-71zM482 981q-118 0 -182 -99t-95 -259l-62 -318q-20 -109 20 -181t148 -71q218 0 275 297l65 340q25 127 -13 209t-156 82zM496 1053q156 1 214 -103t27 -264l-67 -342q-70 -365 -369 -364q-143 0 -208 90t-36 239l64 324q39 203 129 311
t246 109z" />
    <glyph glyph-name="ocircumflex" unicode="&#xf4;" horiz-adv-x="905" 
d="M541 1391h82l110 -273h-78l-84 215l-170 -215h-79zM482 981q-118 0 -182 -99t-95 -259l-62 -318q-20 -109 20 -181t148 -71q218 0 275 297l65 340q25 127 -13 209t-156 82zM496 1053q156 1 214 -103t27 -264l-67 -342q-70 -365 -369 -364q-143 0 -208 90t-36 239l64 324
q39 203 129 311t246 109z" />
    <glyph glyph-name="otilde" unicode="&#xf5;" horiz-adv-x="905" 
d="M264 1165v11q0 84 47 124t111 41q64 0 141 -51q78 -51 117 -51q88 0 88 98v9h74v-7q0 -86 -47 -128t-107 -42q-60 1 -141 53q-80 52 -120 52t-67 -25t-26 -73v-11h-70zM482 981q-118 0 -182 -99t-95 -259l-62 -318q-20 -109 20 -181t148 -71q218 0 275 297l65 340
q25 127 -13 209t-156 82zM496 1053q156 1 214 -103t27 -264l-67 -342q-70 -365 -369 -364q-143 0 -208 90t-36 239l64 324q39 203 129 311t246 109z" />
    <glyph glyph-name="odieresis" unicode="&#xf6;" horiz-adv-x="905" 
d="M723 1319q53 0 53 -49q0 -33 -22 -52t-52 -20q-51 0 -51 51q1 31 21 51t51 19zM428 1319q51 0 51 -49q0 -33 -19 -52t-50 -20q-53 0 -54 51q0 31 20 51t52 19zM482 981q-118 0 -182 -99t-95 -259l-62 -318q-20 -109 20 -181t148 -71q218 0 275 297l65 340q25 127 -13 209
t-156 82zM496 1053q156 1 214 -103t27 -264l-67 -342q-70 -365 -369 -364q-143 0 -208 90t-36 239l64 324q39 203 129 311t246 109z" />
    <glyph glyph-name="divide" unicode="&#xf7;" horiz-adv-x="786" 
d="M121 580l16 77h488l-17 -77h-487zM401 748q-59 0 -59 58q0 28 22 48t50 20q58 0 59 -55q1 -31 -21 -51t-51 -20zM272 421q0 28 22 48t52 20q55 0 55 -55q0 -31 -20 -51q-20 -21 -49 -21q-28 0 -44 16t-16 43z" />
    <glyph glyph-name="oslash" unicode="&#xf8;" horiz-adv-x="905" 
d="M586 350l65 340q18 92 4 162l-483 -741q45 -57 139 -58q218 0 275 297zM492 981q-128 0 -192 -99t-95 -259l-62 -318q-16 -80 -2 -135l488 748q-47 63 -137 63zM500 1053q115 0 176 -62l72 109l49 -29l-84 -129q55 -96 24 -256l-67 -342q-70 -365 -369 -364
q-113 0 -178 55l-70 -107l-49 31l80 123q-53 86 -27 227l64 324q39 203 129 311t250 109z" />
    <glyph glyph-name="ugrave" unicode="&#xf9;" horiz-adv-x="950" 
d="M475 1391h100l93 -273h-68zM319 51q141 0 252 127l166 854h88l-170 -870q-23 -109 74 -109l-16 -73q-84 0 -115 32t-29 99q-121 -131 -284 -131q-269 0 -197 362l133 690h86l-133 -692q-12 -78 -13 -141t38 -105t120 -43z" />
    <glyph glyph-name="uacute" unicode="&#xfa;" horiz-adv-x="950" 
d="M627 1391h102l-225 -273h-72zM319 51q141 0 252 127l166 854h88l-170 -870q-23 -109 74 -109l-16 -73q-84 0 -115 32t-29 99q-121 -131 -284 -131q-269 0 -197 362l133 690h86l-133 -692q-12 -78 -13 -141t38 -105t120 -43z" />
    <glyph glyph-name="ucircumflex" unicode="&#xfb;" horiz-adv-x="950" 
d="M563 1391h82l111 -273h-78l-84 215l-170 -215h-80zM319 51q141 0 252 127l166 854h88l-170 -870q-23 -109 74 -109l-16 -73q-84 0 -115 32t-29 99q-121 -131 -284 -131q-269 0 -197 362l133 690h86l-133 -692q-12 -78 -13 -141t38 -105t120 -43z" />
    <glyph glyph-name="udieresis" unicode="&#xfc;" horiz-adv-x="950" 
d="M745 1319q53 0 54 -49q0 -33 -22 -52t-52 -20q-51 0 -51 51q0 31 20 51t51 19zM451 1319q51 0 51 -49q0 -33 -20 -52t-50 -20q-53 0 -53 51q1 31 21 51t51 19zM319 51q141 0 252 127l166 854h88l-170 -870q-23 -109 74 -109l-16 -73q-84 0 -115 32t-29 99
q-121 -131 -284 -131q-269 0 -197 362l133 690h86l-133 -692q-12 -78 -13 -141t38 -105t120 -43z" />
    <glyph glyph-name="yacute" unicode="&#xfd;" horiz-adv-x="788" 
d="M545 1391h102l-225 -273h-72zM205 -25l-64 1057h88l41 -917h6l414 917h88l-538 -1157q-74 -155 -172 -229t-242 -74l14 76q205 0 324 235z" />
    <glyph glyph-name="thorn" unicode="&#xfe;" horiz-adv-x="952" 
d="M565 1053q289 0 217 -375l-63 -330q-71 -368 -353 -368q-142 0 -227 83l-69 -362l-29 -131h-84l367 1884h77l-12 -113l-82 -413q115 125 258 125zM346 51q225 0 287 301l65 336q57 293 -159 293q-137 0 -246 -129l-137 -713q18 -35 68 -61t122 -27z" />
    <glyph glyph-name="ydieresis" unicode="&#xff;" horiz-adv-x="788" 
d="M664 1319q53 0 53 -49q0 -33 -22 -52t-52 -20q-51 0 -51 51q0 31 20 51t52 19zM369 1319q51 0 51 -49q0 -33 -20 -52t-50 -20q-53 0 -53 51q1 31 21 51t51 19zM205 -25l-64 1057h88l41 -917h6l414 917h88l-538 -1157q-74 -155 -172 -229t-242 -74l14 76q205 0 324 235z
" />
    <glyph glyph-name="Amacron" unicode="&#x100;" horiz-adv-x="976" 
d="M420 1552l14 74h443l-15 -74h-442zM598 1262l-356 -789h405l-45 789h-4zM27 0h-90l630 1362h105l92 -1362h-86l-27 399h-442z" />
    <glyph glyph-name="amacron" unicode="&#x101;" horiz-adv-x="929" 
d="M334 1223l14 73h443l-15 -73h-442zM285 -20q-291 0 -215 385l59 305q76 383 369 383q139 0 221 -99l26 78h62l-166 -868q-12 -57 3 -84t71 -27l-17 -73q-84 0 -114 32t-29 97q-115 -129 -270 -129zM504 981q-231 0 -289 -315l-59 -304q-61 -311 159 -311q136 0 240 125
l137 711q-53 94 -188 94z" />
    <glyph glyph-name="Abreve" unicode="&#x102;" horiz-adv-x="976" 
d="M631 1495q-102 0 -151 48q-48 48 -31 124l2 14h73q-11 -64 20 -92q30 -27 99 -26q139 0 160 98l2 20h76l-4 -20q-29 -166 -246 -166zM598 1262l-356 -789h405l-45 789h-4zM27 0h-90l630 1362h105l92 -1362h-86l-27 399h-442z" />
    <glyph glyph-name="abreve" unicode="&#x103;" horiz-adv-x="929" 
d="M545 1165q-102 0 -150 48t-30 139h73l-2 -13q-10 -51 21 -79t100 -27q139 0 160 98l2 21h76l-4 -21q-29 -166 -246 -166zM285 -20q-291 0 -215 385l59 305q76 383 369 383q139 0 221 -99l26 78h62l-166 -868q-12 -57 3 -84t71 -27l-17 -73q-84 0 -114 32t-29 97
q-115 -129 -270 -129zM504 981q-231 0 -289 -315l-59 -304q-61 -311 159 -311q136 0 240 125l137 711q-53 94 -188 94z" />
    <glyph glyph-name="Aogonek" unicode="&#x104;" horiz-adv-x="987" 
d="M602 1262l-360 -789h417l-51 789h-6zM397 -279q0 186 291 297l-24 381h-455l-184 -399h-91l639 1362h103l102 -1362h-33q-135 -51 -205 -121q-70 -69 -71 -143q0 -74 81 -74t99 86l2 10h64q-26 -157 -178 -157q-63 0 -102 32q-38 33 -38 88z" />
    <glyph glyph-name="aogonek" unicode="&#x105;" horiz-adv-x="942" 
d="M510 981q-238 0 -295 -315l-59 -304q-61 -311 166 -311q141 0 245 125l138 711q-53 94 -195 94zM348 -279q0 176 258 283q-39 29 -39 105q-115 -129 -276 -129q-297 0 -221 385l59 305q76 383 375 383q141 0 227 -99l27 78h61l-168 -868q-10 -57 5 -84t71 -27l-14 -73
q-25 0 -54 4q-240 -102 -239 -250q0 -72 81 -72t99 86l2 10h64q-26 -157 -179 -157q-63 1 -101 33t-38 87z" />
    <glyph glyph-name="Cacute" unicode="&#x106;" horiz-adv-x="923" 
d="M676 1720h102l-225 -272h-72zM594 1307q-129 0 -206 -89t-103 -225l-123 -633q-27 -131 15 -218t173 -87t204 76t93 188l4 21h86l-4 -21q-70 -340 -393 -339q-168 0 -232 108t-28 299l115 598q37 189 139 293t265 104t234 -100t39 -248l-2 -14h-86q24 121 -18 205
q-43 82 -172 82z" />
    <glyph glyph-name="cacute" unicode="&#x107;" horiz-adv-x="878" 
d="M590 1391h102l-225 -273h-72zM492 981q-127 0 -192 -100t-95 -258l-62 -318q-23 -109 17 -181t152 -71q112 0 182 82t86 191h86q-23 -152 -119 -249q-97 -97 -243 -97t-211 91t-36 238l64 324q39 203 129 311t244 109t214 -95q62 -96 35 -231l-4 -22h-86l4 24q6 55 3 111
t-47 99q-44 42 -121 42z" />
    <glyph glyph-name="Ccircumflex" unicode="&#x108;" horiz-adv-x="923" 
d="M612 1720h82l111 -272h-78l-84 215l-170 -215h-80zM594 1307q-129 0 -206 -89t-103 -225l-123 -633q-27 -131 15 -218t173 -87t204 76t93 188l4 21h86l-4 -21q-70 -340 -393 -339q-168 0 -232 108t-28 299l115 598q37 189 139 293t265 104t234 -100t39 -248l-2 -14h-86
q24 121 -18 205q-43 82 -172 82z" />
    <glyph glyph-name="ccircumflex" unicode="&#x109;" horiz-adv-x="878" 
d="M526 1391h82l111 -273h-78l-84 215l-170 -215h-80zM492 981q-127 0 -192 -100t-95 -258l-62 -318q-23 -109 17 -181t152 -71q112 0 182 82t86 191h86q-23 -152 -119 -249q-97 -97 -243 -97t-211 91t-36 238l64 324q39 203 129 311t244 109t214 -95q62 -96 35 -231l-4 -22
h-86l4 24q6 55 3 111t-47 99q-44 42 -121 42z" />
    <glyph glyph-name="Cdotaccent" unicode="&#x10a;" horiz-adv-x="923" 
d="M629 1651q57 0 57 -52q0 -35 -22 -55t-56 -20q-55 0 -55 53q1 31 23 53t53 21zM594 1307q-129 0 -206 -89t-103 -225l-123 -633q-27 -131 15 -218t173 -87t204 76t93 188l4 21h86l-4 -21q-70 -340 -393 -339q-168 0 -232 108t-28 299l115 598q37 189 139 293t265 104
t234 -100t39 -248l-2 -14h-86q24 121 -18 205q-43 82 -172 82z" />
    <glyph glyph-name="cdotaccent" unicode="&#x10b;" horiz-adv-x="878" 
d="M543 1321q57 0 57 -51q0 -35 -22 -56q-23 -20 -56 -20q-55 0 -55 53q1 31 23 53t53 21zM492 981q-127 0 -192 -100t-95 -258l-62 -318q-23 -109 17 -181t152 -71q112 0 182 82t86 191h86q-23 -152 -119 -249q-97 -97 -243 -97t-211 91t-36 238l64 324q39 203 129 311
t244 109t214 -95q62 -96 35 -231l-4 -22h-86l4 24q6 55 3 111t-47 99q-44 42 -121 42z" />
    <glyph glyph-name="Ccaron" unicode="&#x10c;" horiz-adv-x="923" 
d="M555 1448l-109 272h74l84 -215l170 215h76l-213 -272h-82zM594 1307q-129 0 -206 -89t-103 -225l-123 -633q-27 -131 15 -218t173 -87t204 76t93 188l4 21h86l-4 -21q-70 -340 -393 -339q-168 0 -232 108t-28 299l115 598q37 189 139 293t265 104t234 -100t39 -248
l-2 -14h-86q24 121 -18 205q-43 82 -172 82z" />
    <glyph glyph-name="ccaron" unicode="&#x10d;" horiz-adv-x="878" 
d="M469 1118l-109 273h74l84 -215l170 215h76l-213 -273h-82zM492 981q-127 0 -192 -100t-95 -258l-62 -318q-23 -109 17 -181t152 -71q112 0 182 82t86 191h86q-23 -152 -119 -249q-97 -97 -243 -97t-211 91t-36 238l64 324q39 203 129 311t244 109t214 -95q62 -96 35 -231
l-4 -22h-86l4 24q6 55 3 111t-47 99q-44 42 -121 42z" />
    <glyph glyph-name="Dcaron" unicode="&#x10e;" horiz-adv-x="1021" 
d="M602 1448l-108 272h73l84 -215l170 215h76l-213 -272h-82zM627 1286h-250l-236 -1210h244q131 0 209 80t102 204l123 641q25 127 -19 206t-173 79zM375 0h-336l264 1362h334q167 0 235 -96t33 -277l-121 -622q-70 -367 -409 -367z" />
    <glyph glyph-name="dcaron" unicode="&#x10f;" horiz-adv-x="997" 
d="M295 -20q-143 0 -205 90q-61 90 -33 239l64 324q39 201 126 311t237 109q150 0 225 -95l94 496h78l-15 -113l-225 -1175q-25 -113 74 -113l-15 -73q-82 0 -112 32t-33 97q-117 -129 -260 -129zM496 981q-221 0 -291 -358l-62 -318q-23 -109 19 -181t151 -71
q138 0 244 127l135 703q-59 98 -196 98zM1171 1403l-133 -240h-53l94 240h92z" />
    <glyph glyph-name="Dcroat" unicode="&#x110;" horiz-adv-x="1026" 
d="M631 1286h-250l-111 -567h236l-14 -76h-236l-111 -567h246q131 0 207 80t102 204l125 641q53 285 -194 285zM641 1362q166 0 235 -95t33 -278l-121 -622q-70 -367 -407 -367h-336l125 643h-121l14 76h121l125 643h332z" />
    <glyph glyph-name="dcroat" unicode="&#x111;" horiz-adv-x="950" 
d="M504 981q-229 0 -299 -358l-62 -318q-23 -109 21 -181t155 -71q142 0 248 127l135 703q-55 98 -198 98zM303 -20q-147 0 -211 90q-63 90 -35 239l64 324q39 199 127 309t244 111q156 0 227 -95l51 265h-352l14 73h352l31 158h78l-14 -113l-9 -45h84l-16 -73h-82
l-205 -1057q-23 -113 76 -113l-12 -73q-84 0 -115 32t-33 97q-117 -129 -264 -129z" />
    <glyph glyph-name="Emacron" unicode="&#x112;" horiz-adv-x="858" 
d="M383 1552l14 74h443l-15 -74h-442zM889 1362l-15 -76h-497l-101 -514h431l-17 -76h-428l-121 -620h498l-14 -76h-586l264 1362h586z" />
    <glyph glyph-name="emacron" unicode="&#x113;" horiz-adv-x="880" 
d="M309 1223l15 73h442l-14 -73h-443zM306 -20q-150 0 -214 90q-63 90 -35 239l64 324q39 205 131 313t262 107q129 0 196 -71t44 -187l-4 -23q-29 -158 -151 -212t-421 -68l-35 -185q-20 -111 20 -183q41 -72 153 -71q112 0 177 73q64 73 80 165l5 20h84l-3 -10
q-29 -143 -115 -232q-88 -89 -238 -89zM513 981q-81 0 -136 -31q-123 -69 -172 -321l-12 -68q308 18 383 67q74 50 92 146l4 23q16 88 -31 136t-128 48z" />
    <glyph glyph-name="Ebreve" unicode="&#x114;" horiz-adv-x="858" 
d="M596 1495q-102 0 -151 48q-48 48 -31 124l2 14h73q-11 -64 20 -92q30 -27 99 -26q139 0 160 98l2 20h76l-4 -20q-29 -166 -246 -166zM889 1362l-15 -76h-497l-101 -514h431l-17 -76h-428l-121 -620h498l-14 -76h-586l264 1362h586z" />
    <glyph glyph-name="ebreve" unicode="&#x115;" horiz-adv-x="880" 
d="M520 1165q-102 0 -150 48t-32 124l2 15h74l-2 -13q-10 -51 20 -79t100 -27q139 0 160 98l2 21h76l-4 -21q-29 -166 -246 -166zM306 -20q-150 0 -214 90q-63 90 -35 239l64 324q39 205 131 313t262 107q129 0 196 -71t44 -187l-4 -23q-29 -158 -151 -212t-421 -68
l-35 -185q-20 -111 20 -183q41 -72 153 -71q112 0 177 73q64 73 80 165l5 20h84l-3 -10q-29 -143 -115 -232q-88 -89 -238 -89zM513 981q-81 0 -136 -31q-123 -69 -172 -321l-12 -68q308 18 383 67q74 50 92 146l4 23q16 88 -31 136t-128 48z" />
    <glyph glyph-name="Edotaccent" unicode="&#x116;" horiz-adv-x="858" 
d="M616 1651q57 0 58 -52q0 -35 -23 -55t-55 -20q-55 0 -55 53q0 31 22 53t53 21zM889 1362l-15 -76h-497l-101 -514h431l-17 -76h-428l-121 -620h498l-14 -76h-586l264 1362h586z" />
    <glyph glyph-name="edotaccent" unicode="&#x117;" horiz-adv-x="880" 
d="M545 1321q57 0 57 -51q0 -35 -22 -56q-23 -20 -56 -20q-55 0 -55 53q1 31 23 53t53 21zM306 -20q-150 0 -214 90q-63 90 -35 239l64 324q39 205 131 313t262 107q129 0 196 -71t44 -187l-4 -23q-29 -158 -151 -212t-421 -68l-35 -185q-20 -111 20 -183q41 -72 153 -71
q112 0 177 73q64 73 80 165l5 20h84l-3 -10q-29 -143 -115 -232q-88 -89 -238 -89zM513 981q-81 0 -136 -31q-123 -69 -172 -321l-12 -68q308 18 383 67q74 50 92 146l4 23q16 88 -31 136t-128 48z" />
    <glyph glyph-name="Eogonek" unicode="&#x118;" horiz-adv-x="858" 
d="M315 -264q0 -74 82 -74t99 86l2 10h65l-4 -12q-27 -145 -176 -145q-63 1 -101 33t-38 87q0 168 245 279h-450l264 1362h586l-15 -76h-497l-101 -514h431l-17 -76h-428l-121 -620h498l-14 -76h-33q-133 -51 -205 -121q-72 -69 -72 -143z" />
    <glyph glyph-name="eogonek" unicode="&#x119;" horiz-adv-x="892" 
d="M519 981q-83 0 -139 -31q-126 -70 -175 -321l-12 -68q210 12 283 27q74 16 108 39q76 50 94 145l4 21q18 88 -31 138t-132 50zM203 -266q0 -72 81 -72t97 86l2 10h66l-3 -12q-29 -145 -178 -145q-63 1 -101 33t-38 87q0 156 207 261q-10 -2 -29 -2q-147 0 -213 90
t-37 239l64 324q39 205 132 313t267 107q131 0 200 -71t46 -187l-4 -23q-31 -158 -154 -212t-430 -68l-35 -185q-20 -113 22 -183q43 -70 157 -71q114 0 183 80t83 178h86q-43 -215 -180 -286q-291 -150 -291 -291z" />
    <glyph glyph-name="Ecaron" unicode="&#x11a;" horiz-adv-x="858" 
d="M543 1448l-109 272h74l84 -215l170 215h76l-213 -272h-82zM889 1362l-15 -76h-497l-101 -514h431l-17 -76h-428l-121 -620h498l-14 -76h-586l264 1362h586z" />
    <glyph glyph-name="ecaron" unicode="&#x11b;" horiz-adv-x="880" 
d="M469 1118l-109 273h74l84 -215l170 215h76l-213 -273h-82zM306 -20q-150 0 -214 90q-63 90 -35 239l64 324q39 205 131 313t262 107q129 0 196 -71t44 -187l-4 -23q-29 -158 -151 -212t-421 -68l-35 -185q-20 -111 20 -183q41 -72 153 -71q112 0 177 73q64 73 80 165
l5 20h84l-3 -10q-29 -143 -115 -232q-88 -89 -238 -89zM513 981q-81 0 -136 -31q-123 -69 -172 -321l-12 -68q308 18 383 67q74 50 92 146l4 23q16 88 -31 136t-128 48z" />
    <glyph glyph-name="Gcircumflex" unicode="&#x11c;" horiz-adv-x="960" 
d="M631 1720h82l110 -272h-78l-83 215l-170 -215h-80zM336 -20q-168 0 -231 105q-62 105 -25 298l115 602q37 189 141 293t268 104t233 -98t37 -248l-2 -12h-86l5 20q18 102 -24 182t-171 81q-129 0 -206 -86t-103 -224l-125 -637q-57 -305 182 -305q133 0 210 87t103 218
l62 326h-211l14 74h299l-73 -385q-36 -191 -140 -293t-272 -102z" />
    <glyph glyph-name="gcircumflex" unicode="&#x11d;" horiz-adv-x="931" 
d="M553 1391h82l110 -273h-77l-84 215l-170 -215h-80zM238 -358q114 0 180 78t88 196l37 188q-111 -124 -253 -124t-200 92q-57 92 -31 237l64 324q39 201 126 311t243 109q156 0 227 -103l29 82h63l-213 -1095q-72 -367 -379 -367q-143 0 -207 78t-32 186h81
q-17 -85 24 -138q39 -54 153 -54zM504 981q-133 0 -200 -98t-97 -260l-62 -318q-20 -109 20 -181t148 -71q142 0 244 127l135 703q-55 98 -188 98z" />
    <glyph glyph-name="Gbreve" unicode="&#x11e;" horiz-adv-x="960" 
d="M623 1495q-102 0 -151 48q-48 48 -32 124l2 14h74q-11 -64 20 -92q30 -27 99 -26q139 0 160 98l2 20h75l-4 -20q-29 -166 -245 -166zM336 -20q-168 0 -231 105q-62 105 -25 298l115 602q37 189 141 293t268 104t233 -98t37 -248l-2 -12h-86l5 20q18 102 -24 182t-171 81
q-129 0 -206 -86t-103 -224l-125 -637q-57 -305 182 -305q133 0 210 87t103 218l62 326h-211l14 74h299l-73 -385q-36 -191 -140 -293t-272 -102z" />
    <glyph glyph-name="gbreve" unicode="&#x11f;" horiz-adv-x="931" 
d="M545 1165q-102 0 -150 48t-30 139h73l-2 -13q-10 -51 21 -79t100 -27q139 0 160 98l2 21h76l-4 -21q-29 -166 -246 -166zM238 -358q114 0 180 78t88 196l37 188q-111 -124 -253 -124t-200 92q-57 92 -31 237l64 324q39 201 126 311t243 109q156 0 227 -103l29 82h63
l-213 -1095q-72 -367 -379 -367q-143 0 -207 78t-32 186h81q-17 -85 24 -138q39 -54 153 -54zM504 981q-133 0 -200 -98t-97 -260l-62 -318q-20 -109 20 -181t148 -71q142 0 244 127l135 703q-55 98 -188 98z" />
    <glyph glyph-name="Gdotaccent" unicode="&#x120;" horiz-adv-x="960" 
d="M647 1651q57 0 58 -52q0 -35 -23 -55t-55 -20q-55 0 -56 53q1 31 23 53t53 21zM336 -20q-168 0 -231 105q-62 105 -25 298l115 602q37 189 141 293t268 104t233 -98t37 -248l-2 -12h-86l5 20q18 102 -24 182t-171 81q-129 0 -206 -86t-103 -224l-125 -637
q-57 -305 182 -305q133 0 210 87t103 218l62 326h-211l14 74h299l-73 -385q-36 -191 -140 -293t-272 -102z" />
    <glyph glyph-name="gdotaccent" unicode="&#x121;" horiz-adv-x="931" 
d="M569 1321q57 0 58 -51q0 -36 -23 -56t-55 -20q-55 0 -55 53q0 31 22 53t53 21zM238 -358q114 0 180 78t88 196l37 188q-111 -124 -253 -124t-200 92q-57 92 -31 237l64 324q39 201 126 311t243 109q156 0 227 -103l29 82h63l-213 -1095q-72 -367 -379 -367
q-143 0 -207 78t-32 186h81q-17 -85 24 -138q39 -54 153 -54zM504 981q-133 0 -200 -98t-97 -260l-62 -318q-20 -109 20 -181t148 -71q142 0 244 127l135 703q-55 98 -188 98z" />
    <glyph glyph-name="Gcommaaccent" unicode="&#x122;" horiz-adv-x="960" 
d="M373 -82l-140 -235h-59l100 235h99zM336 -20q-168 0 -231 105q-62 105 -25 298l115 602q37 189 141 293t268 104t233 -98t37 -248l-2 -12h-86l5 20q18 102 -24 182t-171 81q-129 0 -206 -86t-103 -224l-125 -637q-57 -305 182 -305q133 0 210 87t103 218l62 326h-211
l14 74h299l-73 -385q-36 -191 -140 -293t-272 -102z" />
    <glyph glyph-name="gcommaaccent" unicode="&#x123;" horiz-adv-x="931" 
d="M489 1139l132 235h59l-96 -235h-95zM238 -358q114 0 180 78t88 196l37 188q-111 -124 -253 -124t-200 92q-57 92 -31 237l64 324q39 201 126 311t243 109q156 0 227 -103l29 82h63l-213 -1095q-72 -367 -379 -367q-143 0 -207 78t-32 186h81q-17 -85 24 -138
q39 -54 153 -54zM504 981q-133 0 -200 -98t-97 -260l-62 -318q-20 -109 20 -181t148 -71q142 0 244 127l135 703q-55 98 -188 98z" />
    <glyph glyph-name="Hcircumflex" unicode="&#x124;" horiz-adv-x="1069" 
d="M684 1720h82l111 -272h-78l-84 215l-170 -215h-80zM743 0h-86l136 696h-531l-135 -696h-88l264 1362h88l-115 -590h531l115 590h86z" />
    <glyph glyph-name="hcircumflex" unicode="&#x125;" horiz-adv-x="987" 
d="M547 1780h82l110 -273h-77l-84 215l-170 -215h-80zM588 1053q268 0 194 -373l-131 -680h-78l15 113l108 571q59 297 -147 297q-141 0 -256 -127l-166 -854h-88l283 1454h77l-12 -113l-80 -409q121 121 281 121z" />
    <glyph glyph-name="Hbar" unicode="&#x126;" horiz-adv-x="1081" 
d="M276 772h545l37 199h-543zM758 0h-88l137 696h-545l-135 -696h-88l264 1362h88l-61 -318h542l62 318h88z" />
    <glyph glyph-name="hbar" unicode="&#x127;" horiz-adv-x="999" 
d="M594 1053q274 0 201 -373l-131 -680h-80l14 113l111 571q59 297 -154 297q-147 0 -262 -127l-166 -854h-88l237 1223h-96l15 73h96l31 158h77l-12 -113l-10 -45h340l-15 -73h-340l-55 -291q121 121 287 121z" />
    <glyph glyph-name="Itilde" unicode="&#x128;" horiz-adv-x="450" 
d="M100 1495v10q0 84 47 125t111 41t141 -51q78 -51 117 -51q88 0 88 98v8h74v-6q0 -86 -47 -128t-107 -42t-141 52q-80 53 -120 53q-41 0 -67 -25t-26 -74v-10h-70zM127 0h-88l264 1362h88z" />
    <glyph glyph-name="itilde" unicode="&#x129;" horiz-adv-x="450" 
d="M37 1165v11q0 84 47 124q46 40 110 41q64 0 142 -51t117 -51q88 0 88 98v9h73v-7q0 -86 -47 -128t-107 -42q-60 1 -140 53t-120 52t-67 -25t-27 -73v-11h-69zM39 0l201 1032h77l-10 -112l-180 -920h-88z" />
    <glyph glyph-name="Imacron" unicode="&#x12a;" horiz-adv-x="450" 
d="M158 1552l14 74h442l-14 -74h-442zM127 0h-88l264 1362h88z" />
    <glyph glyph-name="imacron" unicode="&#x12b;" horiz-adv-x="450" 
d="M94 1223l15 73h442l-14 -73h-443zM39 0l201 1032h77l-10 -112l-180 -920h-88z" />
    <glyph glyph-name="Ibreve" unicode="&#x12c;" horiz-adv-x="450" 
d="M369 1495q-102 0 -151 48q-48 48 -32 124l2 14h74q-11 -64 20 -92q30 -27 99 -26q139 0 160 98l2 20h75l-4 -20q-29 -166 -245 -166zM127 0h-88l264 1362h88z" />
    <glyph glyph-name="ibreve" unicode="&#x12d;" horiz-adv-x="450" 
d="M305 1165q-102 0 -150 48t-32 124l2 15h74l-2 -13q-9 -51 21 -79t99 -27q139 0 160 98l2 21h76l-4 -21q-29 -166 -246 -166zM39 0l201 1032h77l-10 -112l-180 -920h-88z" />
    <glyph glyph-name="Iogonek" unicode="&#x12e;" horiz-adv-x="450" 
d="M-94 -399q-63 0 -102 32q-38 33 -37 88q0 90 72 164q73 74 202 125l262 1352h88l-264 -1362h-10q-133 -51 -205 -121q-72 -69 -72 -143t81 -74t97 86l2 10h66q-26 -157 -180 -157z" />
    <glyph glyph-name="iogonek" unicode="&#x12f;" horiz-adv-x="448" 
d="M331 1321q58 0 58 -57q0 -29 -21 -50q-22 -20 -53 -20q-55 0 -55 53q0 33 22 53t49 21zM-88 -399q-63 1 -101 33t-38 87q0 182 268 289l197 1022h77l-10 -112l-180 -920h-2q-135 -51 -207 -121q-72 -69 -72 -143t81 -74t100 86l2 10h63q-26 -157 -178 -157z" />
    <glyph glyph-name="Idotaccent" unicode="&#x130;" horiz-adv-x="450" 
d="M393 1651q57 0 58 -52q0 -35 -23 -55t-55 -20q-55 0 -56 53q1 31 23 53t53 21zM127 0h-88l264 1362h88z" />
    <glyph glyph-name="dotlessi" unicode="&#x131;" horiz-adv-x="450" 
d="M39 0l201 1032h77l-10 -112l-180 -920h-88z" />
    <glyph glyph-name="IJ" unicode="&#x132;" horiz-adv-x="1032" 
d="M381 -20l14 77q240 6 295 289l197 1016h86l-193 -1004q-37 -192 -133 -284t-266 -94zM127 0h-88l264 1362h88z" />
    <glyph glyph-name="ij" unicode="&#x133;" horiz-adv-x="907" 
d="M799 1321q53 0 53 -51q0 -36 -22 -56t-50 -20q-58 0 -57 53q-1 33 21 53t55 21zM700 1032h78l-10 -112l-193 -983q-39 -197 -117 -282t-241 -85l14 78q133 0 188 87q43 67 66 185zM334 1321q53 0 53 -51q0 -36 -20 -56q-21 -20 -49 -20q-58 0 -58 53q0 33 22 53t52 21z
M37 0l201 1032h77l-12 -112l-180 -920h-86z" />
    <glyph glyph-name="Jcircumflex" unicode="&#x134;" horiz-adv-x="581" 
d="M442 1720h82l111 -272h-78l-84 215l-170 -215h-80zM-70 -20l15 77q240 6 295 289l196 1016h86l-192 -1004q-38 -192 -134 -284t-266 -94z" />
    <glyph glyph-name="jcircumflex" unicode="&#x135;" horiz-adv-x="460" 
d="M317 1391h82l111 -273h-78l-84 215l-170 -215h-80zM254 1032h78l-10 -112l-193 -983q-39 -197 -117 -282t-241 -85l14 78q134 0 187 87q41 65 67 185z" />
    <glyph glyph-name="Kcommaaccent" unicode="&#x136;" horiz-adv-x="980" 
d="M383 -82l-139 -235h-60l101 235h98zM1032 1362l-510 -565l264 -797h-96l-237 725l-234 -254l-92 -471h-88l264 1362h88l-149 -770l686 770h104z" />
    <glyph glyph-name="kcommaaccent" unicode="&#x137;" horiz-adv-x="911" 
d="M348 -82l-139 -235h-59l100 235h98zM897 1032l-405 -377l221 -655h-92l-201 594l-215 -199l-78 -395h-88l283 1454h77l-12 -111l-164 -843l568 532h106z" />
    <glyph glyph-name="Lacute" unicode="&#x139;" horiz-adv-x="837" 
d="M575 1729h103l-225 -273h-72zM303 1362h88l-250 -1286h502l-14 -76h-590z" />
    <glyph glyph-name="lacute" unicode="&#x13a;" horiz-adv-x="440" 
d="M481 1780h103l-226 -273h-71zM389 1454l-12 -113l-260 -1341h-78l14 113l260 1341h76z" />
    <glyph glyph-name="Lcommaaccent" unicode="&#x13b;" horiz-adv-x="837" 
d="M311 -82l-139 -235h-59l100 235h98zM303 1362h88l-250 -1286h502l-14 -76h-590z" />
    <glyph glyph-name="lcommaaccent" unicode="&#x13c;" horiz-adv-x="440" 
d="M113 -82l-140 -235h-59l100 235h99zM389 1454l-12 -113l-260 -1341h-78l14 113l260 1341h76z" />
    <glyph glyph-name="Lcaron" unicode="&#x13d;" horiz-adv-x="837" 
d="M809 1403l-133 -240h-53l94 240h92zM303 1362h88l-250 -1286h502l-14 -76h-590z" />
    <glyph glyph-name="lcaron" unicode="&#x13e;" horiz-adv-x="497" 
d="M674 1403l-133 -240h-54l95 240h92zM389 1454l-12 -113l-260 -1341h-78l14 113l260 1341h76z" />
    <glyph glyph-name="Ldot" unicode="&#x13f;" horiz-adv-x="837" 
d="M629 762q51 0 51 -51q0 -33 -20 -53t-49 -19q-58 0 -58 53q-1 30 21 50t55 20zM303 1362h88l-250 -1286h502l-14 -76h-590z" />
    <glyph glyph-name="ldot" unicode="&#x140;" horiz-adv-x="464" 
d="M444 762q51 0 52 -51q0 -33 -20 -53t-49 -19q-58 0 -58 53q0 30 21 50t54 20zM389 1454l-12 -113l-260 -1341h-78l14 113l260 1341h76z" />
    <glyph glyph-name="Lslash" unicode="&#x141;" horiz-adv-x="854" 
d="M303 1362h88l-133 -688l322 139l-17 -84l-321 -139l-101 -514h502l-14 -76h-590l106 549l-127 -55l17 86l127 53z" />
    <glyph glyph-name="lslash" unicode="&#x142;" horiz-adv-x="446" 
d="M436 872l-16 -81l-158 -74l-139 -717h-78l14 113l109 561l-154 -72l17 82l151 70l137 700h78l-14 -113l-107 -542z" />
    <glyph glyph-name="Nacute" unicode="&#x143;" horiz-adv-x="1083" 
d="M756 1720h102l-225 -272h-72zM1024 1362l-264 -1362h-121l-272 1251h-7l-241 -1251h-80l264 1362h119l272 -1258h11l241 1258h78z" />
    <glyph glyph-name="nacute" unicode="&#x144;" horiz-adv-x="987" 
d="M645 1391h103l-226 -273h-71zM588 1053q270 0 194 -371l-131 -682h-78l15 113l108 571q59 297 -147 297q-141 0 -256 -127l-166 -854h-88l201 1032h69l-12 -108q121 129 291 129z" />
    <glyph glyph-name="Ncommaaccent" unicode="&#x145;" horiz-adv-x="1083" 
d="M434 -82l-139 -235h-59l100 235h98zM1024 1362l-264 -1362h-121l-272 1251h-7l-241 -1251h-80l264 1362h119l272 -1258h11l241 1258h78z" />
    <glyph glyph-name="ncommaaccent" unicode="&#x146;" horiz-adv-x="987" 
d="M387 -82l-139 -235h-60l101 235h98zM588 1053q270 0 194 -371l-131 -682h-78l15 113l108 571q59 297 -147 297q-141 0 -256 -127l-166 -854h-88l201 1032h69l-12 -108q121 129 291 129z" />
    <glyph glyph-name="Ncaron" unicode="&#x147;" horiz-adv-x="1083" 
d="M633 1448l-109 272h74l84 -215l170 215h76l-213 -272h-82zM1024 1362l-264 -1362h-121l-272 1251h-7l-241 -1251h-80l264 1362h119l272 -1258h11l241 1258h78z" />
    <glyph glyph-name="ncaron" unicode="&#x148;" horiz-adv-x="987" 
d="M522 1118l-108 273h73l84 -215l170 215h76l-213 -273h-82zM588 1053q270 0 194 -371l-131 -682h-78l15 113l108 571q59 297 -147 297q-141 0 -256 -127l-166 -854h-88l201 1032h69l-12 -108q121 129 291 129z" />
    <glyph glyph-name="Omacron" unicode="&#x14c;" horiz-adv-x="980" 
d="M422 1552l14 74h443l-15 -74h-442zM595 1307q-130 0 -207 -87t-101 -223l-125 -637q-27 -133 14 -219t172 -86t207 87q75 87 100 218l123 637q27 133 -13 221t-170 89zM336 -20q-166 0 -230 104q-63 104 -26 295l115 606q37 189 139 293t267 104t232 -104
q66 -105 29 -295l-117 -606q-78 -397 -409 -397z" />
    <glyph glyph-name="omacron" unicode="&#x14d;" horiz-adv-x="905" 
d="M322 1223l14 73h442l-14 -73h-442zM482 981q-118 0 -182 -99t-95 -259l-62 -318q-20 -109 20 -181t148 -71q218 0 275 297l65 340q25 127 -13 209t-156 82zM496 1053q156 1 214 -103t27 -264l-67 -342q-70 -365 -369 -364q-143 0 -208 90t-36 239l64 324q39 203 129 311
t246 109z" />
    <glyph glyph-name="Obreve" unicode="&#x14e;" horiz-adv-x="980" 
d="M633 1495q-102 0 -151 48q-48 48 -31 124l2 14h73q-11 -64 20 -92q30 -27 99 -26q139 0 160 98l2 20h76l-4 -20q-29 -166 -246 -166zM595 1307q-130 0 -207 -87t-101 -223l-125 -637q-27 -133 14 -219t172 -86t207 87q75 87 100 218l123 637q27 133 -13 221t-170 89z
M336 -20q-166 0 -230 104q-63 104 -26 295l115 606q37 189 139 293t267 104t232 -104q66 -105 29 -295l-117 -606q-78 -397 -409 -397z" />
    <glyph glyph-name="obreve" unicode="&#x14f;" horiz-adv-x="905" 
d="M532 1165q-102 0 -150 48t-32 124l2 15h74l-2 -13q-10 -51 20 -79t101 -27q139 0 160 98l2 21h75l-4 -21q-29 -166 -246 -166zM482 981q-118 0 -182 -99t-95 -259l-62 -318q-20 -109 20 -181t148 -71q218 0 275 297l65 340q25 127 -13 209t-156 82zM496 1053
q156 1 214 -103t27 -264l-67 -342q-70 -365 -369 -364q-143 0 -208 90t-36 239l64 324q39 203 129 311t246 109z" />
    <glyph glyph-name="Ohungarumlaut" unicode="&#x150;" horiz-adv-x="980" 
d="M868 1720h103l-230 -272h-67zM616 1720h101l-230 -272h-67zM595 1307q-130 0 -207 -87t-101 -223l-125 -637q-27 -133 14 -219t172 -86t207 87q75 87 100 218l123 637q27 133 -13 221t-170 89zM336 -20q-166 0 -230 104q-63 104 -26 295l115 606q37 189 139 293t267 104
t232 -104q66 -105 29 -295l-117 -606q-78 -397 -409 -397z" />
    <glyph glyph-name="ohungarumlaut" unicode="&#x151;" horiz-adv-x="905" 
d="M768 1391h102l-229 -273h-68zM516 1391h100l-229 -273h-68zM482 981q-118 0 -182 -99t-95 -259l-62 -318q-20 -109 20 -181t148 -71q218 0 275 297l65 340q25 127 -13 209t-156 82zM496 1053q156 1 214 -103t27 -264l-67 -342q-70 -365 -369 -364q-143 0 -208 90t-36 239
l64 324q39 203 129 311t246 109z" />
    <glyph glyph-name="OE" unicode="&#x152;" horiz-adv-x="1400" 
d="M344 55q131 0 210 88t103 215l123 639q25 131 -16 221t-170 89q-129 0 -206 -87t-101 -223l-125 -637q-58 -305 182 -305zM596 1382q190 0 235 -163l27 143h576l-17 -76h-493l-101 -514h426l-14 -76h-426l-121 -620h496l-15 -76h-575l24 133q-116 -153 -284 -153
q-332 1 -254 399l115 606q37 193 139 295t262 102z" />
    <glyph glyph-name="oe" unicode="&#x153;" horiz-adv-x="1404" 
d="M1036 981q-80 0 -134 -31q-116 -67 -171 -321l-14 -68q254 14 351 50t122 159l4 23q16 86 -31 137t-127 51zM486 981q-118 0 -182 -99t-95 -259l-62 -316q-23 -109 19 -181t149 -73q218 0 275 295l65 342q25 127 -13 209t-156 82zM1044 1053q125 0 191 -72t43 -186
l-4 -23q-31 -158 -152 -212t-417 -68l-37 -185q-20 -111 20 -183t152 -71q113 0 176 75t84 183h86q-30 -152 -117 -242q-86 -89 -240 -89q-195 0 -235 180q-104 -180 -293 -180q-141 0 -205 90q-63 90 -35 239l64 324q41 205 129 313t248 107q190 0 229 -197
q113 197 313 197z" />
    <glyph glyph-name="Racute" unicode="&#x154;" horiz-adv-x="1005" 
d="M717 1720h102l-225 -272h-72zM647 1286h-270l-107 -538h242q248 0 289 229l16 84q40 225 -170 225zM657 1362q305 0 246 -313l-10 -54q-49 -258 -281 -307l160 -688h-96l-148 672h-270l-131 -672h-88l264 1362h354z" />
    <glyph glyph-name="racute" unicode="&#x155;" horiz-adv-x="665" 
d="M483 1391h103l-226 -273h-71zM567 1053q70 0 119 -29l-43 -78q-39 25 -104 25q-143 0 -248 -123l-164 -848h-88l201 1032h69l-12 -110q115 131 270 131z" />
    <glyph glyph-name="Rcommaaccent" unicode="&#x156;" horiz-adv-x="1005" 
d="M395 -82l-139 -235h-59l100 235h98zM647 1286h-270l-107 -538h242q248 0 289 229l16 84q40 225 -170 225zM657 1362q305 0 246 -313l-10 -54q-49 -258 -281 -307l160 -688h-96l-148 672h-270l-131 -672h-88l264 1362h354z" />
    <glyph glyph-name="rcommaaccent" unicode="&#x157;" horiz-adv-x="665" 
d="M143 -82l-139 -235h-59l100 235h98zM567 1053q70 0 119 -29l-43 -78q-39 25 -104 25q-143 0 -248 -123l-164 -848h-88l201 1032h69l-12 -110q115 131 270 131z" />
    <glyph glyph-name="Rcaron" unicode="&#x158;" horiz-adv-x="1005" 
d="M594 1448l-109 272h74l84 -215l170 215h76l-213 -272h-82zM647 1286h-270l-107 -538h242q248 0 289 229l16 84q40 225 -170 225zM657 1362q305 0 246 -313l-10 -54q-49 -258 -281 -307l160 -688h-96l-148 672h-270l-131 -672h-88l264 1362h354z" />
    <glyph glyph-name="rcaron" unicode="&#x159;" horiz-adv-x="665" 
d="M362 1118l-108 273h74l84 -215l170 215h75l-213 -273h-82zM567 1053q70 0 119 -29l-43 -78q-39 25 -104 25q-143 0 -248 -123l-164 -848h-88l201 1032h69l-12 -110q115 131 270 131z" />
    <glyph glyph-name="Sacute" unicode="&#x15a;" horiz-adv-x="874" 
d="M651 1720h103l-226 -272h-71zM550 1307q-116 -1 -188 -63t-90 -159l-8 -43q-16 -86 22 -144t171 -133t192 -163t31 -231l-16 -84q-27 -139 -123 -223t-255 -84t-224 82t-31 239l6 29h86l-6 -31q-47 -244 182 -244q109 -1 183 63t96 171l12 65q26 119 -20 194
q-46 74 -179 150t-185 149t-30 183l10 53q25 131 117 215t249 84q158 0 222 -89t33 -240l-4 -21h-88l4 21q20 104 -16 179q-37 75 -153 75z" />
    <glyph glyph-name="sacute" unicode="&#x15b;" horiz-adv-x="817" 
d="M559 1391h103l-226 -273h-71zM131 778q0 98 87 187q87 88 243 88q291 0 233 -297l-4 -21h-86l4 21q45 225 -157 225q-113 0 -171 -61t-58 -133t35 -111q37 -39 147 -97q110 -59 160 -117t50 -147q0 -133 -95 -234t-261 -101q-293 0 -229 299l4 20h84l-4 -20
q-47 -227 155 -228q113 0 185 72q71 72 71 159t-40 135t-146 104q-106 55 -157 107q-50 52 -50 150z" />
    <glyph glyph-name="Scircumflex" unicode="&#x15c;" horiz-adv-x="874" 
d="M588 1720h82l110 -272h-78l-84 215l-169 -215h-80zM550 1307q-116 -1 -188 -63t-90 -159l-8 -43q-16 -86 22 -144t171 -133t192 -163t31 -231l-16 -84q-27 -139 -123 -223t-255 -84t-224 82t-31 239l6 29h86l-6 -31q-47 -244 182 -244q109 -1 183 63t96 171l12 65
q26 119 -20 194q-46 74 -179 150t-185 149t-30 183l10 53q25 131 117 215t249 84q158 0 222 -89t33 -240l-4 -21h-88l4 21q20 104 -16 179q-37 75 -153 75z" />
    <glyph glyph-name="scircumflex" unicode="&#x15d;" horiz-adv-x="817" 
d="M496 1391h82l110 -273h-78l-84 215l-170 -215h-80zM131 778q0 98 87 187q87 88 243 88q291 0 233 -297l-4 -21h-86l4 21q45 225 -157 225q-113 0 -171 -61t-58 -133t35 -111q37 -39 147 -97q110 -59 160 -117t50 -147q0 -133 -95 -234t-261 -101q-293 0 -229 299l4 20h84
l-4 -20q-47 -227 155 -228q113 0 185 72q71 72 71 159t-40 135t-146 104q-106 55 -157 107q-50 52 -50 150z" />
    <glyph glyph-name="Scedilla" unicode="&#x15e;" horiz-adv-x="874" 
d="M550 1307q-116 -1 -188 -63t-90 -159l-8 -43q-16 -86 22 -143t172 -135t192 -165t30 -228l-16 -84q-27 -133 -117 -217t-238 -90l-16 -84h24q158 0 158 -117q0 -84 -58 -132q-57 -48 -149 -48q-189 0 -162 141l3 10h63q-11 -53 14 -74q25 -20 85 -20t98 30q37 30 37 83
q0 76 -109 75h-74l29 138q-285 18 -221 319l6 29h86l-6 -31q-47 -244 182 -244q109 -1 183 63t96 171l12 65q26 119 -20 194q-46 74 -179 150t-185 149t-30 183l10 53q25 131 117 215t249 84q158 0 222 -89t33 -240l-4 -21h-88l4 21q20 104 -16 179q-37 75 -153 75z" />
    <glyph glyph-name="scedilla" unicode="&#x15f;" horiz-adv-x="817" 
d="M131 778q0 98 87 187q87 88 243 88q291 0 233 -297l-4 -21h-86l4 21q45 225 -157 225q-113 0 -171 -61t-58 -133t35 -111q37 -39 147 -97q110 -59 160 -117t50 -147q0 -125 -85 -223t-236 -110l-17 -86h25q158 0 158 -117q-1 -84 -59 -132t-150 -48q-189 0 -162 141l2 10
h64q-11 -53 16 -74q27 -20 86 -20t95 30t36 83q0 76 -106 75h-74l29 138q-266 12 -207 297l4 20h84l-4 -20q-47 -227 155 -228q113 0 185 72q71 72 71 159t-40 135t-146 104q-106 55 -157 107q-50 52 -50 150z" />
    <glyph glyph-name="Scaron" unicode="&#x160;" horiz-adv-x="874" 
d="M530 1448l-108 272h74l84 -215l170 215h75l-213 -272h-82zM550 1307q-116 -1 -188 -63t-90 -159l-8 -43q-16 -86 22 -144t171 -133t192 -163t31 -231l-16 -84q-27 -139 -123 -223t-255 -84t-224 82t-31 239l6 29h86l-6 -31q-47 -244 182 -244q109 -1 183 63t96 171l12 65
q26 119 -20 194q-46 74 -179 150t-185 149t-30 183l10 53q25 131 117 215t249 84q158 0 222 -89t33 -240l-4 -21h-88l4 21q20 104 -16 179q-37 75 -153 75z" />
    <glyph glyph-name="scaron" unicode="&#x161;" horiz-adv-x="817" 
d="M438 1118l-108 273h73l84 -215l170 215h76l-213 -273h-82zM131 778q0 98 87 187q87 88 243 88q291 0 233 -297l-4 -21h-86l4 21q45 225 -157 225q-113 0 -171 -61t-58 -133t35 -111q37 -39 147 -97q110 -59 160 -117t50 -147q0 -133 -95 -234t-261 -101q-293 0 -229 299
l4 20h84l-4 -20q-47 -227 155 -228q113 0 185 72q71 72 71 159t-40 135t-146 104q-106 55 -157 107q-50 52 -50 150z" />
    <glyph glyph-name="uni0162" unicode="&#x162;" horiz-adv-x="890" 
d="M338 -82l-139 -235h-60l101 235h98zM338 0h-86l250 1284h-340l14 78h776l-14 -78h-350z" />
    <glyph glyph-name="uni0163" unicode="&#x163;" horiz-adv-x="665" 
d="M225 -82l-139 -235h-59l100 235h98zM465 76l10 -70q-70 -27 -151 -26q-152 0 -204 87t-18 273l177 897h77l-12 -109l-18 -96h311l-14 -71h-312l-123 -635q-24 -127 8 -199t152 -72q51 1 117 21z" />
    <glyph glyph-name="Tcaron" unicode="&#x164;" horiz-adv-x="890" 
d="M539 1448l-109 272h74l84 -215l170 215h76l-213 -272h-82zM338 0h-86l250 1284h-340l14 78h776l-14 -78h-350z" />
    <glyph glyph-name="tcaron" unicode="&#x165;" horiz-adv-x="665" 
d="M702 1415l-133 -239h-53l94 239h92zM465 76l10 -70q-70 -27 -151 -26q-152 0 -204 87t-18 273l177 897h77l-12 -109l-18 -96h311l-14 -71h-312l-123 -635q-24 -127 8 -199t152 -72q51 1 117 21z" />
    <glyph glyph-name="Tbar" unicode="&#x166;" horiz-adv-x="890" 
d="M178 788l15 74h227l82 422h-348l14 78h793l-13 -78h-360l-82 -422h227l-14 -74h-227l-154 -788h-86l154 788h-228z" />
    <glyph glyph-name="tbar" unicode="&#x167;" horiz-adv-x="665" 
d="M473 76l8 -70q-70 -27 -153 -26q-154 0 -207 87t-19 273l177 897h77l-12 -109l-18 -96h317l-12 -71h-320l-53 -277h324l-15 -74h-323l-56 -284q-24 -127 8 -199t156 -72q51 1 121 21z" />
    <glyph glyph-name="Utilde" unicode="&#x168;" horiz-adv-x="1030" 
d="M389 1495v10q0 84 47 125q46 41 110 41t142 -51t117 -51q88 0 88 98v8h74v-6q0 -86 -47 -128q-48 -42 -108 -42t-140 52q-80 53 -120 53t-67 -25t-26 -74v-10h-70zM373 -20q-170 0 -236 104t-28 293l192 985h88l-194 -1002q-27 -133 14 -219t173 -86t206 85t100 220
l197 1002h86l-193 -985q-39 -197 -137 -297t-268 -100z" />
    <glyph glyph-name="utilde" unicode="&#x169;" horiz-adv-x="950" 
d="M287 1165v11q0 84 47 124t110 41q64 0 142 -51t116 -51q88 0 89 98v9h73v-7q0 -86 -47 -128t-107 -42q-60 1 -140 53t-120 52t-67 -25t-27 -73v-11h-69zM319 51q141 0 252 127l166 854h88l-170 -870q-23 -109 74 -109l-16 -73q-84 0 -115 32t-29 99q-121 -131 -284 -131
q-269 0 -197 362l133 690h86l-133 -692q-12 -78 -13 -141t38 -105t120 -43z" />
    <glyph glyph-name="Umacron" unicode="&#x16a;" horiz-adv-x="1030" 
d="M446 1552l15 74h442l-14 -74h-443zM373 -20q-170 0 -236 104t-28 293l192 985h88l-194 -1002q-27 -133 14 -219t173 -86t206 85t100 220l197 1002h86l-193 -985q-39 -197 -137 -297t-268 -100z" />
    <glyph glyph-name="umacron" unicode="&#x16b;" horiz-adv-x="950" 
d="M344 1223l14 73h443l-15 -73h-442zM319 51q141 0 252 127l166 854h88l-170 -870q-23 -109 74 -109l-16 -73q-84 0 -115 32t-29 99q-121 -131 -284 -131q-269 0 -197 362l133 690h86l-133 -692q-12 -78 -13 -141t38 -105t120 -43z" />
    <glyph glyph-name="Ubreve" unicode="&#x16c;" horiz-adv-x="1030" 
d="M657 1495q-102 0 -150 48t-32 124l2 14h74q-11 -64 19 -92q30 -27 100 -26q139 0 159 98l2 20h76l-4 -20q-29 -166 -246 -166zM373 -20q-170 0 -236 104t-28 293l192 985h88l-194 -1002q-27 -133 14 -219t173 -86t206 85t100 220l197 1002h86l-193 -985
q-39 -197 -137 -297t-268 -100z" />
    <glyph glyph-name="ubreve" unicode="&#x16d;" horiz-adv-x="950" 
d="M555 1165q-102 0 -151 48q-48 48 -31 124l2 15h74q-27 -119 118 -119q139 0 160 98l2 21h76l-4 -21q-29 -166 -246 -166zM319 51q141 0 252 127l166 854h88l-170 -870q-23 -109 74 -109l-16 -73q-84 0 -115 32t-29 99q-121 -131 -284 -131q-269 0 -197 362l133 690h86
l-133 -692q-12 -78 -13 -141t38 -105t120 -43z" />
    <glyph glyph-name="Uring" unicode="&#x16e;" horiz-adv-x="1030" 
d="M840 1608q0 -64 -54 -114t-127 -50q-75 0 -111 36t-36 100t52 114q52 49 127 49t112 -36q37 -35 37 -99zM573 1577q0 -78 86 -78q53 0 85 33t32 78q0 78 -82 78q-55 0 -88 -33t-33 -78zM373 -20q-170 0 -236 104t-28 293l192 985h88l-194 -1002q-27 -133 14 -219t173 -86
t206 85t100 220l197 1002h86l-193 -985q-39 -197 -137 -297t-268 -100z" />
    <glyph glyph-name="uring" unicode="&#x16f;" horiz-adv-x="950" 
d="M410 1250q0 64 52 114q52 49 127 49t111 -36q36 -35 37 -99q0 -64 -53 -114t-127 -50q-147 0 -147 136zM471 1247q0 -78 86 -78q53 0 85 33t32 78q0 78 -82 78q-55 0 -88 -33t-33 -78zM319 51q141 0 252 127l166 854h88l-170 -870q-23 -109 74 -109l-16 -73
q-84 0 -115 32t-29 99q-121 -131 -284 -131q-269 0 -197 362l133 690h86l-133 -692q-12 -78 -13 -141t38 -105t120 -43z" />
    <glyph glyph-name="Uhungarumlaut" unicode="&#x170;" horiz-adv-x="1030" 
d="M893 1720h102l-229 -272h-68zM641 1720h100l-229 -272h-68zM373 -20q-170 0 -236 104t-28 293l192 985h88l-194 -1002q-27 -133 14 -219t173 -86t206 85t100 220l197 1002h86l-193 -985q-39 -197 -137 -297t-268 -100z" />
    <glyph glyph-name="uhungarumlaut" unicode="&#x171;" horiz-adv-x="950" 
d="M791 1391h102l-229 -273h-68zM539 1391h100l-229 -273h-68zM319 51q141 0 252 127l166 854h88l-170 -870q-23 -109 74 -109l-16 -73q-84 0 -115 32t-29 99q-121 -131 -284 -131q-269 0 -197 362l133 690h86l-133 -692q-12 -78 -13 -141t38 -105t120 -43z" />
    <glyph glyph-name="Uogonek" unicode="&#x172;" horiz-adv-x="1042" 
d="M375 -20q-170 0 -237 104t-29 293l192 985h86l-194 -1002q-27 -133 16 -219t178 -86t211 85t102 220l197 1002h86l-192 -985q-53 -272 -238 -361q-285 -135 -285 -282q0 -72 81 -72t97 86l3 10h65q-26 -157 -180 -157q-63 0 -102 32q-38 33 -37 88q0 152 204 259h-24z
" />
    <glyph glyph-name="uogonek" unicode="&#x173;" horiz-adv-x="962" 
d="M369 -279q0 174 254 281q-45 29 -41 109q-125 -131 -291 -131q-275 0 -203 362l133 690h86l-133 -692q-12 -78 -12 -141t40 -105t124 -43q147 0 258 127l166 854h88l-170 -870q-23 -109 75 -109l-14 -73q-23 0 -55 4q-113 -49 -173 -115t-61 -135q0 -72 81 -72t100 86
l2 10h63q-26 -157 -178 -157q-63 1 -101 33t-38 87z" />
    <glyph glyph-name="Wcircumflex" unicode="&#x174;" horiz-adv-x="1415" 
d="M858 1720h82l111 -272h-78l-84 215l-170 -215h-80zM778 1362h68l49 -1239h4l463 1239h90l-526 -1362h-99l-51 1163h-6l-504 -1163h-98l27 1362h86l-37 -1239h4z" />
    <glyph glyph-name="wcircumflex" unicode="&#x175;" horiz-adv-x="1331" 
d="M752 1391h82l110 -273h-78l-84 215l-170 -215h-80zM242 104l432 928h86l65 -928h6l394 928h86l-449 -1032h-100l-64 918h-8l-428 -918h-98l-45 1032h90l27 -928h6z" />
    <glyph glyph-name="Ycircumflex" unicode="&#x176;" horiz-adv-x="917" 
d="M610 1720h82l111 -272h-78l-84 215l-170 -215h-80zM967 1362l-523 -903l-88 -459h-88l88 459l-170 903h90l142 -797h4l452 797h93z" />
    <glyph glyph-name="ycircumflex" unicode="&#x177;" horiz-adv-x="788" 
d="M481 1391h82l111 -273h-78l-84 215l-170 -215h-80zM205 -25l-64 1057h88l41 -917h6l414 917h88l-538 -1157q-74 -155 -172 -229t-242 -74l14 76q205 0 324 235z" />
    <glyph glyph-name="Ydieresis" unicode="&#x178;" horiz-adv-x="917" 
d="M793 1649q53 0 53 -50q0 -33 -22 -52t-52 -19q-51 0 -51 51q1 31 21 51t51 19zM498 1649q51 0 51 -50q1 -33 -19 -52t-51 -19q-53 0 -53 51q0 31 20 51t52 19zM967 1362l-523 -903l-88 -459h-88l88 459l-170 903h90l142 -797h4l452 797h93z" />
    <glyph glyph-name="Zacute" unicode="&#x179;" horiz-adv-x="808" 
d="M618 1720h103l-225 -272h-72zM745 1284h-530l10 78h619l-17 -92l-782 -1194h530l-12 -76h-616l18 94z" />
    <glyph glyph-name="zacute" unicode="&#x17a;" horiz-adv-x="702" 
d="M502 1391h102l-225 -273h-72zM578 956h-437l15 76h520l-19 -92l-622 -864h434l-14 -76h-516l14 86z" />
    <glyph glyph-name="Zdotaccent" unicode="&#x17b;" horiz-adv-x="808" 
d="M571 1651q57 0 58 -52q0 -35 -23 -55t-55 -20q-55 0 -55 53q0 31 22 53t53 21zM745 1284h-530l10 78h619l-17 -92l-782 -1194h530l-12 -76h-616l18 94z" />
    <glyph glyph-name="zdotaccent" unicode="&#x17c;" horiz-adv-x="702" 
d="M455 1321q57 0 57 -51q0 -36 -23 -56t-55 -20q-55 0 -55 53q1 31 23 53t53 21zM578 956h-437l15 76h520l-19 -92l-622 -864h434l-14 -76h-516l14 86z" />
    <glyph glyph-name="Zcaron" unicode="&#x17d;" horiz-adv-x="808" 
d="M498 1448l-109 272h74l84 -215l170 215h76l-213 -272h-82zM745 1284h-530l10 78h619l-17 -92l-782 -1194h530l-12 -76h-616l18 94z" />
    <glyph glyph-name="zcaron" unicode="&#x17e;" horiz-adv-x="702" 
d="M381 1118l-109 273h74l84 -215l170 215h76l-213 -273h-82zM578 956h-437l15 76h520l-19 -92l-622 -864h434l-14 -76h-516l14 86z" />
    <glyph glyph-name="florin" unicode="&#x192;" horiz-adv-x="1052" 
d="M123 -20q-125 0 -207 77l55 60q61 -66 160 -66q211 0 262 258l137 699q70 375 379 374q121 0 201 -75l-55 -58q-61 61 -150 62q-227 0 -282 -281l-50 -254h334l-14 -71h-336l-72 -383q-68 -342 -362 -342z" />
    <glyph glyph-name="uni0218" unicode="&#x218;" horiz-adv-x="874" 
d="M330 -82l-140 -235h-59l100 235h99zM550 1307q-116 -1 -188 -63t-90 -159l-8 -43q-16 -86 22 -144t171 -133t192 -163t31 -231l-16 -84q-27 -139 -123 -223t-255 -84t-224 82t-31 239l6 29h86l-6 -31q-47 -244 182 -244q109 -1 183 63t96 171l12 65q26 119 -20 194
q-46 74 -179 150t-185 149t-30 183l10 53q25 131 117 215t249 84q158 0 222 -89t33 -240l-4 -21h-88l4 21q20 104 -16 179q-37 75 -153 75z" />
    <glyph glyph-name="uni0219" unicode="&#x219;" horiz-adv-x="817" 
d="M301 -82l-139 -235h-60l101 235h98zM131 778q0 98 87 187q87 88 243 88q291 0 233 -297l-4 -21h-86l4 21q45 225 -157 225q-113 0 -171 -61t-58 -133t35 -111q37 -39 147 -97q110 -59 160 -117t50 -147q0 -133 -95 -234t-261 -101q-293 0 -229 299l4 20h84l-4 -20
q-47 -227 155 -228q113 0 185 72q71 72 71 159t-40 135t-146 104q-106 55 -157 107q-50 52 -50 150z" />
    <glyph glyph-name="uni021A" unicode="&#x21a;" horiz-adv-x="890" 
d="M338 -82l-139 -235h-60l101 235h98zM338 0h-86l250 1284h-340l14 78h776l-14 -78h-350z" />
    <glyph glyph-name="uni021B" unicode="&#x21b;" horiz-adv-x="665" 
d="M225 -82l-139 -235h-59l100 235h98zM465 76l10 -70q-70 -27 -151 -26q-152 0 -204 87t-18 273l177 897h77l-12 -109l-18 -96h311l-14 -71h-312l-123 -635q-24 -127 8 -199t152 -72q51 1 117 21z" />
    <glyph glyph-name="dotlessj" unicode="&#x237;" horiz-adv-x="460" 
d="M254 1032h78l-10 -112l-193 -983q-39 -197 -117 -282t-241 -85l14 78q134 0 187 87q41 65 67 185z" />
    <glyph glyph-name="circumflex" unicode="&#x2c6;" horiz-adv-x="1067" 
d="M621 1391h81l111 -273h-78l-84 215l-170 -215h-80z" />
    <glyph glyph-name="caron" unicode="&#x2c7;" horiz-adv-x="1069" 
d="M563 1118l-108 273h73l84 -215l170 215h76l-213 -273h-82z" />
    <glyph glyph-name="breve" unicode="&#x2d8;" horiz-adv-x="1067" 
d="M612 1165q-102 0 -150 48t-32 124l2 15h74l-2 -13q-10 -51 20 -79t101 -27q139 0 159 98l2 21h76l-4 -21q-29 -166 -246 -166z" />
    <glyph glyph-name="dotaccent" unicode="&#x2d9;" horiz-adv-x="1067" 
d="M637 1321q57 0 57 -51q0 -35 -22 -56q-23 -20 -56 -20q-55 0 -55 53q1 31 23 53t53 21z" />
    <glyph glyph-name="ring" unicode="&#x2da;" horiz-adv-x="1067" 
d="M795 1278q1 -64 -53 -114t-128 -50t-110 36t-37 100q0 64 52 114q52 49 127 49t112 -36q37 -35 37 -99zM528 1247q0 -78 86 -78q53 0 85 33t32 78q0 78 -82 78q-55 0 -88 -33t-33 -78z" />
    <glyph glyph-name="ogonek" unicode="&#x2db;" horiz-adv-x="1067" 
d="M360 -266q0 -72 82 -72t99 86l2 10h65l-4 -12q-27 -145 -176 -145q-63 1 -101 33t-38 87q0 103 95 185t261 135l14 -33q-143 -51 -221 -124t-78 -150z" />
    <glyph glyph-name="tilde" unicode="&#x2dc;" horiz-adv-x="1069" 
d="M346 1165v11q0 84 47 124t111 41q64 0 141 -51q78 -51 117 -51q88 0 88 98v9h74v-7q0 -86 -47 -128t-107 -42q-60 1 -141 53q-80 52 -120 52t-67 -25t-26 -73v-11h-70z" />
    <glyph glyph-name="hungarumlaut" unicode="&#x2dd;" horiz-adv-x="1067" 
d="M848 1391h102l-229 -273h-68zM596 1391h100l-229 -273h-68z" />
    <glyph glyph-name="uni0394" unicode="&#x394;" horiz-adv-x="933" 
d="M-25 92l580 1270h82l84 -1272l-19 -90h-743zM49 74h590l-64 1171z" />
    <glyph glyph-name="uni03A9" unicode="&#x3a9;" horiz-adv-x="989" 
d="M599 1307q-130 0 -206 -87t-102 -223l-123 -635q-41 -213 113 -278l-15 -84h-258l15 74h176q-156 92 -117 299l117 612q37 189 139 293t267 104t233 -104q67 -105 30 -295l-116 -604q-41 -215 -240 -305h178l-14 -74h-258l16 82q186 80 228 285l120 630q25 133 -14 221
t-169 89z" />
    <glyph glyph-name="pi" unicode="&#x3c0;" horiz-adv-x="1167" 
d="M901 956l-186 -956h-88l186 956h-383l-186 -956h-86l186 956h-190l14 76h938l-14 -76h-191z" />
    <glyph glyph-name="Wgrave" unicode="&#x1e80;" horiz-adv-x="1415" 
d="M770 1720h100l93 -272h-68zM778 1362h68l49 -1239h4l463 1239h90l-526 -1362h-99l-51 1163h-6l-504 -1163h-98l27 1362h86l-37 -1239h4z" />
    <glyph glyph-name="wgrave" unicode="&#x1e81;" horiz-adv-x="1331" 
d="M664 1391h100l92 -273h-68zM242 104l432 928h86l65 -928h6l394 928h86l-449 -1032h-100l-64 918h-8l-428 -918h-98l-45 1032h90l27 -928h6z" />
    <glyph glyph-name="Wacute" unicode="&#x1e82;" horiz-adv-x="1415" 
d="M922 1720h102l-225 -272h-72zM778 1362h68l49 -1239h4l463 1239h90l-526 -1362h-99l-51 1163h-6l-504 -1163h-98l27 1362h86l-37 -1239h4z" />
    <glyph glyph-name="wacute" unicode="&#x1e83;" horiz-adv-x="1331" 
d="M815 1391h103l-226 -273h-71zM242 104l432 928h86l65 -928h6l394 928h86l-449 -1032h-100l-64 918h-8l-428 -918h-98l-45 1032h90l27 -928h6z" />
    <glyph glyph-name="Wdieresis" unicode="&#x1e84;" horiz-adv-x="1415" 
d="M1040 1649q53 0 54 -50q0 -33 -22 -52t-52 -19q-51 0 -51 51q0 31 20 51t51 19zM745 1649q51 0 52 -50q1 -33 -19 -52t-51 -19q-53 0 -53 51q0 31 20 51t51 19zM778 1362h68l49 -1239h4l463 1239h90l-526 -1362h-99l-51 1163h-6l-504 -1163h-98l27 1362h86l-37 -1239h4z
" />
    <glyph glyph-name="wdieresis" unicode="&#x1e85;" horiz-adv-x="1331" 
d="M934 1319q53 0 53 -49q1 -33 -21 -52t-53 -20q-51 0 -51 51q0 31 20 51t52 19zM639 1319q51 0 51 -49q0 -33 -19 -52t-50 -20q-53 0 -54 51q1 31 21 51t51 19zM242 104l432 928h86l65 -928h6l394 928h86l-449 -1032h-100l-64 918h-8l-428 -918h-98l-45 1032h90l27 -928h6
z" />
    <glyph glyph-name="Ygrave" unicode="&#x1ef2;" horiz-adv-x="917" 
d="M522 1720h101l92 -272h-68zM967 1362l-523 -903l-88 -459h-88l88 459l-170 903h90l142 -797h4l452 797h93z" />
    <glyph glyph-name="ygrave" unicode="&#x1ef3;" horiz-adv-x="788" 
d="M393 1391h101l92 -273h-68zM205 -25l-64 1057h88l41 -917h6l414 917h88l-538 -1157q-74 -155 -172 -229t-242 -74l14 76q205 0 324 235z" />
    <glyph glyph-name="endash" unicode="&#x2013;" horiz-adv-x="1034" 
d="M76 621l14 79h832l-15 -79h-831z" />
    <glyph glyph-name="emdash" unicode="&#x2014;" horiz-adv-x="2058" 
d="M76 621l14 79h1858l-17 -79h-1855z" />
    <glyph glyph-name="quoteleft" unicode="&#x2018;" horiz-adv-x="421" 
d="M193 1020l143 366h59l-108 -366h-94z" />
    <glyph glyph-name="quoteright" unicode="&#x2019;" horiz-adv-x="417" 
d="M399 1386l-143 -366h-57l106 366h94z" />
    <glyph glyph-name="quotesinglbase" unicode="&#x201a;" horiz-adv-x="419" 
d="M147 59l-139 -348h-61l106 348h94z" />
    <glyph glyph-name="quotedblleft" unicode="&#x201c;" horiz-adv-x="729" 
d="M500 1020l143 366h59l-110 -366h-92zM193 1020l143 366h59l-108 -366h-94z" />
    <glyph glyph-name="quotedblright" unicode="&#x201d;" horiz-adv-x="724" 
d="M707 1386l-144 -366h-59l110 366h93zM399 1386l-143 -366h-57l108 366h92z" />
    <glyph glyph-name="quotedblbase" unicode="&#x201e;" horiz-adv-x="727" 
d="M455 59l-142 -348h-59l106 348h95zM147 59l-139 -348h-61l106 348h94z" />
    <glyph glyph-name="dagger" unicode="&#x2020;" horiz-adv-x="858" 
d="M168 965l14 75h256l82 414h86l-80 -414h256l-14 -75h-258l-186 -965h-86l186 965h-256z" />
    <glyph glyph-name="daggerdbl" unicode="&#x2021;" horiz-adv-x="866" 
d="M174 965l14 75h258l80 414h86l-80 -414h256l-14 -75h-256l-92 -476h258l-14 -75h-258l-82 -414h-86l80 414h-256l14 75h258l90 476h-256z" />
    <glyph glyph-name="bullet" unicode="&#x2022;" horiz-adv-x="487" 
d="M215 543q-115 0 -115 113q0 56 44 98t98 41q54 0 85 -29q29 -29 29 -85t-43 -97t-98 -41z" />
    <glyph glyph-name="ellipsis" unicode="&#x2026;" horiz-adv-x="1261" 
d="M924 -10q-60 0 -60 58q0 28 23 50t55 21q55 0 55 -56q1 -33 -21 -53t-52 -20zM483 -10q-59 0 -59 58q0 28 22 50t52 21q59 0 59 -60q-1 -29 -23 -49t-51 -20zM-16 45q0 31 22 53t52 21q57 0 59 -56q0 -33 -23 -53t-55 -20q-55 0 -55 55z" />
    <glyph glyph-name="perthousand" unicode="&#x2030;" horiz-adv-x="2437" 
d="M2086 764q-76 0 -125 -53q-48 -53 -63 -133l-67 -351q-13 -74 11 -124t101 -50t125 50t60 120l72 363q16 78 -11 128t-103 50zM2277 582l-65 -351q-22 -111 -92 -177t-183 -66t-159 68t-25 182l66 333q23 119 92 189t181 70t160 -69q48 -68 25 -179zM1366 764
q-76 0 -124 -53t-62 -133l-68 -351q-14 -74 10 -124t102 -50q77 0 125 50t60 120l72 363q16 78 -11 128q-28 50 -104 50zM1559 582l-66 -351q-23 -111 -93 -177t-182 -66t-158 68t-26 182l66 333q23 119 92 189q70 70 182 70t160 -69q48 -68 25 -179zM1378 1362l-972 -1362
h-82l974 1362h80zM474 1317q-77 0 -125 -53t-62 -134l-68 -350q-13 -74 11 -124t101 -50t125 50t60 120l72 363q16 78 -10 128q-27 50 -104 50zM666 1135l-66 -351q-22 -112 -92 -178t-182 -66t-159 68q-46 68 -26 183l66 333q23 119 92 189q69 69 181 69t160 -68t26 -179z
" />
    <glyph glyph-name="guilsinglleft" unicode="&#x2039;" horiz-adv-x="606" 
d="M72 639l415 305l45 -59l-391 -289l281 -283l-68 -59l-297 307z" />
    <glyph glyph-name="guilsinglright" unicode="&#x203a;" horiz-adv-x="604" 
d="M489 637l-14 -80l-414 -305l-45 61l390 287l-277 283l64 59z" />
    <glyph glyph-name="fraction" unicode="&#x2044;" horiz-adv-x="280" 
d="M659 1362l-972 -1362h-82l975 1362h79z" />
    <glyph glyph-name="zerosuperior" unicode="&#x2070;" 
d="M474 1317q-77 0 -125 -53t-62 -134l-68 -350q-13 -74 11 -124t101 -50t125 50t60 120l72 363q16 78 -10 128q-27 50 -104 50zM666 1135l-66 -351q-22 -112 -92 -178t-182 -66t-159 68q-46 68 -26 183l66 333q23 119 92 189q69 69 181 69t160 -68t26 -179z" />
    <glyph glyph-name="foursuperior" unicode="&#x2074;" horiz-adv-x="720" 
d="M457 553l37 178h-400l17 88l446 551h86l-463 -571h324l33 166h73l-82 -412h-71z" />
    <glyph glyph-name="fivesuperior" unicode="&#x2075;" 
d="M450 1104q214 0 173 -215l-23 -117q-45 -231 -274 -231q-111 0 -160 59t-23 158h74l-2 -13q-23 -139 117 -139q156 0 186 152l23 123q12 69 -13 113t-94 44q-104 0 -168 -82h-84l80 414h445l-15 -65h-368l-58 -285q76 84 184 84z" />
    <glyph glyph-name="sixsuperior" unicode="&#x2076;" 
d="M330 606q154 0 182 150l18 92q12 61 -15 104q-29 43 -103 43t-122 -43t-61 -100l-16 -88q-11 -68 15 -113t102 -45zM478 1317q-75 0 -126 -51t-65 -127l-35 -170q59 88 190 88q98 1 142 -55t24 -158l-14 -70q-47 -233 -270 -233q-113 1 -160 65t-25 170l68 348
q20 115 94 187q73 71 183 71t158 -55t30 -149h-78q28 139 -116 139z" />
    <glyph glyph-name="sevensuperior" unicode="&#x2077;" 
d="M231 553h-90l506 752h-424l13 65h501l-16 -82z" />
    <glyph glyph-name="eightsuperior" unicode="&#x2078;" 
d="M473 1319q-76 0 -120 -36t-54 -87l-4 -29q-18 -88 119 -159q84 38 128 74t52 83l4 29q10 51 -19 88q-30 37 -106 37zM329 604q75 0 122 39t59 94l4 31q12 57 -16 96q-29 39 -99 76q-166 -76 -186 -182l-6 -27q-9 -53 19 -90t103 -37zM484 1382q110 0 159 -54t33 -134
l-6 -31q-12 -61 -62 -103t-145 -85q77 -43 109 -90t20 -121l-6 -31q-16 -86 -87 -139t-179 -53t-157 52q-48 52 -32 134l6 29q25 131 211 219q-152 86 -129 203l4 20q16 86 84 135q67 49 177 49z" />
    <glyph glyph-name="ninesuperior" unicode="&#x2079;" 
d="M477 1317q-76 0 -122 -44t-60 -112l-16 -82q-31 -152 110 -151q72 0 123 43t63 98l19 98q12 63 -14 107q-27 43 -103 43zM326 606q158 0 192 168l35 180q-74 -88 -193 -88q-203 0 -161 205l14 78q20 105 90 169q69 64 181 64t160 -62t26 -167l-70 -369q-24 -117 -96 -180
t-182 -63t-158 54q-49 54 -29 150h78q-28 -139 113 -139z" />
    <glyph glyph-name="zeroinferior" unicode="&#x2080;" 
d="M368 764q-76 0 -125 -53q-48 -53 -63 -133l-67 -351q-13 -74 11 -124t100 -50t126 50q48 50 60 120l71 363q16 78 -10 128q-27 50 -103 50zM559 582l-65 -351q-23 -111 -93 -177q-71 -66 -183 -66t-158 68t-25 182l65 333q23 119 93 189q69 70 181 70t160 -69
q48 -68 25 -179z" />
    <glyph glyph-name="oneinferior" unicode="&#x2081;" 
d="M340 0h-78l144 739l-271 -129l-31 64l299 143h97z" />
    <glyph glyph-name="twoinferior" unicode="&#x2082;" 
d="M382 829q116 0 162 -55t29 -141q-12 -88 -68 -158t-177 -180l-248 -229h385l-12 -66h-471l16 78l250 233q129 117 182 178t66 136q27 139 -123 139q-84 0 -131 -37t-56 -90l-4 -14h-78q16 95 88 150q74 56 190 56z" />
    <glyph glyph-name="threeinferior" unicode="&#x2083;" 
d="M360 764q-78 0 -125 -40t-57 -108h-78l4 13q16 92 86 146t182 54t162 -52t31 -140l-6 -31q-27 -137 -166 -170v-4q127 -31 99 -174l-11 -55q-20 -103 -92 -159t-182 -56t-159 52q-48 52 -30 144l5 21h75l-4 -23q-12 -55 16 -92t106 -37t126 43q49 43 61 111l11 53
q12 63 -19 100t-104 37h-74l10 66h72q76 0 123 36t57 93l8 45q10 55 -19 91q-30 36 -108 36z" />
    <glyph glyph-name="fourinferior" unicode="&#x2084;" horiz-adv-x="720" 
d="M350 0l37 178h-399l16 88l447 551h86l-463 -571h323l33 166h74l-82 -412h-72z" />
    <glyph glyph-name="fiveinferior" unicode="&#x2085;" 
d="M343 551q216 0 173 -215l-22 -117q-45 -231 -275 -231q-111 0 -160 58t-22 159h74l-2 -12q-23 -139 116 -140q156 0 187 152l22 123q12 70 -12 114t-94 43q-104 0 -168 -82h-84l80 414h444l-14 -65h-369l-57 -285q76 84 183 84z" />
    <glyph glyph-name="sixinferior" unicode="&#x2086;" 
d="M223 53q154 0 183 150l18 92q12 61 -15 104q-28 43 -103 43t-123 -43t-60 -100l-17 -88q-12 -68 14 -113t103 -45zM336 504q98 0 142 -55t24 -158l-15 -70q-47 -233 -270 -233q-113 0 -160 64t-24 171l67 348q20 115 94 187t184 72t158 -55q49 -54 29 -150h-78
q29 139 -115 139q-74 0 -126 -51q-51 -51 -66 -127l-35 -170q59 88 191 88z" />
    <glyph glyph-name="seveninferior" unicode="&#x2087;" 
d="M125 0h-90l506 752h-424l12 65h502l-17 -82z" />
    <glyph glyph-name="eightinferior" unicode="&#x2088;" 
d="M366 766q-76 0 -119 -36q-44 -36 -54 -87l-5 -29q-18 -88 119 -159q84 39 128 75t52 82l5 29q10 51 -20 88t-106 37zM222 51q74 0 122 39q47 39 59 94l5 31q12 57 -17 96t-98 76q-167 -76 -187 -182l-6 -27q-10 -53 19 -90t103 -37zM378 829q110 0 159 -54t32 -134
l-6 -31q-12 -61 -62 -103t-145 -85q76 -43 109 -90t20 -121l-6 -31q-16 -86 -87 -139q-72 -53 -180 -53t-156 52t-31 134l6 29q25 131 211 219q-152 86 -129 203l4 20q16 86 84 135q67 49 177 49z" />
    <glyph glyph-name="nineinferior" unicode="&#x2089;" 
d="M371 764q-76 0 -122 -44t-61 -112l-16 -82q-31 -152 111 -151q72 0 123 43t63 98l18 98q12 62 -14 106t-102 44zM254 313q-203 0 -162 205l14 78q20 106 90 170t182 63q112 0 160 -62t25 -167l-69 -369q-23 -117 -96 -180t-182 -63t-157 53t-30 152h77q-25 -140 113 -140
q158 0 193 168l34 180q-74 -88 -192 -88z" />
    <glyph glyph-name="Euro" unicode="&#x20ac;" horiz-adv-x="1044" 
d="M691 1382q163 0 232 -97t40 -238l-2 -13h-87l5 23q20 90 -22 170t-172 80t-207 -85t-103 -221l-35 -186h477l-12 -61h-477l-29 -148h477l-12 -61h-477l-39 -197q-25 -129 17 -211t171 -82t204 76t93 174l4 23h86q-73 -348 -399 -348q-166 0 -230 102t-28 289l33 174h-140
l13 61h141l29 148h-144l13 61h143l33 178q35 185 138 287t266 102z" />
    <glyph glyph-name="uni2113" unicode="&#x2113;" horiz-adv-x="1171" 
d="M1087 1384q-182 0 -451 -257t-364 -564q362 172 627 386q264 214 264 360q0 75 -76 75zM236 332q0 -131 55 -207t157 -76t217 51q114 51 207 131l43 -49q-236 -203 -479 -202q-137 0 -208 87t-70 242q0 70 12 140q-88 -37 -211 -82l-14 61q109 37 239 94q57 232 217 452
t355 351t356 131q63 0 98 -35t35 -90q0 -180 -278 -415q-279 -234 -715 -431q-16 -81 -16 -153z" />
    <glyph glyph-name="trademark" unicode="&#x2122;" horiz-adv-x="1208" 
d="M614 858h-63l98 504h99l90 -365h8l229 365h103l-99 -504h-61l86 445h-6l-246 -383h-49l-96 383h-7zM297 858h-64l86 449h-155l12 55h377l-10 -55h-160z" />
    <glyph glyph-name="Omega" unicode="&#x2126;" horiz-adv-x="989" 
d="M599 1307q-130 0 -206 -87t-102 -223l-123 -635q-41 -213 113 -278l-15 -84h-258l15 74h176q-156 92 -117 299l117 612q37 189 139 293t267 104t233 -104q67 -105 30 -295l-116 -604q-41 -215 -240 -305h178l-14 -74h-258l16 82q186 80 228 285l120 630q25 133 -14 221
t-169 89z" />
    <glyph glyph-name="estimated" unicode="&#x212e;" horiz-adv-x="1705" 
d="M1348 666v364q0 25 -19 43q-188 189 -448 189t-449 -195q-18 -18 -18 -45v-356q0 -10 10 -11h915q9 1 9 11zM1618 618h-1194q-10 0 -10 -8v-360q0 -25 16 -41q186 -197 461 -197t467 219h106q-102 -119 -256 -189t-327 -69q-305 0 -522 195q-216 195 -216 469t216 469
q215 194 521 194t522 -194t216 -469v-19z" />
    <glyph glyph-name="onethird" unicode="&#x2153;" horiz-adv-x="1718" 
d="M1360 764q-78 0 -125 -39t-57 -109h-78l4 13q16 92 86 146t182 54t161 -52q50 -52 32 -140l-6 -31q-27 -137 -166 -170v-4q127 -31 98 -174l-10 -55q-20 -103 -92 -159q-73 -56 -183 -56t-158 52t-30 144l4 21h76l-4 -23q-12 -55 16 -92t104 -37q78 0 127 43t62 111
l10 53q12 63 -18 100q-31 37 -105 37h-73l10 66h71q76 0 124 36t57 93l8 45q10 55 -20 91q-29 36 -107 36zM1358 1362l-973 -1362h-82l975 1362h80zM446 553h-77l143 739l-270 -129l-31 64l299 143h96z" />
    <glyph glyph-name="twothirds" unicode="&#x2154;" horiz-adv-x="1718" 
d="M1360 764q-78 0 -125 -39t-57 -109h-78l4 13q16 92 86 146t182 54t161 -52q50 -52 32 -140l-6 -31q-27 -137 -166 -170v-4q127 -31 98 -174l-10 -55q-20 -103 -92 -159q-73 -56 -183 -56t-158 52t-30 144l4 21h76l-4 -23q-12 -55 16 -92t104 -37q78 0 127 43t62 111
l10 53q12 63 -18 100q-31 37 -105 37h-73l10 66h71q76 0 124 36t57 93l8 45q10 55 -20 91q-29 36 -107 36zM1378 1362l-972 -1362h-82l974 1362h80zM488 1382q116 0 162 -55t30 -141q-12 -88 -68 -158q-57 -70 -178 -180l-248 -230h385l-12 -65h-471l16 78l250 233
q129 117 182 177q52 60 66 137q27 139 -123 139q-84 0 -131 -37t-55 -90l-4 -14h-78q16 95 88 150q73 56 189 56z" />
    <glyph glyph-name="oneeighth" unicode="&#x215b;" horiz-adv-x="1718" 
d="M1366 766q-76 0 -120 -36t-54 -87l-4 -29q-18 -88 119 -159q84 39 128 75t52 82l4 29q10 51 -20 88q-29 37 -105 37zM1222 51q76 0 122 39t59 94l4 31q12 57 -16 96q-29 39 -99 76q-166 -76 -186 -182l-6 -27q-10 -53 18 -90t104 -37zM1378 829q110 0 158 -54
q49 -54 33 -134l-6 -31q-13 -61 -63 -103t-144 -85q76 -43 108 -90t21 -121l-6 -31q-16 -86 -87 -139t-180 -53q-108 0 -156 52t-32 134l6 29q25 131 211 219q-152 86 -129 203l4 20q16 86 84 135t178 49zM1358 1362l-973 -1362h-82l975 1362h80zM446 553h-77l143 739
l-270 -129l-31 64l299 143h96z" />
    <glyph glyph-name="threeeighths" unicode="&#x215c;" horiz-adv-x="1718" 
d="M1366 766q-76 0 -120 -36t-54 -87l-4 -29q-18 -88 119 -159q84 39 128 75t52 82l4 29q10 51 -20 88q-29 37 -105 37zM1222 51q76 0 122 39t59 94l4 31q12 57 -16 96q-29 39 -99 76q-166 -76 -186 -182l-6 -27q-10 -53 18 -90t104 -37zM1378 829q110 0 158 -54
q49 -54 33 -134l-6 -31q-13 -61 -63 -103t-144 -85q76 -43 108 -90t21 -121l-6 -31q-16 -86 -87 -139t-180 -53q-108 0 -156 52t-32 134l6 29q25 131 211 219q-152 86 -129 203l4 20q16 86 84 135t178 49zM1378 1362l-972 -1362h-82l974 1362h80zM466 1317q-78 0 -124 -39
q-47 -39 -57 -109h-78l4 13q16 92 86 146q69 54 181 54t162 -52t32 -140l-6 -31q-27 -137 -166 -170v-4q127 -31 98 -174l-10 -55q-20 -102 -92 -158t-182 -57q-110 0 -159 52q-48 52 -30 144l4 21h76l-4 -23q-13 -55 15 -92t106 -37t127 43t61 111l10 53q12 63 -18 100
q-31 37 -105 37h-73l10 66h72q76 0 123 36t57 93l8 45q10 55 -20 91t-108 36z" />
    <glyph glyph-name="fiveeighths" unicode="&#x215d;" horiz-adv-x="1718" 
d="M1366 766q-76 0 -120 -36t-54 -87l-4 -29q-18 -88 119 -159q84 39 128 75t52 82l4 29q10 51 -20 88q-29 37 -105 37zM1222 51q76 0 122 39t59 94l4 31q12 57 -16 96q-29 39 -99 76q-166 -76 -186 -182l-6 -27q-10 -53 18 -90t104 -37zM1378 829q110 0 158 -54
q49 -54 33 -134l-6 -31q-13 -61 -63 -103t-144 -85q76 -43 108 -90t21 -121l-6 -31q-16 -86 -87 -139t-180 -53q-108 0 -156 52t-32 134l6 29q25 131 211 219q-152 86 -129 203l4 20q16 86 84 135t178 49zM1378 1362l-972 -1362h-82l974 1362h80zM450 1104q214 0 173 -215
l-23 -117q-45 -231 -274 -231q-111 0 -160 59t-23 158h74l-2 -13q-23 -139 117 -139q156 0 186 152l23 123q12 69 -13 113t-94 44q-104 0 -168 -82h-84l80 414h445l-15 -65h-368l-58 -285q76 84 184 84z" />
    <glyph glyph-name="seveneighths" unicode="&#x215e;" horiz-adv-x="1718" 
d="M1366 766q-76 0 -120 -36t-54 -87l-4 -29q-18 -88 119 -159q84 39 128 75t52 82l4 29q10 51 -20 88q-29 37 -105 37zM1222 51q76 0 122 39t59 94l4 31q12 57 -16 96q-29 39 -99 76q-166 -76 -186 -182l-6 -27q-10 -53 18 -90t104 -37zM1378 829q110 0 158 -54
q49 -54 33 -134l-6 -31q-13 -61 -63 -103t-144 -85q76 -43 108 -90t21 -121l-6 -31q-16 -86 -87 -139t-180 -53q-108 0 -156 52t-32 134l6 29q25 131 211 219q-152 86 -129 203l4 20q16 86 84 135t178 49zM1317 1362l-973 -1362h-82l975 1362h80zM231 553h-90l506 752h-424
l13 65h501l-16 -82z" />
    <glyph glyph-name="partialdiff" unicode="&#x2202;" horiz-adv-x="991" 
d="M338 55q96 0 184 90q164 168 226 486q-31 59 -99 95t-139 36q-160 0 -256 -120t-96 -354t180 -233zM574 1382q150 0 223 -112q125 -188 41 -603t-270 -587q-108 -100 -234 -100t-194 76q-69 76 -68 235q0 245 116 395t318 150q162 0 256 -121q23 111 24 213
q12 381 -227 381q-104 0 -173 -68t-83 -178h-84q64 319 355 319z" />
    <glyph glyph-name="Delta" unicode="&#x2206;" horiz-adv-x="933" 
d="M-25 92l580 1270h82l84 -1272l-19 -90h-743zM49 74h590l-64 1171z" />
    <glyph glyph-name="product" unicode="&#x220f;" horiz-adv-x="1220" 
d="M1018 1288l-283 -1452h-88l283 1452h-438l-283 -1452h-86l280 1452h-192l14 74h1000l-15 -74h-192z" />
    <glyph glyph-name="summation" unicode="&#x2211;" horiz-adv-x="821" 
d="M41 -90h528l-14 -74h-610l18 101l522 665l-264 660l21 100h610l-14 -74h-533l258 -651l-12 -80z" />
    <glyph glyph-name="minus" unicode="&#x2212;" horiz-adv-x="786" 
d="M121 580l16 77h488l-17 -77h-487z" />
    <glyph glyph-name="uni2215" unicode="&#x2215;" horiz-adv-x="280" 
d="M653 1362l-972 -1362h-82l974 1362h80z" />
    <glyph glyph-name="radical" unicode="&#x221a;" horiz-adv-x="966" 
d="M414 0h-90l-121 598l-133 -39l-13 68l211 61l109 -596l530 1270h80z" />
    <glyph glyph-name="infinity" unicode="&#x221e;" horiz-adv-x="1224" 
d="M782 549h29q55 0 98 43q43 42 43 102t-26 88t-64 27h-28q-94 0 -224 -129q47 -76 84 -104t88 -27zM276 551h29q53 0 101 27t120 102q-45 74 -84 102t-88 27h-28q-56 0 -98 -42q-42 -43 -42 -103q0 -114 90 -113zM862 868q158 0 158 -167q0 -91 -64 -150t-157 -59h-39
q-57 0 -102 31q-44 32 -97 108q-82 -76 -138 -108t-112 -31h-37q-70 0 -114 38t-43 128q0 92 63 151t158 59h45q53 0 98 -32t97 -109q150 141 247 141h37z" />
    <glyph glyph-name="integral" unicode="&#x222b;" horiz-adv-x="724" 
d="M762 1382l-12 -71q-125 0 -193 -78t-88 -184l-139 -721q-35 -176 -125 -262t-260 -86l14 71q227 0 279 258l141 723q68 350 383 350z" />
    <glyph glyph-name="approxequal" unicode="&#x2248;" horiz-adv-x="786" 
d="M440 637q-47 0 -81 30q-33 31 -63 61t-65 30q-74 0 -96 -121h-74q41 201 175 201q61 0 119 -69q11 -13 15 -17t22 -20q17 -16 50 -17q72 0 95 123h73q-39 -201 -170 -201zM395 385q-47 0 -81 31q-34 30 -64 60t-64 30q-74 0 -96 -121h-74q41 201 174 201q62 0 120 -69
q12 -13 16 -17t21 -20t50 -17q72 0 95 123h73q-39 -201 -170 -201z" />
    <glyph glyph-name="notequal" unicode="&#x2260;" horiz-adv-x="786" 
d="M119 692l16 78h262l113 188h76l-113 -188h150l-17 -78h-176l-88 -147h236l-15 -78h-264l-111 -188h-75l112 188h-149l14 78h176l88 147h-235z" />
    <glyph glyph-name="lessequal" unicode="&#x2264;" horiz-adv-x="786" 
d="M53 362l17 78h487l-16 -78h-488zM119 694l14 74l520 168l-16 -82l-422 -123l373 -123l-17 -82z" />
    <glyph glyph-name="greaterequal" unicode="&#x2265;" horiz-adv-x="786" 
d="M78 362l14 78h488l-15 -78h-487zM643 768l-14 -74l-518 -168l16 82l422 123l-375 123l16 82z" />
    <glyph glyph-name="lozenge" unicode="&#x25ca;" horiz-adv-x="849" 
d="M102 680l381 573h84l164 -573l-387 -574h-82zM186 680l129 -500l332 500l-131 500z" />
    <glyph glyph-name="heart" unicode="&#x2665;" horiz-adv-x="1232" 
d="M825 1024q87 0 145 -60t58 -155q0 -129 -112 -283t-300 -250q-188 96 -300 250t-111 283q0 95 57 155t146 60q128 0 200 -133h17q72 133 200 133z" />
    <glyph glyph-name="zeroslash" unicode="&#xe01a;" horiz-adv-x="980" 
d="M358 55q121 0 197 87q75 87 100 218l123 637q18 94 6 164l-596 -1038q49 -68 170 -68zM587 1307q-122 0 -199 -87q-76 -88 -101 -223l-125 -637q-20 -113 0 -182l596 1049q-49 80 -171 80zM336 -20q-166 0 -230 104q-63 104 -26 295l115 606q37 189 139 293t267 104
t232 -104q66 -105 29 -295l-117 -606q-78 -397 -409 -397z" />
    <glyph glyph-name="numbersign.plf" unicode="&#xe020;" horiz-adv-x="1243" 
d="M543 924l-242 -465h383l240 465h-381zM289 924l12 67h199l192 371h78l-192 -371h383l192 371h76l-193 -371h176l-10 -67h-201l-239 -465h170l-10 -68h-197l-203 -391h-78l203 391h-381l-205 -391h-77l204 391h-182l12 68h205l242 465h-176z" />
    <glyph glyph-name="Euro.plf" unicode="&#xe021;" horiz-adv-x="1044" 
d="M691 1382q163 0 232 -97t40 -238l-2 -13h-87l5 23q20 90 -22 170t-172 80t-207 -85t-103 -221l-35 -186h477l-12 -61h-477l-29 -148h477l-12 -61h-477l-39 -197q-25 -129 17 -211t171 -82t204 76t93 174l4 23h86q-73 -348 -399 -348q-166 0 -230 102t-28 289l33 174h-140
l13 61h141l29 148h-144l13 61h143l33 178q35 185 138 287t266 102z" />
    <glyph glyph-name="dollar.plf" unicode="&#xe022;" horiz-adv-x="925" 
d="M584 1309q-112 -1 -191 -61q-78 -60 -96 -152l-10 -56q-17 -82 21 -138t170 -138t193 -166q62 -84 38 -221l-19 -101q-26 -126 -112 -204t-222 -86l-22 -119h-88l24 119q-131 8 -187 83t-30 212l6 32h86l-4 -22q-47 -238 183 -238q108 -1 184 61t94 158l16 90
q23 111 -24 178q-46 67 -160 142q-114 74 -158 114q-105 93 -79 232l12 64q23 118 107 196t225 90l22 117h86l-22 -117q129 -10 187 -87t32 -212l-6 -30h-86l6 32q20 98 -22 163t-154 65z" />
    <glyph glyph-name="yen.plf" unicode="&#xe023;" horiz-adv-x="1024" 
d="M133 612l12 64h285l-190 686h92l168 -660h6l422 660h92l-453 -686h283l-12 -64h-312l-26 -145h309l-12 -64h-310l-79 -403h-86l77 403h-307l12 64h308l28 145h-307z" />
    <glyph glyph-name="sterling.plf" unicode="&#xe024;" horiz-adv-x="1030" 
d="M699 1382q161 0 229 -90t39 -233l-6 -31h-87l7 33q20 104 -22 175t-169 71t-208 -88t-105 -222l-78 -415h434l-14 -74h-436l-84 -432h581l-12 -76h-791l15 76h119l86 432h-121l14 74h119l82 413q35 179 141 283t267 104z" />
    <glyph glyph-name="cent.plf" unicode="&#xe025;" horiz-adv-x="894" 
d="M508 981q-127 0 -192 -100t-95 -258l-61 -318q-23 -109 18 -181t149 -71q108 0 177 77t90 196h86q-28 -153 -115 -243q-88 -91 -211 -99l-24 -125h-86l24 127q-123 14 -171 102t-23 221l63 324q74 395 338 416l23 125h88l-25 -127q121 -9 171 -101t26 -219l-4 -22h-86
l4 24q6 55 3 111t-46 98q-43 43 -121 43z" />
    <glyph glyph-name="zero.plf" unicode="&#xe027;" horiz-adv-x="980" 
d="M595 1307q-130 0 -207 -87t-101 -223l-125 -639q-27 -133 14 -218t172 -85t207 87q75 87 100 218l123 637q27 133 -13 221t-170 89zM336 -20q-166 0 -231 104t-27 295l117 606q37 189 139 293t267 104t232 -104q66 -105 29 -295l-117 -606q-78 -397 -409 -397z" />
    <glyph glyph-name="one.plf" unicode="&#xe028;" horiz-adv-x="708" 
d="M371 0h-88l249 1278l-346 -205l-41 66l381 223h109z" />
    <glyph glyph-name="two.plf" unicode="&#xe029;" horiz-adv-x="917" 
d="M584 1382q162 0 228 -90t40 -231l-8 -43q-20 -113 -93 -215t-227 -264l-440 -465h575l-14 -74h-668l19 92l426 453q178 190 248 285t88 192l6 33q24 109 -24 181t-169 71q-121 0 -201 -77t-102 -186l-4 -24h-88q35 176 141 269q105 93 267 93z" />
    <glyph glyph-name="three.plf" unicode="&#xe02a;" horiz-adv-x="937" 
d="M562 1307q-126 0 -204 -79t-98 -200h-86l4 25q27 145 129 237q101 92 267 92t232 -87t40 -234l-10 -51q-43 -229 -265 -285l-2 -6q201 -51 154 -285l-21 -108q-33 -166 -135 -256t-265 -90q-162 0 -228 92t-37 241l4 21h86l-4 -21q-21 -102 21 -180t170 -78t204 81
t96 194l21 104q20 108 -26 178t-160 70h-101l14 78h95q113 0 191 72t97 167l11 54q24 106 -22 180t-172 74z" />
    <glyph glyph-name="four.plf" unicode="&#xe02b;" horiz-adv-x="872" 
d="M504 0l61 317h-567l20 99l713 946h96l-729 -969h482l57 291h86l-133 -684h-86z" />
    <glyph glyph-name="five.plf" unicode="&#xe02c;" horiz-adv-x="972" 
d="M553 932q143 0 205 -91t30 -257l-47 -242q-70 -362 -407 -362q-162 0 -226 97t-32 261h88l-4 -21q-23 -111 17 -187t167 -75q256 0 311 285l50 254q23 112 -21 186t-158 74q-160 0 -284 -166h-101l133 674h658l-14 -76h-572l-98 -506q133 152 305 152z" />
    <glyph glyph-name="six.plf" unicode="&#xe02d;" horiz-adv-x="976" 
d="M345 55q124 0 204 83t106 218l31 158q22 123 -28 192q-50 68 -166 68t-198 -77q-81 -77 -99 -181l-35 -174q-25 -125 18 -206t167 -81zM602 1307q-131 0 -209 -85t-102 -210l-64 -320q43 68 124 112t177 44q147 0 212 -88t34 -242l-31 -151q-37 -183 -138 -285t-267 -102
t-230 105t-30 288l119 612q35 180 138 289q103 108 268 108t234 -97t33 -253h-86q33 155 -53 233q-47 42 -129 42z" />
    <glyph glyph-name="seven.plf" unicode="&#xe02e;" horiz-adv-x="829" 
d="M117 0h-97l760 1286h-616l12 76h698l-18 -96z" />
    <glyph glyph-name="eight.plf" unicode="&#xe02f;" horiz-adv-x="970" 
d="M592 1307q-121 0 -197 -70t-94 -160l-8 -43q-15 -84 29 -144t165 -140q147 84 215 145t84 139l9 43q16 90 -33 160t-170 70zM352 55q127 0 199 70t92 174l10 53q18 100 -27 173q-46 73 -155 143q-149 -84 -223 -156t-90 -172l-8 -45q-18 -98 28 -169t174 -71zM339 -20
q-163 0 -234 87t-44 226l7 35q18 124 95 204t249 177q-131 92 -179 162q-47 71 -26 171l6 31q29 135 130 222t260 87t231 -87t47 -218l-7 -33q-16 -98 -90 -171t-235 -162q113 -76 163 -160t27 -199l-10 -53q-29 -151 -128 -235t-262 -84z" />
    <glyph glyph-name="nine.plf" unicode="&#xe030;" horiz-adv-x="983" 
d="M597 1307q-130 0 -206 -85t-102 -223l-29 -147q-47 -262 184 -262q123 0 207 81t109 206l24 133q25 125 -16 211t-171 86zM350 55q129 0 206 87t101 214l60 310q-113 -152 -305 -152q-147 0 -208 89q-60 89 -28 259l25 129q37 187 139 289t271 102t231 -111
q61 -112 22 -296l-112 -590q-40 -207 -142 -306t-267 -99t-233 92t-38 237l2 13h86q-22 -122 19 -194q42 -73 171 -73z" />
    <glyph glyph-name="zeroslash.plf" unicode="&#xe031;" horiz-adv-x="980" 
d="M358 55q121 0 197 87q75 87 100 218l123 637q18 94 6 164l-596 -1038q49 -68 170 -68zM587 1307q-122 0 -199 -87q-76 -88 -101 -223l-125 -637q-20 -113 0 -182l596 1049q-49 80 -171 80zM336 -20q-166 0 -230 104q-63 104 -26 295l115 606q37 189 139 293t267 104
t232 -104q66 -105 29 -295l-117 -606q-78 -397 -409 -397z" />
    <glyph glyph-name="numbersign.tlf" unicode="&#xe032;" horiz-adv-x="983" 
d="M354 924l-155 -465h385l153 465h-383zM-39 391v68h164l156 465h-154v67h176l125 371h74l-125 -371h383l125 371h73l-124 -371h143v-67h-166l-154 -465h162v-68h-184l-131 -391h-74l131 391h-385l-131 -391h-74l131 391h-141z" />
    <glyph glyph-name="Euro.tlf" unicode="&#xe033;" horiz-adv-x="978" 
d="M644 1382q163 0 232 -97t39 -238l-2 -13h-86l4 23q20 90 -21 170q-42 80 -172 80t-207 -85t-103 -221l-35 -186h477l-12 -61h-477l-29 -148h477l-12 -61h-477l-39 -197q-25 -129 17 -211t171 -82t204 76t93 174l4 23h86q-73 -348 -399 -348q-166 0 -231 102t-27 289
l33 174h-140l13 61h141l29 148h-144l12 61h144l33 178q35 185 138 287t266 102z" />
    <glyph glyph-name="dollar.tlf" unicode="&#xe034;" horiz-adv-x="978" 
d="M586 1309q-112 -1 -191 -61q-78 -60 -96 -152l-10 -56q-17 -82 21 -138t170 -138t193 -166q62 -84 38 -221l-19 -101q-26 -126 -112 -204t-222 -86l-22 -119h-88l24 119q-131 8 -187 83t-30 212l6 32h86l-4 -22q-47 -238 183 -238q108 -1 184 61t94 158l17 90
q23 111 -25 178t-160 142q-114 74 -158 114q-105 94 -79 232l12 64q23 118 107 196t225 90l22 117h86l-22 -117q129 -10 187 -87t32 -212l-6 -30h-86l6 32q20 98 -22 163t-154 65z" />
    <glyph glyph-name="yen.tlf" unicode="&#xe035;" horiz-adv-x="978" 
d="M84 612l12 64h285l-191 686h93l168 -660h6l422 660h92l-453 -686h283l-13 -64h-311l-26 -145h309l-12 -64h-310l-80 -403h-86l78 403h-307l12 64h307l29 145h-307z" />
    <glyph glyph-name="sterling.tlf" unicode="&#xe036;" horiz-adv-x="978" 
d="M656 1382q161 0 229 -90t39 -233l-6 -31h-87l7 33q20 104 -22 175t-169 71t-208 -88t-105 -222l-78 -415h434l-14 -74h-436l-84 -432h581l-12 -76h-791l15 76h119l86 432h-121l14 74h119l82 413q35 179 141 283t267 104z" />
    <glyph glyph-name="cent.tlf" unicode="&#xe037;" horiz-adv-x="978" 
d="M539 981q-127 0 -192 -100t-95 -258l-62 -318q-24 -109 18 -181t150 -71q108 0 176 77q69 77 91 196h86q-28 -153 -115 -243q-88 -91 -211 -99l-25 -125h-86l25 127q-123 14 -171 102t-24 221l64 324q74 395 338 416l22 125h88l-24 -127q121 -9 171 -101t25 -219l-4 -22
h-86l4 24q6 55 4 111t-46 98q-44 43 -121 43z" />
    <glyph glyph-name="zero.tlf" unicode="&#xe039;" horiz-adv-x="978" 
d="M589 1307q-130 0 -207 -87t-101 -223l-125 -637q-27 -133 14 -219t172 -86t207 87q75 87 100 218l123 637q27 133 -13 221t-170 89zM330 -20q-166 0 -230 104q-63 104 -26 295l114 606q38 189 140 293t267 104t231 -104t30 -295l-117 -606q-78 -397 -409 -397z" />
    <glyph glyph-name="one.tlf" unicode="&#xe03a;" horiz-adv-x="978" 
d="M518 0h-88l250 1278l-377 -215l-41 65l410 234h110z" />
    <glyph glyph-name="two.tlf" unicode="&#xe03b;" horiz-adv-x="978" 
d="M597 1382q161 0 227 -90t40 -231l-8 -43q-20 -113 -93 -215t-226 -264l-441 -465h576l-15 -74h-667l18 92l426 453q178 190 248 285t88 192l6 33q23 109 -24 181t-168 71q-121 0 -201 -77t-102 -186l-5 -24h-88l5 20q31 156 137 249t267 93z" />
    <glyph glyph-name="three.tlf" unicode="&#xe03c;" horiz-adv-x="978" 
d="M579 1307q-126 0 -204 -79t-96 -188l-3 -12h-86l5 25q27 145 129 237t267 92t231 -87t40 -234l-10 -51q-43 -229 -264 -285l-2 -6q201 -51 153 -285l-20 -108q-33 -166 -135 -256t-266 -90t-228 92q-66 92 -37 241l4 21h86l-4 -21q-20 -102 22 -180t170 -78t204 81
t96 194l20 104q21 108 -25 178t-161 70h-100l14 78h94q113 0 192 72t97 167l10 54q23 106 -22 180t-171 74z" />
    <glyph glyph-name="four.tlf" unicode="&#xe03d;" horiz-adv-x="978" 
d="M545 0l61 317h-567l20 99l713 946h96l-729 -969h482l57 291h86l-133 -684h-86z" />
    <glyph glyph-name="five.tlf" unicode="&#xe03e;" horiz-adv-x="978" 
d="M549 932q143 0 205 -91t30 -257l-47 -242q-70 -362 -407 -362q-162 0 -227 96t-31 262h88l-4 -21q-23 -111 17 -187t167 -75q256 0 311 285l49 254q23 112 -20 186t-158 74q-160 0 -284 -166h-101l133 674h658l-15 -76h-571l-98 -506q133 152 305 152z" />
    <glyph glyph-name="six.tlf" unicode="&#xe03f;" horiz-adv-x="978" 
d="M347 55q124 0 204 83t106 218l31 158q22 123 -28 192q-50 68 -166 68t-198 -77q-81 -77 -99 -181l-35 -174q-25 -125 18 -206t167 -81zM604 1307q-131 0 -209 -85t-102 -210l-64 -320q43 68 124 112t177 44q147 0 212 -88t34 -242l-31 -151q-37 -183 -138 -285t-267 -102
t-230 105t-30 288l119 612q35 180 138 289q103 108 268 108t238 -101t29 -249h-86q40 150 -53 233q-47 42 -129 42z" />
    <glyph glyph-name="seven.tlf" unicode="&#xe040;" horiz-adv-x="978" 
d="M168 0h-96l759 1286h-616l12 76h699l-19 -96z" />
    <glyph glyph-name="eight.tlf" unicode="&#xe041;" horiz-adv-x="978" 
d="M584 1307q-121 0 -197 -70t-94 -160l-8 -43q-15 -84 29 -144t165 -140q147 84 215 145t84 139l8 43q16 90 -32 160q-49 70 -170 70zM344 55q127 0 199 70t92 174l10 53q18 100 -28 173t-154 143q-149 -84 -223 -156t-90 -172l-9 -45q-18 -98 29 -169t174 -71zM331 -20
q-163 0 -234 87t-44 226l6 35q17 124 95 204t249 177q-131 93 -178 163t-26 170l6 31q29 135 130 222t260 87t231 -87t46 -218l-6 -33q-16 -98 -90 -171t-235 -162q113 -76 163 -160t27 -199l-10 -53q-29 -151 -128 -235t-262 -84z" />
    <glyph glyph-name="nine.tlf" unicode="&#xe042;" horiz-adv-x="978" 
d="M576 1307q-130 0 -206 -85t-102 -223l-28 -147q-47 -262 184 -262q123 0 207 81t108 206l25 133q25 125 -16 211q-42 86 -172 86zM330 55q129 0 206 87t101 214l59 310q-113 -152 -305 -152q-147 0 -208 89q-60 89 -27 259l24 129q37 187 139 289q101 102 271 102
t231 -112t23 -295l-113 -590q-41 -207 -142 -306t-267 -99t-234 92t-37 237l2 13h86q-49 -267 191 -267z" />
    <glyph glyph-name="zeroslash.tlf" unicode="&#xe043;" horiz-adv-x="978" 
d="M352 55q121 0 197 87q75 87 100 218l123 637q18 94 6 164l-596 -1038q49 -68 170 -68zM581 1307q-122 0 -199 -87q-76 -88 -101 -223l-125 -637q-20 -113 0 -182l596 1049q-49 80 -171 80zM330 -20q-166 0 -230 104q-63 104 -26 295l114 606q38 189 140 293t267 104
t231 -104t30 -295l-117 -606q-78 -397 -409 -397z" />
    <glyph glyph-name="numbersign.tosf" unicode="&#xe044;" horiz-adv-x="978" 
d="M332 672l-148 -312h301l146 312h-299zM96 672l13 69h178l137 291h72l-136 -291h302l135 291h73l-135 -291h160l-12 -69h-178l-146 -312h160l-10 -69h-181l-135 -291h-74l136 291h-299l-136 -291h-73l135 291h-162l10 69h181l147 312h-162z" />
    <glyph glyph-name="Euro.tosf" unicode="&#xe045;" horiz-adv-x="978" 
d="M559 979q-127 0 -204 -85t-99 -206l-10 -49h413l-12 -51h-411l-27 -144h409l-8 -51h-413l-11 -55q-24 -117 20 -201t172 -84t201 68t89 160l4 20h88q-25 -150 -126 -236q-101 -85 -265 -85t-233 101t-36 263l11 49h-138l9 51h139l29 144h-140l8 51h140l10 49
q29 162 132 263t265 101t233 -85q71 -86 46 -236h-86l4 21q14 86 -31 156t-172 71z" />
    <glyph glyph-name="dollar.tosf" unicode="&#xe046;" horiz-adv-x="978" 
d="M582 291q0 70 -43 116q-43 45 -160 111t-165 115t-48 143t81 177t226 94l23 114h82l-21 -114q246 -27 199 -293l-4 -21h-86l4 21q45 227 -170 227q-120 0 -184 -61t-64 -126t21 -95t76 -67q56 -37 110 -63q111 -63 161 -119t50 -139q0 -123 -81 -217t-237 -108l-22 -115
h-84l22 115q-254 25 -198 295l4 20h86l-4 -20q-45 -229 166 -230q116 0 188 68t72 172z" />
    <glyph glyph-name="yen.tosf" unicode="&#xe047;" horiz-adv-x="978" 
d="M31 403l10 54h285l-207 575h92l184 -553h4l402 553h94l-434 -575h287l-13 -54h-309l-27 -141h310l-13 -53h-307l-39 -209h-86l37 209h-309l10 53h311l27 141h-309z" />
    <glyph glyph-name="sterling.tosf" unicode="&#xe048;" horiz-adv-x="978" 
d="M557 979q-121 0 -200 -85t-101 -206l-47 -244h364l-10 -59h-366l-62 -311h565l-12 -74h-772l14 74h119l62 311h-117l10 59h117l47 236q33 174 134 273t260 99t228 -86q69 -87 35 -243h-86q24 118 -19 187q-42 69 -163 69z" />
    <glyph glyph-name="cent.tosf" unicode="&#xe049;" horiz-adv-x="978" 
d="M480 817q-108 0 -180 -62q-73 -62 -93 -175l-60 -304q-20 -100 23 -161q42 -61 148 -61t174 55q68 56 86 163h84l-5 -26q-23 -112 -103 -180t-206 -80l-24 -127h-88l24 127q-117 10 -170 88t-31 192l62 318q27 131 108 207q82 76 205 92l25 127h88l-25 -127
q125 -12 176 -84t29 -189l-2 -14h-84l2 20q18 84 -18 143q-37 58 -145 58z" />
    <glyph glyph-name="zero.tosf" unicode="&#xe04b;" horiz-adv-x="978" 
d="M504 977q-246 0 -314 -336l-55 -281q-59 -305 184 -305q129 0 206 81t104 216l63 326q27 137 -20 218t-168 81zM516 1053q160 -1 228 -99t36 -268l-65 -330q-72 -377 -412 -376q-166 0 -227 102t-29 274l53 277q82 420 416 420z" />
    <glyph glyph-name="one.tosf" unicode="&#xe04c;" horiz-adv-x="978" 
d="M487 0h-86l183 946l-365 -203l-37 70l400 219h106z" />
    <glyph glyph-name="two.tosf" unicode="&#xe04d;" horiz-adv-x="978" 
d="M519 1053q169 0 234 -82t40 -203l-5 -25q-22 -109 -94 -191t-252 -218l-348 -260h565l-14 -74h-668l19 92l369 275q175 131 247 207t88 159l7 29q20 96 -27 156t-174 61q-127 0 -204 -71t-95 -167l-6 -30h-86q25 152 130 247t274 95z" />
    <glyph glyph-name="three.tosf" unicode="&#xe04e;" horiz-adv-x="978" 
d="M501 975q-120 0 -196 -75t-94 -175l-4 -23h-86l4 21q25 147 130 239t264 91q159 1 230 -93t42 -237l-13 -68q-45 -229 -260 -290l-2 -5q197 -49 150 -286l-23 -123q-35 -177 -139 -279t-270 -102t-234 87t-39 228l6 35h86l-6 -33q-20 -106 25 -174q45 -67 170 -67
q126 0 206 85t105 208l27 133q20 110 -27 182t-162 72h-106l14 73h100q115 0 193 74t98 178l15 72q23 111 -31 181t-173 71z" />
    <glyph glyph-name="four.tosf" unicode="&#xe04f;" horiz-adv-x="978" 
d="M487 -307l60 307h-584l21 98l706 934h96l-723 -958h500l55 288h87l-130 -669h-88z" />
    <glyph glyph-name="five.tosf" unicode="&#xe050;" horiz-adv-x="978" 
d="M466 555q163 0 225 -95t28 -267l-49 -256q-74 -367 -412 -367q-162 0 -230 85t-38 234l4 25h88l-4 -25q-20 -106 20 -176t166 -69q258 0 316 288l51 269q25 129 -19 205t-159 75q-170 0 -279 -149h-96l135 700h670l-15 -76h-583l-105 -532q123 131 286 131z" />
    <glyph glyph-name="six.tosf" unicode="&#xe051;" horiz-adv-x="978" 
d="M314 55q124 0 204 81t107 216l30 162q23 123 -27 192q-50 68 -168 68t-198 -74t-98 -178l-35 -176q-25 -125 18 -208t167 -83zM571 1307q-133 0 -210 -85t-101 -210l-63 -320q43 68 124 112t177 44q147 0 212 -88t33 -242l-30 -158q-76 -381 -406 -380q-167 0 -231 105
t-29 288l119 612q35 180 138 289q102 108 268 108t234 -93t38 -236l-4 -21h-86q33 155 -54 233q-47 42 -129 42z" />
    <glyph glyph-name="seven.tosf" unicode="&#xe052;" horiz-adv-x="978" 
d="M84 -307h-94l762 1263h-615l15 76h696l-19 -96z" />
    <glyph glyph-name="eight.tosf" unicode="&#xe053;" horiz-adv-x="978" 
d="M561 1307q-121 0 -197 -70t-94 -160l-8 -43q-16 -84 29 -144t166 -140q147 84 215 145t84 139l8 43q16 90 -33 160t-170 70zM321 55q127 0 199 70t92 174l11 53q18 100 -28 173t-155 143q-150 -84 -224 -156t-89 -172l-8 -45q-17 -98 29 -169t173 -71zM308 -20
q-164 0 -234 87t-43 226l6 35q18 124 95 204t249 177q-131 93 -178 163t-27 170l6 31q29 135 130 222q100 87 260 87t232 -87t46 -218l-6 -33q-16 -98 -90 -171t-236 -162q113 -76 163 -160t28 -199l-11 -53q-29 -151 -128 -235t-262 -84z" />
    <glyph glyph-name="nine.tosf" unicode="&#xe054;" horiz-adv-x="978" 
d="M506 977q-252 0 -311 -320l-33 -168q-49 -262 184 -262q109 -1 196 57t101 142l51 262q27 135 -22 212t-166 77zM315 152q-150 0 -213 86t-30 249l32 164q80 401 410 402q170 -1 234 -101t30 -276l-137 -719q-72 -387 -412 -387q-159 0 -227 88t-37 231l4 23h88l-4 -21
q-20 -102 21 -174q41 -71 171 -71t205 85t99 208l69 364q-46 -67 -126 -109t-177 -42z" />
    <glyph glyph-name="zeroslash.tosf" unicode="&#xe055;" horiz-adv-x="978" 
d="M504 977q-246 0 -314 -336l-55 -281q-23 -109 -2 -182l533 729q-51 70 -162 70zM326 55q122 0 199 81t104 216l63 326q18 106 -2 178l-532 -733q46 -68 168 -68zM516 1053q160 -1 228 -99t36 -268l-65 -330q-72 -377 -412 -376q-166 0 -229 102t-29 274l55 277
q86 420 416 420z" />
    <glyph glyph-name="numbersign.posf" unicode="&#xe056;" horiz-adv-x="1019" 
d="M397 672l-159 -312h299l159 312h-299zM168 672l10 69h180l150 291h76l-152 -291h299l152 291h73l-147 -291h158l-11 -69h-184l-160 -312h160l-12 -69h-185l-149 -291h-76l152 291h-301l-150 -291h-76l154 291h-160l13 69h180l162 312h-156z" />
    <glyph glyph-name="Euro.posf" unicode="&#xe057;" horiz-adv-x="1046" 
d="M629 979q-127 0 -204 -85t-99 -206l-11 -49h414l-12 -51h-412l-26 -144h409l-8 -51h-414l-10 -55q-23 -117 20 -201q44 -84 172 -84t200 68t89 160l4 20h88q-25 -150 -126 -236q-101 -85 -265 -85t-232 101t-36 263l10 49h-137l8 51h139l29 144h-139l8 51h139l11 49
q29 162 132 263t265 101t233 -85q71 -86 45 -236h-86l4 21q13 86 -31 156t-171 71z" />
    <glyph glyph-name="dollar.posf" unicode="&#xe058;" horiz-adv-x="874" 
d="M557 291q0 70 -43 116q-44 45 -160 111t-165 115q-48 49 -48 143t81 177t227 94l22 114h82l-21 -114q246 -27 199 -293l-4 -21h-86l4 21q45 227 -170 227q-121 0 -184 -61t-63 -138t64 -126q65 -49 142 -87q111 -63 161 -119t50 -139q0 -123 -81 -217t-236 -108l-23 -115
h-84l23 115q-254 25 -199 295l4 20h86l-4 -20q-45 -229 166 -230q115 0 187 68t73 172z" />
    <glyph glyph-name="yen.posf" unicode="&#xe059;" horiz-adv-x="983" 
d="M72 403l10 54h285l-207 575h92l184 -553h4l402 553h94l-434 -575h286l-12 -54h-309l-27 -141h310l-13 -53h-307l-39 -209h-86l37 209h-309l10 53h311l27 141h-309z" />
    <glyph glyph-name="sterling.posf" unicode="&#xe05a;" horiz-adv-x="1017" 
d="M616 979q-120 0 -199 -85t-102 -206l-47 -244h365l-10 -59h-367l-61 -311h565l-12 -74h-773l15 74h119l61 311h-117l10 59h117l47 236q33 174 134 273t261 99t228 -86q69 -87 35 -243h-86q24 118 -19 187q-44 69 -164 69z" />
    <glyph glyph-name="cent.posf" unicode="&#xe05b;" horiz-adv-x="901" 
d="M488 817q-108 0 -180 -62q-73 -62 -93 -175l-59 -304q-20 -100 22 -161t149 -61q106 0 177 57q71 58 82 161h84l-4 -26q-23 -112 -103 -180t-207 -80l-24 -127h-88l24 127q-117 10 -170 88t-30 192l61 318q27 131 109 207t204 92l25 127h88l-25 -127q124 -12 176 -84
t29 -189l-2 -14h-84l2 20q18 84 -18 143q-37 58 -145 58z" />
    <glyph glyph-name="zero.posf" unicode="&#xe05d;" horiz-adv-x="991" 
d="M537 977q-246 0 -314 -336l-55 -281q-59 -305 184 -305q129 0 206 81t104 216l63 326q27 137 -20 218t-168 81zM549 1053q161 -1 229 -99t35 -268l-65 -330q-72 -377 -412 -376q-166 0 -227 102t-29 274l53 277q82 420 416 420z" />
    <glyph glyph-name="one.posf" unicode="&#xe05e;" horiz-adv-x="759" 
d="M406 0h-87l183 946l-365 -203l-37 70l400 219h106z" />
    <glyph glyph-name="two.posf" unicode="&#xe05f;" horiz-adv-x="948" 
d="M521 1053q169 0 234 -82t40 -203l-4 -25q-23 -109 -95 -191t-252 -218l-348 -260h566l-15 -74h-667l18 92l369 275q175 131 247 207t88 159l7 29q20 96 -27 156t-174 61q-127 0 -204 -71t-95 -167l-6 -30h-86q25 152 130 247t274 95z" />
    <glyph glyph-name="three.posf" unicode="&#xe060;" horiz-adv-x="946" 
d="M491 975q-120 0 -196 -75t-94 -175l-4 -23h-86l4 21q25 147 130 239t264 91q159 1 229 -93t42 -237l-12 -68q-45 -229 -260 -290l-2 -5q197 -49 149 -286l-22 -123q-35 -177 -139 -279t-270 -102t-234 87t-39 228l6 35h86l-6 -33q-19 -106 25 -174q44 -67 169 -67t206 85
t106 208l26 133q19 110 -27 182t-161 72h-107l15 73h100q115 0 193 74t98 178l14 72q23 111 -30 181t-173 71z" />
    <glyph glyph-name="four.posf" unicode="&#xe061;" horiz-adv-x="874" 
d="M463 -307l59 307h-583l20 98l707 934h96l-723 -958h500l55 288h86l-129 -669h-88z" />
    <glyph glyph-name="five.posf" unicode="&#xe062;" horiz-adv-x="968" 
d="M472 555q163 0 225 -95t28 -267l-49 -256q-74 -367 -412 -367q-162 0 -230 85t-38 234l4 25h88l-4 -25q-20 -106 20 -176t166 -69q258 0 316 288l51 269q25 129 -19 205t-159 75q-170 0 -279 -149h-96l135 700h670l-15 -76h-583l-105 -532q123 131 286 131z" />
    <glyph glyph-name="six.posf" unicode="&#xe063;" horiz-adv-x="976" 
d="M345 55q124 0 204 81t106 216l31 162q22 123 -28 192q-50 68 -168 68t-197 -74q-80 -74 -98 -178l-35 -176q-25 -125 18 -208t167 -83zM602 1307q-133 0 -210 -85t-101 -210l-64 -320q43 68 124 112t177 44q147 0 212 -88t34 -242l-31 -158q-76 -381 -405 -380
q-166 0 -230 105t-30 288l119 612q35 180 138 289q103 108 268 108t233 -93t38 -236l-4 -21h-86q33 155 -53 233q-47 42 -129 42z" />
    <glyph glyph-name="seven.posf" unicode="&#xe064;" horiz-adv-x="835" 
d="M43 -307h-94l762 1263h-615l15 76h696l-19 -96z" />
    <glyph glyph-name="eight.posf" unicode="&#xe065;" horiz-adv-x="970" 
d="M592 1307q-121 0 -197 -70t-94 -160l-8 -43q-15 -84 29 -144t165 -140q147 84 215 145t84 139l9 43q16 90 -33 160t-170 70zM352 55q127 0 199 70t92 174l10 53q18 100 -27 173q-46 73 -155 143q-149 -84 -223 -156t-90 -172l-8 -45q-18 -98 28 -169t174 -71zM339 -20
q-163 0 -234 87t-44 226l7 35q18 124 95 204t249 177q-131 92 -179 162q-47 71 -26 171l6 31q29 135 130 222t260 87t231 -87t47 -218l-7 -33q-16 -98 -90 -171t-235 -162q113 -76 163 -160t27 -199l-10 -53q-29 -151 -128 -235t-262 -84z" />
    <glyph glyph-name="nine.posf" unicode="&#xe066;" horiz-adv-x="991" 
d="M532 977q-252 0 -311 -320l-33 -168q-49 -262 185 -262q109 -1 195 57t102 142l51 262q27 135 -23 212t-166 77zM342 152q-150 0 -213 86t-31 249l33 164q80 401 410 402q170 -1 233 -101t31 -276l-137 -719q-72 -387 -412 -387q-158 0 -226 88t-38 231l4 23h88l-4 -21
q-20 -102 20 -174q40 -71 171 -71q130 0 205 85t99 208l70 364q-47 -67 -127 -109t-176 -42z" />
    <glyph glyph-name="zeroslash.posf" unicode="&#xe067;" horiz-adv-x="991" 
d="M537 977q-246 0 -314 -336l-55 -281q-23 -109 -2 -182l532 729q-51 70 -161 70zM358 55q123 0 200 81t104 216l63 326q18 106 -2 178l-533 -733q45 -68 168 -68zM549 1053q161 -1 229 -99t35 -268l-65 -330q-72 -377 -412 -376q-166 0 -230 102q-63 102 -28 274l55 277
q86 420 416 420z" />
    <glyph glyph-name="onefifth" unicode="&#xe07c;" horiz-adv-x="1718" 
d="M1342 551q214 0 174 -215l-23 -117q-45 -231 -274 -231q-111 0 -160 59t-23 158h74l-2 -12q-23 -139 117 -140q156 0 186 152l23 123q12 70 -13 114t-94 43q-104 0 -168 -82h-84l80 414h444l-14 -65h-368l-58 -285q75 84 183 84zM1337 1362l-972 -1362h-82l974 1362h80z
M446 553h-77l143 739l-270 -129l-31 64l299 143h96z" />
    <glyph glyph-name="twofifths" unicode="&#xe07d;" horiz-adv-x="1718" 
d="M1342 551q214 0 174 -215l-23 -117q-45 -231 -274 -231q-111 0 -160 59t-23 158h74l-2 -12q-23 -139 117 -140q156 0 186 152l23 123q12 70 -13 114t-94 43q-104 0 -168 -82h-84l80 414h444l-14 -65h-368l-58 -285q75 84 183 84zM1378 1362l-972 -1362h-82l974 1362h80z
M488 1382q116 0 162 -55t30 -141q-12 -88 -68 -158q-57 -70 -178 -180l-248 -230h385l-12 -65h-471l16 78l250 233q129 117 182 177q52 60 66 137q27 139 -123 139q-84 0 -131 -37t-55 -90l-4 -14h-78q16 95 88 150q73 56 189 56z" />
    <glyph glyph-name="threefifths" unicode="&#xe07e;" horiz-adv-x="1718" 
d="M1342 551q214 0 174 -215l-23 -117q-45 -231 -274 -231q-111 0 -160 59t-23 158h74l-2 -12q-23 -139 117 -140q156 0 186 152l23 123q12 70 -13 114t-94 43q-104 0 -168 -82h-84l80 414h444l-14 -65h-368l-58 -285q75 84 183 84zM1358 1362l-973 -1362h-82l975 1362h80z
M466 1317q-78 0 -124 -39q-47 -39 -57 -109h-78l4 13q16 92 86 146q69 54 181 54t162 -52t32 -140l-6 -31q-27 -137 -166 -170v-4q127 -31 98 -174l-10 -55q-20 -102 -92 -158t-182 -57q-110 0 -159 52q-48 52 -30 144l4 21h76l-4 -23q-13 -55 15 -92t106 -37t127 43t61 111
l10 53q12 63 -18 100q-31 37 -105 37h-73l10 66h72q76 0 123 36t57 93l8 45q10 55 -20 91t-108 36z" />
    <glyph glyph-name="fourfifths" unicode="&#xe07f;" horiz-adv-x="1720" 
d="M1344 551q214 0 174 -215l-23 -117q-45 -231 -274 -231q-111 0 -160 59t-23 158h74l-2 -12q-23 -139 117 -140q156 0 186 152l23 123q14 70 -12 114t-95 43q-104 0 -168 -82h-84l80 414h445l-15 -65h-368l-58 -285q75 84 183 84zM1380 1362l-972 -1362h-82l974 1362h80z
M457 553l37 178h-400l17 88l446 551h86l-463 -571h324l33 166h73l-82 -412h-71z" />
    <glyph glyph-name="onesixth" unicode="&#xe080;" horiz-adv-x="1718" 
d="M1223 53q154 0 182 150l18 92q12 61 -15 104q-28 43 -102 43t-123 -43q-48 -43 -61 -100l-16 -88q-12 -68 14 -113t103 -45zM1335 504q99 0 143 -55t23 -158l-14 -70q-47 -233 -270 -233q-113 0 -160 64t-25 171l68 348q20 115 94 187t183 72t158 -56q49 -55 30 -149h-78
q28 139 -116 139q-75 0 -126 -51t-65 -127l-35 -170q59 88 190 88zM1378 1362l-972 -1362h-82l974 1362h80zM446 553h-77l143 739l-270 -129l-31 64l299 143h96z" />
    <glyph glyph-name="fivesixths" unicode="&#xe081;" horiz-adv-x="1718" 
d="M1223 53q154 0 182 150l18 92q12 61 -15 104q-28 43 -102 43t-123 -43q-48 -43 -61 -100l-16 -88q-12 -68 14 -113t103 -45zM1335 504q99 0 143 -55t23 -158l-14 -70q-47 -233 -270 -233q-113 0 -160 64t-25 171l68 348q20 115 94 187t183 72t158 -56q49 -55 30 -149h-78
q28 139 -116 139q-75 0 -126 -51t-65 -127l-35 -170q59 88 190 88zM1378 1362l-972 -1362h-82l974 1362h80zM450 1104q214 0 173 -215l-23 -117q-45 -231 -274 -231q-111 0 -160 59t-23 158h74l-2 -13q-23 -139 117 -139q156 0 186 152l23 123q12 69 -13 113t-94 44
q-104 0 -168 -82h-84l80 414h445l-15 -65h-368l-58 -285q76 84 184 84z" />
    <glyph glyph-name="oneseventh" unicode="&#xe082;" horiz-adv-x="1718" 
d="M1124 0h-90l506 752h-424l12 65h502l-16 -82zM1337 1362l-972 -1362h-82l974 1362h80zM446 553h-77l143 739l-270 -129l-31 64l299 143h96z" />
    <glyph glyph-name="twosevenths" unicode="&#xe083;" horiz-adv-x="1718" 
d="M1124 0h-90l506 752h-424l12 65h502l-16 -82zM1378 1362l-972 -1362h-82l974 1362h80zM488 1382q116 0 162 -55t30 -141q-12 -88 -68 -158q-57 -70 -178 -180l-248 -230h385l-12 -65h-471l16 78l250 233q129 117 182 177q52 60 66 137q27 139 -123 139q-84 0 -131 -37
t-55 -90l-4 -14h-78q16 95 88 150q73 56 189 56z" />
    <glyph glyph-name="threesevenths" unicode="&#xe084;" horiz-adv-x="1718" 
d="M1124 0h-90l506 752h-424l12 65h502l-16 -82zM1378 1362l-972 -1362h-82l974 1362h80zM466 1317q-78 0 -124 -39q-47 -39 -57 -109h-78l4 13q16 92 86 146q69 54 181 54t162 -52t32 -140l-6 -31q-27 -137 -166 -170v-4q127 -31 98 -174l-10 -55q-20 -102 -92 -158
t-182 -57q-110 0 -159 52q-48 52 -30 144l4 21h76l-4 -23q-13 -55 15 -92t106 -37t127 43t61 111l10 53q12 63 -18 100q-31 37 -105 37h-73l10 66h72q76 0 123 36t57 93l8 45q10 55 -20 91t-108 36z" />
    <glyph glyph-name="foursevenths" unicode="&#xe085;" horiz-adv-x="1720" 
d="M1126 0h-90l506 752h-424l12 65h502l-16 -82zM1380 1362l-972 -1362h-82l974 1362h80zM457 553l37 178h-400l17 88l446 551h86l-463 -571h324l33 166h73l-82 -412h-71z" />
    <glyph glyph-name="fivesevenths" unicode="&#xe086;" horiz-adv-x="1718" 
d="M1124 0h-90l506 752h-424l12 65h502l-16 -82zM1378 1362l-972 -1362h-82l974 1362h80zM450 1104q214 0 173 -215l-23 -117q-45 -231 -274 -231q-111 0 -160 59t-23 158h74l-2 -13q-23 -139 117 -139q156 0 186 152l23 123q12 69 -13 113t-94 44q-104 0 -168 -82h-84
l80 414h445l-15 -65h-368l-58 -285q76 84 184 84z" />
    <glyph glyph-name="sixsevenths" unicode="&#xe087;" horiz-adv-x="1718" 
d="M1124 0h-90l506 752h-424l12 65h502l-16 -82zM1378 1362l-972 -1362h-82l974 1362h80zM330 606q154 0 182 150l18 92q12 61 -15 104q-29 43 -103 43t-122 -43t-61 -100l-16 -88q-11 -68 15 -113t102 -45zM478 1317q-75 0 -126 -51t-65 -127l-35 -170q59 88 190 88
q98 1 142 -55t24 -158l-14 -70q-47 -233 -270 -233q-113 1 -160 65t-25 170l68 348q20 115 94 187q73 71 183 71t158 -55t30 -149h-78q28 139 -116 139z" />
    <glyph glyph-name="oneninth" unicode="&#xe088;" horiz-adv-x="1718" 
d="M1370 764q-76 0 -122 -44t-60 -112l-17 -82q-31 -152 111 -151q72 0 123 43t63 98l19 98q12 63 -14 107q-27 43 -103 43zM1253 313q-203 0 -161 205l14 78q20 106 90 170t182 63q112 0 159 -62q48 -62 26 -167l-70 -369q-23 -117 -95 -180t-182 -63t-158 53t-30 152h78
q-25 -140 113 -140q158 0 192 168l35 180q-74 -88 -193 -88zM1378 1362l-972 -1362h-82l974 1362h80zM446 553h-77l143 739l-270 -129l-31 64l299 143h96z" />
    <glyph glyph-name="twoninths" unicode="&#xe089;" horiz-adv-x="1718" 
d="M1370 764q-76 0 -122 -44t-60 -112l-17 -82q-31 -152 111 -151q72 0 123 43t63 98l19 98q12 63 -14 107q-27 43 -103 43zM1253 313q-203 0 -161 205l14 78q20 106 90 170t182 63q112 0 159 -62q48 -62 26 -167l-70 -369q-23 -117 -95 -180t-182 -63t-158 53t-30 152h78
q-25 -140 113 -140q158 0 192 168l35 180q-74 -88 -193 -88zM1399 1362l-973 -1362h-82l975 1362h80zM488 1382q116 0 162 -55t30 -141q-12 -88 -68 -158q-57 -70 -178 -180l-248 -230h385l-12 -65h-471l16 78l250 233q129 117 182 177q52 60 66 137q27 139 -123 139
q-84 0 -131 -37t-55 -90l-4 -14h-78q16 95 88 150q73 56 189 56z" />
    <glyph glyph-name="fourninths" unicode="&#xe08a;" horiz-adv-x="1720" 
d="M1372 764q-76 0 -122 -44t-60 -112l-16 -82q-31 -152 110 -151q72 0 123 43t63 98l19 98q12 63 -14 107q-27 43 -103 43zM1255 313q-203 0 -161 205l14 78q20 106 90 170t182 63q112 0 159 -62q48 -62 26 -167l-70 -369q-23 -117 -95 -180t-182 -63t-158 53t-30 152h78
q-25 -140 113 -140q158 0 192 168l35 180q-74 -88 -193 -88zM1401 1362l-973 -1362h-82l975 1362h80zM457 553l37 178h-400l17 88l446 551h86l-463 -571h324l33 166h73l-82 -412h-71z" />
    <glyph glyph-name="fiveninths" unicode="&#xe08b;" horiz-adv-x="1718" 
d="M1370 764q-76 0 -122 -44t-60 -112l-17 -82q-31 -152 111 -151q72 0 123 43t63 98l19 98q12 63 -14 107q-27 43 -103 43zM1253 313q-203 0 -161 205l14 78q20 106 90 170t182 63q112 0 159 -62q48 -62 26 -167l-70 -369q-23 -117 -95 -180t-182 -63t-158 53t-30 152h78
q-25 -140 113 -140q158 0 192 168l35 180q-74 -88 -193 -88zM1378 1362l-972 -1362h-82l974 1362h80zM450 1104q214 0 173 -215l-23 -117q-45 -231 -274 -231q-111 0 -160 59t-23 158h74l-2 -13q-23 -139 117 -139q156 0 186 152l23 123q12 69 -13 113t-94 44
q-104 0 -168 -82h-84l80 414h445l-15 -65h-368l-58 -285q76 84 184 84z" />
    <glyph glyph-name="sevenninths" unicode="&#xe08c;" horiz-adv-x="1718" 
d="M1370 764q-76 0 -122 -44t-60 -112l-17 -82q-31 -152 111 -151q72 0 123 43t63 98l19 98q12 63 -14 107q-27 43 -103 43zM1253 313q-203 0 -161 205l14 78q20 106 90 170t182 63q112 0 159 -62q48 -62 26 -167l-70 -369q-23 -117 -95 -180t-182 -63t-158 53t-30 152h78
q-25 -140 113 -140q158 0 192 168l35 180q-74 -88 -193 -88zM1317 1362l-973 -1362h-82l975 1362h80zM231 553h-90l506 752h-424l13 65h501l-16 -82z" />
    <glyph glyph-name="eightninths" unicode="&#xe08d;" horiz-adv-x="1718" 
d="M1370 764q-76 0 -122 -44t-60 -112l-17 -82q-31 -152 111 -151q72 0 123 43t63 98l19 98q12 63 -14 107q-27 43 -103 43zM1253 313q-203 0 -161 205l14 78q20 106 90 170t182 63q112 0 159 -62q48 -62 26 -167l-70 -369q-23 -117 -95 -180t-182 -63t-158 53t-30 152h78
q-25 -140 113 -140q158 0 192 168l35 180q-74 -88 -193 -88zM1378 1362l-972 -1362h-82l974 1362h80zM473 1319q-76 0 -120 -36t-54 -87l-4 -29q-18 -88 119 -159q84 38 128 74t52 83l4 29q10 51 -19 88q-30 37 -106 37zM329 604q75 0 122 39t59 94l4 31q12 57 -16 96
q-29 39 -99 76q-166 -76 -186 -182l-6 -27q-9 -53 19 -90t103 -37zM484 1382q110 0 159 -54t33 -134l-6 -31q-12 -61 -62 -103t-145 -85q77 -43 109 -90t20 -121l-6 -31q-16 -86 -87 -139t-179 -53t-157 52q-48 52 -32 134l6 29q25 131 211 219q-152 86 -129 203l4 20
q16 86 84 135q67 49 177 49z" />
    <glyph glyph-name="zero.numerator" unicode="&#xe08e;" 
d="M318 512q-76 0 -124 -53t-63 -133l-68 -351q-14 -73 11 -123q26 -50 102 -50t124 49q48 50 60 120l72 363q16 78 -10 128q-27 50 -104 50zM325 578q112 0 160 -68t25 -180l-66 -350q-22 -111 -92 -178q-70 -66 -182 -66t-159 68q-46 68 -25 182l65 333q23 119 92 189
q70 70 182 70z" />
    <glyph glyph-name="one.numerator" unicode="&#xe08f;" 
d="M291 -252h-78l143 739l-270 -129l-31 64l299 143h97z" />
    <glyph glyph-name="two.numerator" unicode="&#xe090;" 
d="M324 512q-84 0 -131 -37t-56 -90l-4 -14h-78q16 95 88 150q72 57 189 57t163 -56t29 -141q-13 -88 -68 -158q-56 -70 -177 -180l-248 -229h385l-13 -66h-471l17 78l250 233q129 117 181 178t66 136q27 139 -122 139z" />
    <glyph glyph-name="three.numerator" unicode="&#xe091;" 
d="M311 512q-78 0 -124 -39t-58 -108h-78l4 12q16 92 86 146q70 55 182 55q111 0 161 -52t32 -141l-6 -31q-27 -137 -166 -170v-4q127 -31 98 -174l-10 -55q-20 -103 -92 -159t-182 -56t-159 52q-48 52 -30 144l4 21h76l-4 -23q-13 -55 15 -92t106 -37t127 43t61 111l11 53
q12 62 -19 100t-104 37h-74l10 66h72q76 0 123 36t57 93l8 45q10 55 -19 91q-30 36 -108 36z" />
    <glyph glyph-name="four.numerator" unicode="&#xe092;" 
d="M301 -252l37 178h-399l16 88l446 551h86l-462 -571h323l33 166h74l-82 -412h-72z" />
    <glyph glyph-name="five.numerator" unicode="&#xe093;" 
d="M294 299q214 0 173 -215l-23 -117q-45 -231 -274 -231q-111 0 -161 59t-21 158h73l-2 -12q-23 -139 117 -140q156 0 186 152l23 123q11 70 -13 114t-93 43q-104 0 -168 -81h-84l79 413h445l-14 -65h-369l-57 -285q76 84 183 84z" />
    <glyph glyph-name="six.numerator" unicode="&#xe094;" 
d="M174 -199q154 0 182 150l19 92q12 61 -16 104q-29 43 -103 43t-122 -43t-60 -100l-17 -88q-11 -68 15 -113t102 -45zM322 512q-74 0 -125 -51t-66 -127l-35 -170q59 88 191 88q98 0 142 -55t24 -158l-15 -70q-47 -233 -270 -233q-113 0 -160 64t-24 171l67 348
q20 115 94 187q73 72 183 72t158 -55t30 -150h-78q27 139 -116 139z" />
    <glyph glyph-name="seven.numerator" unicode="&#xe095;" 
d="M76 -252h-90l506 752h-424l12 65h502l-17 -82z" />
    <glyph glyph-name="eight.numerator" unicode="&#xe096;" 
d="M317 514q-76 0 -120 -36t-54 -87l-4 -29q-18 -88 119 -159q84 39 128 75t52 82l4 29q10 51 -19 88q-30 37 -106 37zM174 -201q74 0 121 39t59 94l4 31q12 57 -16 96q-29 39 -98 76q-167 -76 -187 -182l-6 -27q-10 -53 19 -90q30 -37 104 -37zM164 -264q-108 0 -157 52
q-48 52 -32 134l7 29q25 131 211 219q-153 86 -130 203l5 20q16 86 84 135q68 50 178 50t158 -54t32 -135l-6 -31q-12 -61 -62 -103t-145 -85q76 -43 109 -90t20 -121l-6 -31q-16 -86 -87 -139t-179 -53z" />
    <glyph glyph-name="nine.numerator" unicode="&#xe097;" 
d="M321 512q-75 0 -121 -44t-61 -112l-16 -82q-31 -152 110 -151q72 0 123 43t64 98l18 98q12 63 -14 107q-27 43 -103 43zM170 -199q158 0 192 168l35 181q-74 -88 -192 -89q-203 0 -162 205l14 78q20 106 90 170t182 64q111 0 159 -62t26 -168l-70 -368q-23 -117 -95 -181
q-73 -63 -182 -63t-161 56t-26 149h77q-25 -140 113 -140z" />
    <glyph glyph-name="zero.denominator" unicode="&#xe098;" 
d="M521 1569q-77 0 -125 -53t-62 -134l-68 -350q-14 -74 10 -124t102 -50q77 0 125 50t60 120l72 363q16 78 -10 128q-27 50 -104 50zM713 1386l-66 -350q-23 -112 -93 -178t-182 -66t-158 68t-26 182l66 334q23 119 92 189q70 69 182 69t160 -68t25 -180z" />
    <glyph glyph-name="one.denominator" unicode="&#xe099;" 
d="M494 805h-78l143 739l-270 -129l-31 64l299 143h96z" />
    <glyph glyph-name="two.denominator" unicode="&#xe09a;" 
d="M535 1634q117 0 163 -55t29 -141q-12 -88 -68 -158q-57 -70 -178 -180l-248 -230h385l-12 -65h-471l17 78l249 233q129 117 182 177q52 60 66 137q27 139 -123 139q-84 0 -131 -37t-55 -90l-4 -15h-78q15 95 87 151q73 56 190 56z" />
    <glyph glyph-name="three.denominator" unicode="&#xe09b;" 
d="M514 1569q-78 0 -125 -39t-57 -109h-78l4 13q16 92 86 146t182 54t161 -52q50 -52 32 -140l-6 -31q-27 -137 -166 -170v-4q127 -31 98 -174l-10 -55q-20 -102 -92 -158q-73 -56 -183 -57q-110 0 -158 52t-30 144l4 21h76l-4 -23q-12 -55 16 -92t105 -37q78 0 127 43
t61 111l10 53q12 63 -18 100q-31 37 -105 37h-73l10 66h72q76 0 123 36t57 93l8 45q10 55 -19 91q-30 36 -108 36z" />
    <glyph glyph-name="four.denominator" unicode="&#xe09c;" 
d="M504 805l37 178h-400l17 88l446 551h86l-463 -571h324l33 166h73l-82 -412h-71z" />
    <glyph glyph-name="five.denominator" unicode="&#xe09d;" 
d="M496 1356q215 0 174 -215l-23 -117q-45 -231 -274 -231q-111 0 -160 59t-23 158h74l-2 -13q-23 -139 117 -139q156 0 186 152l23 123q14 69 -12 113t-95 44q-104 0 -168 -82h-84l80 414h445l-15 -66h-368l-58 -284q75 84 183 84z" />
    <glyph glyph-name="six.denominator" unicode="&#xe09e;" 
d="M377 858q154 0 182 150l19 92q12 61 -16 104t-102 43t-123 -43q-48 -43 -61 -100l-16 -88q-12 -68 14 -113t103 -45zM525 1569q-75 0 -126 -51t-65 -127l-35 -170q59 88 190 88q99 1 143 -55t23 -158l-14 -70q-47 -233 -270 -233q-113 1 -160 65t-25 170l68 348
q20 115 94 187q74 71 184 71t157 -55q48 -55 30 -149h-78q28 139 -116 139z" />
    <glyph glyph-name="seven.denominator" unicode="&#xe09f;" 
d="M279 805h-91l506 751h-424l13 66h501l-16 -82z" />
    <glyph glyph-name="eight.denominator" unicode="&#xe0a0;" 
d="M520 1571q-76 0 -120 -36t-54 -87l-4 -29q-18 -88 119 -159q84 38 128 74t52 83l4 29q10 51 -19 88q-30 37 -106 37zM376 856q75 0 122 39t59 94l4 31q12 57 -16 96q-29 39 -99 76q-166 -76 -186 -182l-6 -27q-10 -53 18 -90t104 -37zM532 1634q110 0 158 -54
q49 -54 33 -134l-6 -31q-13 -61 -63 -103t-144 -85q76 -43 108 -90t21 -121l-6 -31q-16 -86 -87 -139q-72 -53 -180 -53t-156 52t-32 134l6 29q25 131 211 219q-152 86 -129 203l4 20q16 86 84 135t178 49z" />
    <glyph glyph-name="nine.denominator" unicode="&#xe0a1;" 
d="M524 1569q-76 0 -122 -44t-60 -112l-16 -82q-31 -152 110 -151q72 0 123 43t64 98l18 98q12 63 -14 107q-27 43 -103 43zM373 858q158 0 192 168l35 180q-74 -88 -192 -88q-203 0 -162 205l14 78q20 105 90 169t182 64t159 -62q48 -62 26 -167l-70 -369
q-23 -117 -95 -180t-182 -63q-109 0 -158 54t-30 150h78q-28 -139 113 -139z" />
    <glyph glyph-name="i.dot" unicode="&#xe166;" horiz-adv-x="446" 
d="M334 1321q53 0 53 -51q0 -36 -20 -56q-21 -20 -49 -20q-58 0 -58 53q0 33 22 53t52 21zM37 0l201 1032h77l-12 -112l-180 -920h-86z" />
    <glyph glyph-name="commaaccent" unicode="&#xf6c3;" horiz-adv-x="1067" 
d="M426 -82l-139 -235h-60l101 235h98z" />
    <glyph glyph-name="caron.alt" horiz-adv-x="1067" 
d="M913 1403l-133 -240h-53l94 240h92z" />
    <glyph glyph-name="revcommaaccent" horiz-adv-x="1067" 
d="M557 1139l131 235h60l-97 -235h-94z" />
    </font>
</defs>
</svg>
