<?xml version="1.0" encoding="UTF-8" standalone="no"?>
<!-- Created with Inkscape (http://www.inkscape.org/) -->

<svg
   xmlns:dc="http://purl.org/dc/elements/1.1/"
   xmlns:cc="http://creativecommons.org/ns#"
   xmlns:rdf="http://www.w3.org/1999/02/22-rdf-syntax-ns#"
   xmlns:svg="http://www.w3.org/2000/svg"
   xmlns="http://www.w3.org/2000/svg"
   xmlns:sodipodi="http://sodipodi.sourceforge.net/DTD/sodipodi-0.dtd"
   xmlns:inkscape="http://www.inkscape.org/namespaces/inkscape"
   width="308.03033mm"
   height="44.534916mm"
   viewBox="0 0 1091.4462 157.80088"
   id="svg2"
   version="1.1"
   inkscape:version="0.91 r13725"
   sodipodi:docname="logo.secmachine.1511a.ol.svg">
  <defs
     id="defs4" />
  <sodipodi:namedview
     id="base"
     pagecolor="#ffffff"
     bordercolor="#666666"
     borderopacity="1"
     inkscape:pageopacity="0.0"
     inkscape:pageshadow="2"
     inkscape:zoom="1"
     inkscape:cx="560.50965"
     inkscape:cy="315.10518"
     inkscape:document-units="px"
     inkscape:current-layer="layer1"
     showgrid="false"
     inkscape:window-width="1920"
     inkscape:window-height="968"
     inkscape:window-x="-5"
     inkscape:window-y="6"
     inkscape:window-maximized="0"
     fit-margin-top="10"
     fit-margin-left="10"
     fit-margin-right="10"
     fit-margin-bottom="10" />
  <metadata
     id="metadata7">
    <rdf:RDF>
      <cc:Work
         rdf:about="">
        <dc:format>image/svg+xml</dc:format>
        <dc:type
           rdf:resource="http://purl.org/dc/dcmitype/StillImage" />
        <dc:title></dc:title>
      </cc:Work>
    </rdf:RDF>
  </metadata>
  <g
     inkscape:label="Layer 1"
     inkscape:groupmode="layer"
     id="layer1"
     transform="translate(-109.48692,-345.99442)">
    <g
       style="font-style:normal;font-variant:normal;font-weight:normal;font-stretch:normal;font-size:112.90227509px;line-height:125%;font-family:Orbitron;-inkscape-font-specification:'Orbitron, Normal';text-align:start;letter-spacing:0px;word-spacing:0px;writing-mode:lr-tb;text-anchor:start;fill:#000000;fill-opacity:1;stroke:none;stroke-width:1px;stroke-linecap:butt;stroke-linejoin:miter;stroke-opacity:1"
       id="text4136">
      <path
         d="m 211.64524,416.54007 0,0.90322 -9.37089,0 0,-0.90322 q 0,-1.80644 -1.35483,-3.04836 -1.24192,-1.35483 -3.04836,-1.35483 l -39.28999,0 q -1.80644,0 -3.16126,1.35483 -1.24193,1.24192 -1.24193,3.04836 l 0,10.0483 q 0,1.80644 1.24193,3.16127 1.35482,1.24192 3.16126,1.24192 l 39.28999,0 q 5.75802,0 9.7096,4.06448 4.06448,3.95158 4.06448,9.5967 l 0,10.0483 q 0,5.64511 -4.06448,9.70959 -3.95158,3.95158 -9.7096,3.95158 l -39.28999,0 q -5.64511,0 -9.70959,-3.95158 -3.95158,-4.06448 -3.95158,-9.70959 l 0,-0.90322 9.25798,0 0,0.90322 q 0,1.80643 1.24193,3.16126 1.35482,1.24193 3.16126,1.24193 l 39.28999,0 q 1.80644,0 3.04836,-1.24193 1.35483,-1.35483 1.35483,-3.16126 l 0,-10.0483 q 0,-1.80644 -1.35483,-3.04837 -1.24192,-1.35482 -3.04836,-1.35482 l -39.28999,0 q -5.64511,0 -9.70959,-3.95158 -3.95158,-4.06448 -3.95158,-9.7096 l 0,-10.0483 q 0,-5.64511 3.95158,-9.59669 4.06448,-4.06449 9.70959,-4.06449 l 39.28999,0 q 5.75802,0 9.7096,4.06449 4.06448,3.95158 4.06448,9.59669 z"
         style=""
         id="path4145" />
      <path
         d="m 273.84557,402.87889 q 5.75802,0 9.7096,4.06449 4.06448,3.95158 4.06448,9.59669 l 0,23.70948 -57.46726,0 0,14.45149 q 0,1.80643 1.24193,3.16126 1.35483,1.24193 3.16126,1.24193 l 53.06407,0 0,9.25798 -53.06407,0 q -5.64511,0 -9.70959,-3.95158 -3.95158,-4.06448 -3.95158,-9.70959 l 0,-38.16097 q 0,-5.64511 3.95158,-9.59669 4.06448,-4.06449 9.70959,-4.06449 l 39.28999,0 z m -43.69318,28.11267 48.09637,0 0,-14.45149 q 0,-1.80644 -1.35482,-3.04836 -1.24193,-1.35483 -3.04837,-1.35483 l -39.28999,0 q -1.80643,0 -3.16126,1.35483 -1.24193,1.24192 -1.24193,3.04836 l 0,14.45149 z"
         style=""
         id="path4147" />
      <path
         d="m 310.41179,459.10423 53.06407,0 0,9.25798 -53.06407,0 q -5.64511,0 -9.70959,-3.95158 -3.95158,-4.06448 -3.95158,-9.70959 l 0,-38.16097 q 0,-5.64511 3.95158,-9.59669 4.06448,-4.06449 9.70959,-4.06449 l 52.83827,0 0,9.25799 -52.83827,0 q -1.80644,0 -3.16126,1.35483 -1.24193,1.24192 -1.24193,3.04836 l 0,38.16097 q 0,1.80643 1.24193,3.16126 1.35482,1.24193 3.16126,1.24193 z"
         style=""
         id="path4149" />
      <path
         d="m 462.07485,402.87889 q 5.75801,0 9.70959,4.06449 3.95158,3.95158 3.95158,9.59669 l 0,51.82214 -9.14508,0 0,-51.82214 q 0,-1.80644 -1.35483,-3.04836 -1.35483,-1.35483 -3.16126,-1.35483 l -27.20945,0 q -1.80644,0 -3.16127,1.35483 -1.24192,1.24192 -1.24192,3.04836 l 0,51.82214 -9.37089,0 0,-51.82214 q 0,-1.80644 -1.35483,-3.04836 -1.24192,-1.35483 -3.04836,-1.35483 l -27.32235,0 q -1.80644,0 -3.16126,1.35483 -1.24193,1.24192 -1.24193,3.04836 l 0,51.82214 -9.37089,0 0,-65.48332 86.48315,0 z"
         style=""
         id="path4151" />
      <path
         d="m 539.23473,402.87889 q 5.75801,0 9.70959,4.06449 4.06449,3.95158 4.06449,9.59669 l 0,51.82214 -53.06407,0 q -5.64512,0 -9.7096,-3.95158 -3.95158,-4.06448 -3.95158,-9.70959 l 0,-23.70948 57.35436,0 0,-14.45149 q 0,-1.80644 -1.35483,-3.04836 -1.24192,-1.35483 -3.04836,-1.35483 l -52.95117,0 0,-9.25799 52.95117,0 z m 4.40319,56.22534 0,-18.85468 -48.09637,0 0,14.45149 q 0,1.80643 1.24192,3.16126 1.35483,1.24193 3.16127,1.24193 l 43.69318,0 z"
         style=""
         id="path4153" />
      <path
         d="m 577.01113,459.10423 53.06406,0 0,9.25798 -53.06406,0 q -5.64512,0 -9.7096,-3.95158 -3.95158,-4.06448 -3.95158,-9.70959 l 0,-38.16097 q 0,-5.64511 3.95158,-9.59669 4.06448,-4.06449 9.7096,-4.06449 l 52.83826,0 0,9.25799 -52.83826,0 q -1.80644,0 -3.16127,1.35483 -1.24192,1.24192 -1.24192,3.04836 l 0,38.16097 q 0,1.80643 1.24192,3.16126 1.35483,1.24193 3.16127,1.24193 z"
         style=""
         id="path4155" />
      <path
         d="m 693.49098,402.87889 q 5.64511,0 9.59669,4.06449 4.06448,3.95158 4.06448,9.59669 l 0,51.82214 -9.25798,0 0,-51.82214 q 0,-1.80644 -1.35483,-3.04836 -1.24193,-1.35483 -3.04836,-1.35483 l -39.28999,0 q -1.80644,0 -3.16127,1.35483 -1.35483,1.24192 -1.35483,3.04836 l 0,51.82214 -9.25798,0 0,-86.93475 9.25798,0 0,21.45143 43.80609,0 z"
         style=""
         id="path4157" />
      <path
         d="m 716.49837,468.36221 0,-65.48332 9.25799,0 0,65.48332 -9.25799,0 z m 0,-86.93475 9.25799,0 0,9.25799 -9.25799,0 0,-9.25799 z"
         style=""
         id="path4159" />
      <path
         d="m 791.61894,402.87889 q 5.64511,0 9.59669,4.06449 4.06448,3.95158 4.06448,9.59669 l 0,51.82214 -9.25798,0 0,-51.82214 q 0,-1.80644 -1.35483,-3.04836 -1.24193,-1.35483 -3.04836,-1.35483 l -39.28999,0 q -1.80644,0 -3.16127,1.35483 -1.35483,1.24192 -1.35483,3.04836 l 0,51.82214 -9.25798,0 0,-65.48332 53.06407,0 z"
         style=""
         id="path4161" />
      <path
         d="m 869.89023,402.87889 q 5.75801,0 9.70959,4.06449 4.06449,3.95158 4.06449,9.59669 l 0,23.70948 -57.46726,0 0,14.45149 q 0,1.80643 1.24192,3.16126 1.35483,1.24193 3.16127,1.24193 l 53.06407,0 0,9.25798 -53.06407,0 q -5.64512,0 -9.7096,-3.95158 -3.95158,-4.06448 -3.95158,-9.70959 l 0,-38.16097 q 0,-5.64511 3.95158,-9.59669 4.06448,-4.06449 9.7096,-4.06449 l 39.28999,0 z m -43.69318,28.11267 48.09637,0 0,-14.45149 q 0,-1.80644 -1.35483,-3.04836 -1.24193,-1.35483 -3.04836,-1.35483 l -39.28999,0 q -1.80644,0 -3.16127,1.35483 -1.24192,1.24192 -1.24192,3.04836 l 0,14.45149 z"
         style=""
         id="path4163" />
      <path
         d="m 904.5971,459.10423 0,9.25798 -9.25799,0 0,-9.25798 9.25799,0 z"
         style=""
         id="path4165" />
      <path
         d="m 972.65953,402.87889 q 5.64511,0 9.59669,4.06449 4.06448,3.95158 4.06448,9.59669 l 0,51.82214 -9.25799,0 0,-51.82214 q 0,-1.80644 -1.35482,-3.04836 -1.24193,-1.35483 -3.04836,-1.35483 l -39.29,0 q -1.80643,0 -3.16126,1.35483 -1.35483,1.24192 -1.35483,3.04836 l 0,51.82214 -9.25798,0 0,-65.48332 53.06407,0 z"
         style=""
         id="path4167" />
      <path
         d="m 1050.9308,402.87889 q 5.758,0 9.7096,4.06449 4.0644,3.95158 4.0644,9.59669 l 0,23.70948 -57.4672,0 0,14.45149 q 0,1.80643 1.2419,3.16126 1.3548,1.24193 3.1613,1.24193 l 53.064,0 0,9.25798 -53.064,0 q -5.6451,0 -9.7096,-3.95158 -3.95161,-4.06448 -3.95161,-9.70959 l 0,-38.16097 q 0,-5.64511 3.95161,-9.59669 4.0645,-4.06449 9.7096,-4.06449 l 39.29,0 z m -43.6932,28.11267 48.0963,0 0,-14.45149 q 0,-1.80644 -1.3548,-3.04836 -1.2419,-1.35483 -3.0483,-1.35483 l -39.29,0 q -1.8065,0 -3.1613,1.35483 -1.2419,1.24192 -1.2419,3.04836 l 0,14.45149 z"
         style=""
         id="path4169" />
      <path
         d="m 1113.8632,412.13688 -28.3385,0 0,42.56416 q 0,1.80643 1.2419,3.16126 1.3549,1.24193 3.1613,1.24193 l 23.9353,0 0,9.25798 -23.9353,0 q -5.758,0 -9.7096,-3.95158 -3.9516,-4.06448 -3.9516,-9.70959 l 0,-73.27358 9.258,0 0,21.45143 28.3385,0 0,9.25799 z"
         style=""
         id="path4171" />
    </g>
    <path
       style="color:#000000;display:inline;overflow:visible;visibility:visible;fill:#000000;fill-opacity:1;fill-rule:nonzero;stroke:#999999;stroke-width:0;stroke-linejoin:miter;stroke-miterlimit:4;stroke-dasharray:none;stroke-opacity:1;marker:none;enable-background:accumulate"
       d="m 1123.1617,414.73364 42.3384,0 0,42.33833 -42.3384,0 z"
       id="rect4166" />
  </g>
</svg>
